ply
format ascii 1.0
element vertex 45
property float x
property float y
property float z
property uchar red
property uchar green
property uchar blue
end_header
-1.3645343 -0.0645632 3.1107409 64 255 128
-1.3163258 -0.0265637 3.2055051 64 255 128
-1.4417838 -0.0357400 3.1842172 64 255 128
-1.3489532 -0.1279832 3.0280585 64 255 128
-1.2742696 0.3748309 3.2631471 64 255 128
-1.5223461 0.3635376 3.2606378 64 255 128
-1.3297130 -0.0452109 2.9215975 64 255 128
-1.2535237 0.8038528 3.2829983 64 255 128
-1.5730867 0.7864745 3.3162167 64 255 128
-1.3253506 -0.0012992 2.8866227 64 255 128
-1.2111623 0.8934242 3.1883576 64 255 128
-1.6202891 0.8594909 3.2106845 64 255 128
-1.3281997 0.0595865 2.6763489 64 255 128
-1.2511468 0.0339145 2.7683766 64 255 128
-1.3958917 0.0049209 2.7612622 64 255 128
-1.3084941 0.1257715 2.6197867 64 255 128
-1.2079985 0.1088760 2.7925978 64 255 128
-1.4652882 0.0638652 2.7852120 64 255 128
-1.2408885 0.2992656 2.9933858 64 255 128
-1.6103783 0.1671401 2.9867544 64 255 128
-1.4030236 0.5000287 2.9929180 64 255 128
-1.6220980 0.4329007 3.0129631 64 255 128
-1.4324702 0.5766550 3.0103559 64 255 128
-1.6434636 0.5137233 3.0179839 64 255 128
-1.3336589 0.2049482 2.5446889 64 255 128
-1.3646559 0.1567457 2.5229409 64 255 128
-1.2982808 0.1634153 2.5135324 64 255 128
-1.3849348 0.0711231 2.5709252 64 255 128
-1.2446851 0.0901175 2.5577526 64 255 128
-1.2412878 0.8940285 3.1169696 64 255 128
-1.1743327 0.8955977 3.1594565 64 255 128
-1.2565548 0.8327657 3.3477843 64 255 128
-1.5954190 0.8757988 3.1368141 64 255 128
-1.6594050 0.8816440 3.1955147 64 255 128
-1.5698608 0.8179359 3.3808370 64 255 128
-1.5096804 0.5839267 2.9476752 64 255 128
-1.4897696 0.6679211 2.9823418 64 255 128
-1.4689960 0.6854149 3.0068400 64 255 128
-1.4483236 0.6716201 3.0295360 64 255 128
-1.4297009 0.6392641 3.0541830 64 255 128
-1.5564400 0.5523267 2.9955194 64 255 128
-1.6328961 0.6157399 2.9989238 64 255 128
-1.6660639 0.6189809 3.0074730 64 255 128
-1.6853896 0.5979261 3.0220528 64 255 128
-1.7010522 0.5598844 3.0400994 64 255 128
