ply
format ascii 1.0
element vertex 90
property float x
property float y
property float z
property uchar red
property uchar green
property uchar blue
end_header
-1.3259954 -0.0126573 3.1181550 255 64 64
-1.2607306 0.0474077 3.1865532 255 64 64
-1.3866758 0.0522035 3.1821673 255 64 64
-1.3307098 -0.1023419 3.0642946 255 64 64
-1.1650558 0.4366522 3.1404598 255 64 64
-1.4234031 0.4606998 3.1785271 255 64 64
-1.3257172 -0.0933434 2.9274530 255 64 64
-1.0942241 0.8533670 3.1768496 255 64 64
-1.4228864 0.8770463 3.2573481 255 64 64
-1.3246982 -0.0707584 2.8758938 255 64 64
-1.0331335 0.9451838 3.0972466 255 64 64
-1.4805845 0.9632397 3.1699083 255 64 64
-1.3477598 -0.0942709 2.6609302 255 64 64
-1.2634711 -0.0945130 2.7492671 255 64 64
-1.4088297 -0.1022857 2.7650738 255 64 64
-1.3223169 -0.0368423 2.5964956 255 64 64
-1.2065517 -0.0259816 2.7424586 255 64 64
-1.4780811 -0.0426774 2.7857969 255 64 64
-1.2157398 0.2150214 2.8757558 255 64 64
-1.5611646 0.1081532 2.9882832 255 64 64
-1.3908963 0.3836924 2.7972693 255 64 64
-1.4822257 0.3597890 2.9677560 255 64 64
-1.4147338 0.4546777 2.7606227 255 64 64
-1.4800578 0.4414590 2.9525914 255 64 64
-1.3233379 0.0541408 2.5337052 255 64 64
-1.3629358 0.0179476 2.5042100 255 64 64
-1.2967662 0.0106685 2.4983485 255 64 64
-1.4051681 -0.0656530 2.5389960 255 64 64
-1.2648264 -0.0775201 2.5316448 255 64 64
-1.0510888 0.9548892 3.0228343 255 64 64
-0.9922501 0.9465771 3.0750239 255 64 64
-1.1014572 0.8760810 3.2425151 255 64 64
-1.4683429 0.9915091 3.0961792 255 64 64
-1.5181915 0.9890006 3.1672623 255 64 64
-1.4051346 0.9011666 3.3217063 255 64 64
-1.5089604 0.4379290 2.7416506 255 64 64
-1.4803257 0.5119579 2.6964753 255 64 64
-1.4539434 0.5334365 2.6914589 255 64 64
-1.4271244 0.5333654 2.7081149 255 64 64
-1.3986340 0.5233780 2.7390273 255 64 64
-1.3876207 0.4466787 2.9255025 255 64 64
-1.4438916 0.5266684 2.9113863 255 64 64
-1.4735665 0.5402206 2.9176917 255 64 64
-1.4965185 0.5296338 2.9349725 255 64 64
-1.5204237 0.5034816 2.9603541 255 64 64
-1.3326120 -0.0533601 3.0335827 64 255 128
-1.2791755 -0.0038393 3.1198411 64 255 128
-1.4056673 -0.0118592 3.1052601 64 255 128
-1.3224705 -0.1283870 2.9603069 64 255 128
-1.2426264 0.3990738 3.1701818 64 255 128
-1.4943554 0.3894166 3.1587868 64 255 128
-1.3122783 -0.0812503 2.8329110 64 255 128
-1.2246413 0.8267739 3.2105970 64 255 128
-1.5506836 0.8107095 3.2210670 64 255 128
-1.3114151 -0.0532214 2.7840836 64 255 128
-1.1777805 0.9124320 3.1144662 64 255 128
-1.5890769 0.8854445 3.1131916 64 255 128
-1.3369409 -0.0699043 2.5672879 64 255 128
-1.2503955 -0.0637157 2.6541033 64 255 128
-1.3947654 -0.0894842 2.6724246 64 255 128
-1.3277447 -0.0198889 2.4939260 64 255 128
-1.1919378 0.0044778 2.6541641 64 255 128
-1.4784632 -0.0508609 2.6915774 64 255 128
-1.2267711 0.1657893 2.8786879 64 255 128
-1.5779141 0.0079112 2.9344592 64 255 128
-1.4174832 0.3355761 2.9160409 64 255 128
-1.6188457 0.2705459 2.9627531 64 255 128
-1.4631391 0.4007225 2.9427664 64 255 128
-1.6437424 0.3494650 2.9756343 64 255 128
-1.3711064 0.0402455 2.4103730 64 255 128
-1.3971102 -0.0140314 2.4012778 64 255 128
-1.3340628 -0.0016418 2.3821819 64 255 128
-1.3995692 -0.0899721 2.4647887 64 255 128
-1.2666608 -0.0584618 2.4303527 64 255 128
-1.2047476 0.9154085 3.0418773 64 255 128
-1.1391394 0.9133264 3.0868084 64 255 128
-1.2308252 0.8563040 3.2742851 64 255 128
-1.5595514 0.8968365 3.0402136 64 255 128
-1.6268004 0.9060249 3.0946612 64 255 128
-1.5473344 0.8445386 3.2853799 64 255 128
-1.5510292 0.3801505 2.9014010 64 255 128
-1.5479895 0.4679476 2.9333737 64 255 128
-1.5281137 0.4915720 2.9521224 64 255 128
-1.5002240 0.4853707 2.9678397 64 255 128
-1.4673569 0.4620430 2.9848866 64 255 128
-1.5697064 0.3923727 2.9258893 64 255 128
-1.6477766 0.4498550 2.9563684 64 255 128
-1.6760573 0.4505643 2.9744956 64 255 128
-1.6885618 0.4281844 2.9938126 64 255 128
-1.6941454 0.3896788 3.0155447 64 255 128
