ply
format ascii 1.0
element vertex 45
property float x
property float y
property float z
property uchar red
property uchar green
property uchar blue
end_header
-1.3587618 -0.0500484 3.2334020 255 64 64
-1.2982988 -0.0097407 3.3193719 255 64 64
-1.4244816 -0.0012317 3.3070395 255 64 64
-1.3595526 -0.1243575 3.1585662 255 64 64
-1.1892108 0.3778877 3.2665691 255 64 64
-1.4656489 0.4095645 3.3119969 255 64 64
-1.3430201 -0.0527428 3.0431795 255 64 64
-1.1150990 0.7978605 3.3025303 255 64 64
-1.4847358 0.8246337 3.4128661 255 64 64
-1.3340191 -0.0117314 3.0055456 255 64 64
-1.0547502 0.8960711 3.2289176 255 64 64
-1.5361584 0.9185110 3.3281164 255 64 64
-1.3330764 0.0515022 2.7962601 255 64 64
-1.2588305 0.0098086 2.8847411 255 64 64
-1.4071711 0.0105536 2.8836222 255 64 64
-1.2945871 0.1169011 2.7495558 255 64 64
-1.2116688 0.0849426 2.9011683 255 64 64
-1.4562724 0.0875042 2.9085991 255 64 64
-1.1921818 0.3286962 3.0324650 255 64 64
-1.5650769 0.2864689 3.0511866 255 64 64
-1.3604515 0.5157002 2.9783051 255 64 64
-1.4180053 0.5062362 3.0191722 255 64 64
-1.3731523 0.5884771 2.9386177 255 64 64
-1.3882958 0.5803957 2.9944131 255 64 64
-1.2882053 0.2129446 2.6966853 255 64 64
-1.3257496 0.1807623 2.6598196 255 64 64
-1.2591778 0.1717432 2.6598086 255 64 64
-1.3738745 0.0954859 2.6817820 255 64 64
-1.2320366 0.0793516 2.6875155 255 64 64
-1.0792054 0.9076917 3.1557047 255 64 64
-1.0165839 0.8994780 3.2038565 255 64 64
-1.1182303 0.8174688 3.3717728 255 64 64
-1.5158651 0.9555222 3.2590003 255 64 64
-1.5747734 0.9450194 3.3244200 255 64 64
-1.4733682 0.8444004 3.4814341 255 64 64
-1.4717990 0.5939455 2.9313502 255 64 64
-1.4349436 0.6574353 2.8761909 255 64 64
-1.4052919 0.6725117 2.8661025 255 64 64
-1.3759434 0.6672565 2.8796577 255 64 64
-1.3455765 0.6529765 2.9087608 255 64 64
-1.2936270 0.5609220 2.9984121 255 64 64
-1.3174516 0.6458122 2.9550126 255 64 64
-1.3428034 0.6673100 2.9491296 255 64 64
-1.3720059 0.6665382 2.9597936 255 64 64
-1.4091082 0.6525388 2.9785640 255 64 64
