ply
format ascii 1.0
element vertex 45
property float x
property float y
property float z
property uchar red
property uchar green
property uchar blue
end_header
-0.1146324 0.1850681 2.1046076 64 255 128
-0.1130978 0.2622027 2.1896315 64 255 128
-0.1134683 0.2911074 2.0666232 64 255 128
-0.1537915 0.0756499 2.0751529 64 255 128
-0.0826109 0.6126195 2.3884935 64 255 128
-0.1406570 0.6957592 2.1445854 64 255 128
-0.1148290 -0.0725371 2.0548296 64 255 128
-0.1146118 1.0210701 2.5167756 64 255 128
-0.2426933 1.0854414 2.2938440 64 255 128
-0.1069211 -0.1334939 2.0429738 64 255 128
0.0012626 1.0802745 2.5749152 64 255 128
-0.1311193 1.1467390 2.2263410 64 255 128
-0.1360279 -0.3514471 1.9929228 64 255 128
-0.1214362 -0.2767435 2.0977151 64 255 128
-0.1453617 -0.2358408 1.9348952 64 255 128
-0.0869023 -0.4211995 1.9812623 64 255 128
-0.0713592 -0.3613915 2.1257105 64 255 128
-0.1036260 -0.3028111 1.8584759 64 255 128
0.1037141 -0.5737813 2.0893447 64 255 128
0.0691594 -0.4795900 1.7509394 64 255 128
0.0733623 -0.7200959 1.8692319 64 255 128
0.0957592 -0.7417794 1.8181291 64 255 128
0.0634174 -0.8039850 1.8371954 64 255 128
0.1240512 -0.8249149 1.7998787 64 255 128
0.0043151 -0.4802528 1.9355581 64 255 128
-0.0449326 -0.4891104 1.8929580 64 255 128
-0.0402639 -0.5247002 1.9500930 64 255 128
-0.1342334 -0.4346624 1.8822757 64 255 128
-0.1223839 -0.5120944 2.0113873 64 255 128
0.0804944 1.0689961 2.5579665 64 255 128
0.0199922 1.0703154 2.6181169 64 255 128
-0.1803870 1.0614550 2.5303736 64 255 128
-0.0464200 1.1513381 2.2355366 64 255 128
-0.1245646 1.1744936 2.1896005 64 255 128
-0.2966362 1.1313303 2.3275251 64 255 128
-0.0072633 -0.7758819 1.7575128 64 255 128
0.0102823 -0.8762668 1.7708201 64 255 128
0.0261264 -0.9013654 1.7894211 64 255 128
0.0502005 -0.8986884 1.8114331 64 255 128
0.0832108 -0.8796467 1.8360085 64 255 128
0.0336813 -0.8737651 1.8460455 64 255 128
0.1147928 -0.9299248 1.7896832 64 255 128
0.1455225 -0.9287921 1.7714530 64 255 128
0.1699464 -0.9059426 1.7697688 64 255 128
0.1906608 -0.8651532 1.7769276 64 255 128
