ply
format ascii 1.0
element vertex 45
property float x
property float y
property float z
property uchar red
property uchar green
property uchar blue
end_header
0.7569346 -0.1192416 3.6699610 255 64 64
0.8221642 -0.0348543 3.7021139 255 64 64
0.6944306 -0.0395129 3.7107084 255 64 64
0.7569056 -0.2216789 3.6550591 255 64 64
0.8736269 0.3451388 3.6925850 255 64 64
0.5757012 0.3297178 3.6643331 255 64 64
0.7468325 -0.3228893 3.5676715 255 64 64
0.8527845 0.7022027 3.8749053 255 64 64
0.5800342 0.7067882 3.8011272 255 64 64
0.7383242 -0.3338479 3.5135314 255 64 64
0.9122388 0.7877991 3.7971430 255 64 64
0.5006389 0.7810970 3.7311776 255 64 64
0.6947341 -0.4991368 3.3912289 255 64 64
0.7854390 -0.4451609 3.4444113 255 64 64
0.6443087 -0.4254480 3.4664075 255 64 64
0.7041061 -0.4823969 3.3068767 255 64 64
0.8627450 -0.4208289 3.4128246 255 64 64
0.5703114 -0.3748203 3.4541602 255 64 64
0.9363878 -0.1723349 3.4177537 255 64 64
0.5257717 -0.1312817 3.4829128 255 64 64
0.8959173 -0.0249076 3.2316322 255 64 64
0.5146170 -0.0042437 3.2695708 255 64 64
0.9077129 0.0326350 3.1781149 255 64 64
0.5152525 0.0547910 3.2173815 255 64 64
0.6853716 -0.4612093 3.1980557 255 64 64
0.6512536 -0.5083261 3.2070947 255 64 64
0.7165713 -0.5122929 3.1976244 255 64 64
0.6260986 -0.5467247 3.2958224 255 64 64
0.7635302 -0.5516698 3.2769122 255 64 64
0.9064308 0.8025644 3.7264180 255 64 64
0.9558451 0.7909038 3.7848058 255 64 64
0.8411953 0.7172511 3.9361393 255 64 64
0.4982479 0.8037758 3.6609511 255 64 64
0.4601498 0.7953686 3.7311809 255 64 64
0.6049985 0.7317902 3.8596475 255 64 64
0.8226845 0.0719133 3.1794484 255 64 64
0.8729398 0.0975138 3.1099393 255 64 64
0.9043918 0.0957224 3.0965393 255 64 64
0.9294326 0.0816580 3.1081119 255 64 64
0.9542541 0.0636642 3.1388953 255 64 64
0.6072153 0.0495481 3.1991711 255 64 64
0.5527961 0.1037020 3.1447296 255 64 64
0.5214515 0.1171969 3.1425447 255 64 64
0.4968611 0.1160621 3.1599631 255 64 64
0.4708177 0.1063533 3.1948290 255 64 64
