ply
format ascii 1.0
element vertex 45
property float x
property float y
property float z
property uchar red
property uchar green
property uchar blue
end_header
-1.3824764 -0.0496937 3.3047094 255 64 64
-1.3306652 -0.0242548 3.4019179 255 64 64
-1.4555341 -0.0098569 3.3775609 255 64 64
-1.3762418 -0.1120062 3.2200823 255 64 64
-1.2174383 0.3653824 3.3979681 255 64 64
-1.4769464 0.4017290 3.3959773 255 64 64
-1.3510284 -0.0166444 3.1255777 255 64 64
-1.1423560 0.7747787 3.4944487 255 64 64
-1.4841616 0.8113680 3.5159144 255 64 64
-1.3377464 0.0308017 3.0979788 255 64 64
-1.0752599 0.8801356 3.4399369 255 64 64
-1.5150291 0.9122033 3.4300637 255 64 64
-1.3177420 0.1291921 2.9036777 255 64 64
-1.2531410 0.0670982 2.9876103 255 64 64
-1.4000580 0.0794908 2.9779441 255 64 64
-1.2742512 0.1924273 2.8581867 255 64 64
-1.2095931 0.1406847 3.0146360 255 64 64
-1.4342000 0.1630148 3.0038261 255 64 64
-1.1816007 0.3786375 3.1529903 255 64 64
-1.5149142 0.3869183 3.1244237 255 64 64
-1.2807922 0.6093135 3.1034625 255 64 64
-1.4117455 0.6193825 3.0499527 255 64 64
-1.2661084 0.6811404 3.0639305 255 64 64
-1.4015043 0.6933360 3.0136654 255 64 64
-1.2529539 0.2850915 2.8035336 255 64 64
-1.2890351 0.2553866 2.7635491 255 64 64
-1.2239538 0.2400289 2.7716384 255 64 64
-1.3475465 0.1758051 2.7825880 255 64 64
-1.2097023 0.1464936 2.8046913 255 64 64
-1.0898880 0.8967878 3.3658452 255 64 64
-1.0341401 0.8855794 3.4208798 255 64 64
-1.1527394 0.7872915 3.5656519 255 64 64
-1.4826883 0.9519222 3.3684897 255 64 64
-1.5503573 0.9431667 3.4244952 255 64 64
-1.4808282 0.8275495 3.5863016 255 64 64
-1.3560199 0.7201859 3.0532227 255 64 64
-1.2982641 0.7662155 2.9985993 255 64 64
-1.2644454 0.7702309 2.9902596 255 64 64
-1.2385986 0.7551295 3.0048420 255 64 64
-1.2161750 0.7320784 3.0363269 255 64 64
-1.3054068 0.6978839 3.0140424 255 64 64
-1.3487716 0.7668461 2.9608209 255 64 64
-1.3792099 0.7809778 2.9536121 255 64 64
-1.4074064 0.7754061 2.9663630 255 64 64
-1.4401462 0.7562019 2.9892473 255 64 64
