ply
format ascii 1.0
element vertex 90
property float x
property float y
property float z
property uchar red
property uchar green
property uchar blue
end_header
0.8016982 -0.1113038 3.7099025 255 64 64
0.8660988 -0.0255359 3.7399693 255 64 64
0.7382089 -0.0328361 3.7516465 255 64 64
0.8035182 -0.2136875 3.6955569 255 64 64
0.9165388 0.3531892 3.7295086 255 64 64
0.6156272 0.3344566 3.7124615 255 64 64
0.7933902 -0.3150061 3.6095994 255 64 64
0.8986243 0.7070528 3.9153781 255 64 64
0.6230391 0.7082890 3.8541393 255 64 64
0.7834389 -0.3271405 3.5560298 255 64 64
0.9593825 0.7902523 3.8365123 255 64 64
0.5416570 0.7807858 3.7851377 255 64 64
0.7394889 -0.4949407 3.4373705 255 64 64
0.8308907 -0.4379203 3.4859989 255 64 64
0.6899871 -0.4219891 3.5138950 255 64 64
0.7407706 -0.4833419 3.3518226 255 64 64
0.9044823 -0.4125170 3.4470115 255 64 64
0.6156096 -0.3723297 3.4998550 255 64 64
0.9755851 -0.1650971 3.4244282 255 64 64
0.5621021 -0.1296444 3.5009160 255 64 64
0.9240985 -0.0298236 3.2328730 255 64 64
0.5432492 -0.0189242 3.2801037 255 64 64
0.9319747 0.0263344 3.1773655 255 64 64
0.5366712 0.0356275 3.2237692 255 64 64
0.7097623 -0.4750207 3.2434089 255 64 64
0.6790162 -0.5220451 3.2611046 255 64 64
0.7431355 -0.5246777 3.2450984 255 64 64
0.6649695 -0.5512602 3.3557973 255 64 64
0.8001495 -0.5532296 3.3231044 255 64 64
0.9540623 0.8046675 3.7658172 255 64 64
1.0032718 0.7928804 3.8245308 255 64 64
0.8876950 0.7225574 3.9764891 255 64 64
0.5378428 0.8032442 3.7151539 255 64 64
0.5009676 0.7943954 3.7857106 255 64 64
0.6482843 0.7333267 3.9121845 255 64 64
0.8455496 0.0626161 3.1808445 255 64 64
0.8923799 0.0878320 3.1085575 255 64 64
0.9235677 0.0866887 3.0940769 255 64 64
0.9497763 0.0738303 3.1051457 255 64 64
0.9763089 0.0578346 3.1357841 255 64 64
0.6279801 0.0384084 3.2027216 255 64 64
0.5673640 0.0824725 3.1462545 255 64 64
0.5346725 0.0925167 3.1440275 255 64 64
0.5108171 0.0904471 3.1624279 255 64 64
0.4866442 0.0807691 3.1988139 255 64 64
0.7004477 -0.1020006 3.6707573 64 255 128
0.7658880 -0.0125603 3.6911025 64 255 128
0.6361400 -0.0135189 3.6858668 64 255 128
0.6981228 -0.2065215 3.6789882 64 255 128
0.8386328 0.3639217 3.6948462 64 255 128
0.5288663 0.3610626 3.6588402 64 255 128
0.6946386 -0.3283020 3.6194518 64 255 128
0.7967808 0.7172910 3.8806007 64 255 128
0.5421623 0.7273308 3.8221123 64 255 128
0.6899590 -0.3330666 3.5630522 64 255 128
0.8573905 0.7992180 3.7990916 64 255 128
0.4685915 0.7956279 3.7396872 64 255 128
0.6622031 -0.4815809 3.4137416 64 255 128
0.7476939 -0.4274036 3.4764142 64 255 128
0.6047950 -0.4259201 3.5003352 64 255 128
0.6682998 -0.4392150 3.3378756 64 255 128
0.8182803 -0.3865239 3.4461620 64 255 128
0.5272480 -0.3800787 3.4888349 64 255 128
0.8972417 -0.1445935 3.3991435 64 255 128
0.4608932 -0.1414826 3.4607189 64 255 128
0.8476975 -0.0046836 3.2099245 64 255 128
0.4737681 -0.0110831 3.2495928 64 255 128
0.8442802 0.0598247 3.1631346 64 255 128
0.4603558 0.0471838 3.1976156 64 255 128
0.6486837 -0.3886324 3.2375741 64 255 128
0.6187322 -0.4389063 3.2316661 64 255 128
0.6843109 -0.4342628 3.2236896 64 255 128
0.5956590 -0.5043720 3.3050537 64 255 128
0.7340414 -0.4915454 3.2903948 64 255 128
0.8557154 0.8084921 3.7275901 64 255 128
0.9015532 0.8047489 3.7904179 64 255 128
0.7825041 0.7342616 3.9395185 64 255 128
0.4725051 0.8149340 3.6691284 64 255 128
0.4281958 0.8086123 3.7348011 64 255 128
0.5599253 0.7539659 3.8820546 64 255 128
0.7534734 0.0824045 3.1779187 64 255 128
0.7908341 0.1253512 3.1072843 64 255 128
0.8215463 0.1313162 3.0912080 64 255 128
0.8509932 0.1203632 3.0975728 64 255 128
0.8823353 0.1037628 3.1240668 64 255 128
0.5328311 0.1014655 3.2245843 64 255 128
0.4874423 0.1241521 3.1461575 64 255 128
0.4580795 0.1164495 3.1274648 64 255 128
0.4349052 0.0980191 3.1316638 64 255 128
0.4080026 0.0666081 3.1515183 64 255 128
