ply
format ascii 1.0
element vertex 45
property float x
property float y
property float z
property uchar red
property uchar green
property uchar blue
end_header
-0.1933556 0.1813071 2.1401601 64 255 128
-0.1859533 0.2592503 2.2241316 64 255 128
-0.1914806 0.2868915 2.1009567 64 255 128
-0.2364558 0.0725742 2.1138377 64 255 128
-0.1368352 0.6106020 2.4175401 64 255 128
-0.2150916 0.6939093 2.1668298 64 255 128
-0.1993342 -0.0749861 2.0866635 64 255 128
-0.1923734 1.0204437 2.5326805 64 255 128
-0.3301845 1.0802234 2.3153446 64 255 128
-0.1914425 -0.1357018 2.0736191 64 255 128
-0.0700203 1.0778129 2.5779653 64 255 128
-0.2225679 1.1420480 2.2421381 64 255 128
-0.2262398 -0.3543931 2.0309684 64 255 128
-0.2114994 -0.2763085 2.1332448 64 255 128
-0.2308024 -0.2408018 1.9685558 64 255 128
-0.1662856 -0.4133166 2.0123081 64 255 128
-0.1734458 -0.3411942 2.2025158 64 255 128
-0.1936483 -0.2819268 1.8737134 64 255 128
0.0102982 -0.5239823 2.3020604 64 255 128
-0.0373114 -0.3971724 1.6867726 64 255 128
-0.0094670 -0.7572775 2.1757219 64 255 128
0.0214350 -0.6566164 1.6301787 64 255 128
-0.0450782 -0.8299735 2.2158434 64 255 128
0.0203781 -0.7120838 1.5596998 64 255 128
-0.0738732 -0.4730492 1.9680452 64 255 128
-0.1236433 -0.4862152 1.9274715 64 255 128
-0.1162647 -0.5179589 1.9868360 64 255 128
-0.2143788 -0.4350894 1.9157611 64 255 128
-0.1975053 -0.5043766 2.0492558 64 255 128
0.0077298 1.0684376 2.5551133 64 255 128
-0.0490450 1.0676222 2.6198006 64 255 128
-0.2562138 1.0611207 2.5507658 64 255 128
-0.1381619 1.1452413 2.2441015 64 255 128
-0.2190180 1.1675712 2.2034559 64 255 128
-0.3834274 1.1254692 2.3511183 64 255 128
-0.0937341 -0.8671952 2.1273360 64 255 128
-0.1134732 -0.9161792 2.2124419 64 255 128
-0.1085700 -0.9177101 2.2469075 64 255 128
-0.0869489 -0.9018162 2.2657418 64 255 128
-0.0510899 -0.8753472 2.2774742 64 255 128
-0.0209347 -0.7972612 1.6176441 64 255 128
-0.0056454 -0.7995527 1.5067457 64 255 128
0.0053209 -0.7825729 1.4776651 64 255 128
0.0249290 -0.7559490 1.4729095 64 255 128
0.0496148 -0.7184327 1.4843923 64 255 128
