ply
format ascii 1.0
element vertex 90
property float x
property float y
property float z
property uchar red
property uchar green
property uchar blue
end_header
-0.0499788 0.1833234 2.0425632 255 64 64
-0.0553521 0.2625140 2.1263936 255 64 64
-0.0418448 0.2886477 2.0017350 255 64 64
-0.0895364 0.0734591 2.0112607 255 64 64
-0.0468788 0.6271594 2.3047230 255 64 64
-0.0614361 0.6996908 2.0545433 255 64 64
-0.0729140 -0.0801204 1.9994072 255 64 64
-0.0988451 1.0425241 2.4107704 255 64 64
-0.1915927 1.0880420 2.1923463 255 64 64
-0.0641028 -0.1422531 1.9928744 255 64 64
0.0065266 1.0969026 2.4920332 255 64 64
-0.0788290 1.1618549 2.1375873 255 64 64
-0.0964347 -0.3657589 1.9657810 255 64 64
-0.0887190 -0.2786357 2.0632098 255 64 64
-0.0971213 -0.2564069 1.8931504 255 64 64
-0.0363449 -0.4289553 1.9628745 255 64 64
-0.0591058 -0.3552426 2.1265881 255 64 64
-0.0511180 -0.3088005 1.8061805 255 64 64
0.1045973 -0.5644412 2.2139814 255 64 64
0.1307416 -0.4540447 1.6657101 255 64 64
0.0581089 -0.7614943 2.0373502 255 64 64
0.1222943 -0.7240951 1.7130259 255 64 64
0.0244016 -0.8459688 2.0268705 255 64 64
0.1177335 -0.8079807 1.6785520 255 64 64
0.0610485 -0.4940678 1.9404441 255 64 64
0.0177373 -0.5112678 1.8938572 255 64 64
0.0144510 -0.5364027 1.9569726 255 64 64
-0.0696256 -0.4602939 1.8619175 255 64 64
-0.0758652 -0.5159646 2.0040314 255 64 64
0.0882052 1.0843927 2.4889643 255 64 64
0.0162154 1.0841587 2.5383592 255 64 64
-0.1662813 1.0810150 2.4142520 255 64 64
0.0043404 1.1754311 2.1546717 255 64 64
-0.0722147 1.1900119 2.1010742 255 64 64
-0.2539355 1.1277750 2.2198977 255 64 64
-0.0062320 -0.8306413 1.9217510 255 64 64
-0.0327937 -0.9196179 1.9658428 255 64 64
-0.0336015 -0.9390750 1.9953643 255 64 64
-0.0174700 -0.9346013 2.0232801 255 64 64
0.0131312 -0.9176855 2.0541484 255 64 64
0.0467275 -0.8442446 1.7583072 255 64 64
0.0783490 -0.9058790 1.6683896 255 64 64
0.0982967 -0.9078438 1.6384366 255 64 64
0.1237569 -0.8900647 1.6265339 255 64 64
0.1557014 -0.8557137 1.6253796 255 64 64
-0.1146324 0.1850681 2.1046076 64 255 128
-0.1130978 0.2622027 2.1896315 64 255 128
-0.1134683 0.2911074 2.0666232 64 255 128
-0.1537915 0.0756499 2.0751529 64 255 128
-0.0826109 0.6126195 2.3884935 64 255 128
-0.1406570 0.6957592 2.1445854 64 255 128
-0.1148290 -0.0725371 2.0548296 64 255 128
-0.1146118 1.0210701 2.5167756 64 255 128
-0.2426933 1.0854414 2.2938440 64 255 128
-0.1069211 -0.1334939 2.0429738 64 255 128
0.0012626 1.0802745 2.5749152 64 255 128
-0.1311193 1.1467390 2.2263410 64 255 128
-0.1360279 -0.3514471 1.9929228 64 255 128
-0.1214362 -0.2767435 2.0977151 64 255 128
-0.1453617 -0.2358408 1.9348952 64 255 128
-0.0869023 -0.4211995 1.9812623 64 255 128
-0.0713592 -0.3613915 2.1257105 64 255 128
-0.1036260 -0.3028111 1.8584759 64 255 128
0.1037141 -0.5737813 2.0893447 64 255 128
0.0691594 -0.4795900 1.7509394 64 255 128
0.0733623 -0.7200959 1.8692319 64 255 128
0.0957592 -0.7417794 1.8181291 64 255 128
0.0634174 -0.8039850 1.8371954 64 255 128
0.1240512 -0.8249149 1.7998787 64 255 128
0.0043151 -0.4802528 1.9355581 64 255 128
-0.0449326 -0.4891104 1.8929580 64 255 128
-0.0402639 -0.5247002 1.9500930 64 255 128
-0.1342334 -0.4346624 1.8822757 64 255 128
-0.1223839 -0.5120944 2.0113873 64 255 128
0.0804944 1.0689961 2.5579665 64 255 128
0.0199922 1.0703154 2.6181169 64 255 128
-0.1803870 1.0614550 2.5303736 64 255 128
-0.0464200 1.1513381 2.2355366 64 255 128
-0.1245646 1.1744936 2.1896005 64 255 128
-0.2966362 1.1313303 2.3275251 64 255 128
-0.0072633 -0.7758819 1.7575128 64 255 128
0.0102823 -0.8762668 1.7708201 64 255 128
0.0261264 -0.9013654 1.7894211 64 255 128
0.0502005 -0.8986884 1.8114331 64 255 128
0.0832108 -0.8796467 1.8360085 64 255 128
0.0336813 -0.8737651 1.8460455 64 255 128
0.1147928 -0.9299248 1.7896832 64 255 128
0.1455225 -0.9287921 1.7714530 64 255 128
0.1699464 -0.9059426 1.7697688 64 255 128
0.1906608 -0.8651532 1.7769276 64 255 128
