ply
format ascii 1.0
element vertex 45
property float x
property float y
property float z
property uchar red
property uchar green
property uchar blue
end_header
-0.2869666 0.1779087 2.1564746 255 64 64
-0.2767009 0.2552896 2.2406762 255 64 64
-0.2985912 0.2828280 2.1171679 255 64 64
-0.3228377 0.0673985 2.1343091 255 64 64
-0.2323843 0.6140479 2.4192739 255 64 64
-0.3007568 0.6896952 2.1823416 255 64 64
-0.3057570 -0.0825376 2.1150811 255 64 64
-0.3260403 1.0059285 2.5653734 255 64 64
-0.3853346 1.0739994 2.3528888 255 64 64
-0.2871172 -0.1405602 2.1015849 255 64 64
-0.2141655 1.0784096 2.6149585 255 64 64
-0.2856792 1.1525126 2.2858644 255 64 64
-0.2954071 -0.3649575 2.0679646 255 64 64
-0.2763405 -0.2799118 2.1654398 255 64 64
-0.3305658 -0.2543113 2.0081682 255 64 64
-0.2210523 -0.4090191 2.0423241 255 64 64
-0.2248350 -0.3162495 2.2455287 255 64 64
-0.3303375 -0.2540317 1.8995923 255 64 64
0.0065656 -0.3338458 2.3986650 255 64 64
-0.2316284 -0.1710132 1.6632109 255 64 64
0.0878382 -0.5300012 2.2390630 255 64 64
-0.0906381 -0.4022782 1.6694777 255 64 64
0.0929247 -0.6159765 2.2125070 255 64 64
-0.0666243 -0.4869858 1.6558548 255 64 64
-0.1218031 -0.4515161 1.9875424 255 64 64
-0.1709104 -0.4782411 1.9553146 255 64 64
-0.1495515 -0.5026788 2.0151241 255 64 64
-0.2728487 -0.4500025 1.9551972 255 64 64
-0.2245711 -0.5029591 2.0877180 255 64 64
-0.1378330 1.0860717 2.5869799 255 64 64
-0.1888571 1.0667102 2.6546233 255 64 64
-0.3934130 1.0310526 2.5854390 255 64 64
-0.2017523 1.1588762 2.2871621 255 64 64
-0.2834998 1.1803043 2.2492459 255 64 64
-0.4395345 1.1099875 2.3946016 255 64 64
0.1018503 -0.5940263 2.1081665 255 64 64
0.0921240 -0.6898782 2.1330845 255 64 64
0.0870581 -0.7130982 2.1586170 255 64 64
0.0883704 -0.7082425 2.1897485 255 64 64
0.0966351 -0.6884760 2.2307053 255 64 64
-0.0536155 -0.5063624 1.7631675 255 64 64
-0.0478174 -0.5830178 1.6843607 255 64 64
-0.0476005 -0.5904173 1.6498265 255 64 64
-0.0469535 -0.5722360 1.6227648 255 64 64
-0.0446738 -0.5335163 1.5971550 255 64 64
