ply
format ascii 1.0
element vertex 45
property float x
property float y
property float z
property uchar red
property uchar green
property uchar blue
end_header
0.7004477 -0.1020006 3.6707573 64 255 128
0.7658880 -0.0125603 3.6911025 64 255 128
0.6361400 -0.0135189 3.6858668 64 255 128
0.6981228 -0.2065215 3.6789882 64 255 128
0.8386328 0.3639217 3.6948462 64 255 128
0.5288663 0.3610626 3.6588402 64 255 128
0.6946386 -0.3283020 3.6194518 64 255 128
0.7967808 0.7172910 3.8806007 64 255 128
0.5421623 0.7273308 3.8221123 64 255 128
0.6899590 -0.3330666 3.5630522 64 255 128
0.8573905 0.7992180 3.7990916 64 255 128
0.4685915 0.7956279 3.7396872 64 255 128
0.6622031 -0.4815809 3.4137416 64 255 128
0.7476939 -0.4274036 3.4764142 64 255 128
0.6047950 -0.4259201 3.5003352 64 255 128
0.6682998 -0.4392150 3.3378756 64 255 128
0.8182803 -0.3865239 3.4461620 64 255 128
0.5272480 -0.3800787 3.4888349 64 255 128
0.8972417 -0.1445935 3.3991435 64 255 128
0.4608932 -0.1414826 3.4607189 64 255 128
0.8476975 -0.0046836 3.2099245 64 255 128
0.4737681 -0.0110831 3.2495928 64 255 128
0.8442802 0.0598247 3.1631346 64 255 128
0.4603558 0.0471838 3.1976156 64 255 128
0.6486837 -0.3886324 3.2375741 64 255 128
0.6187322 -0.4389063 3.2316661 64 255 128
0.6843109 -0.4342628 3.2236896 64 255 128
0.5956590 -0.5043720 3.3050537 64 255 128
0.7340414 -0.4915454 3.2903948 64 255 128
0.8557154 0.8084921 3.7275901 64 255 128
0.9015532 0.8047489 3.7904179 64 255 128
0.7825041 0.7342616 3.9395185 64 255 128
0.4725051 0.8149340 3.6691284 64 255 128
0.4281958 0.8086123 3.7348011 64 255 128
0.5599253 0.7539659 3.8820546 64 255 128
0.7534734 0.0824045 3.1779187 64 255 128
0.7908341 0.1253512 3.1072843 64 255 128
0.8215463 0.1313162 3.0912080 64 255 128
0.8509932 0.1203632 3.0975728 64 255 128
0.8823353 0.1037628 3.1240668 64 255 128
0.5328311 0.1014655 3.2245843 64 255 128
0.4874423 0.1241521 3.1461575 64 255 128
0.4580795 0.1164495 3.1274648 64 255 128
0.4349052 0.0980191 3.1316638 64 255 128
0.4080026 0.0666081 3.1515183 64 255 128
