ply
format ascii 1.0
element vertex 90
property float x
property float y
property float z
property uchar red
property uchar green
property uchar blue
end_header
-0.2458134 0.1701485 2.1076360 255 64 64
-0.2463180 0.2496081 2.1910133 255 64 64
-0.2433284 0.2747164 2.0648589 255 64 64
-0.2842179 0.0607266 2.0811405 255 64 64
-0.2371815 0.6146659 2.3668349 255 64 64
-0.2583629 0.6846856 2.1210988 255 64 64
-0.2689290 -0.0904448 2.0677423 255 64 64
-0.3031297 1.0252622 2.4795177 255 64 64
-0.3585126 1.0752721 2.2737310 255 64 64
-0.2546869 -0.1507646 2.0598383 255 64 64
-0.1965364 1.0860342 2.5525432 255 64 64
-0.2486744 1.1525759 2.2212543 255 64 64
-0.2755816 -0.3755705 2.0354569 255 64 64
-0.2656378 -0.2870633 2.1311591 255 64 64
-0.2902953 -0.2666003 1.9648236 255 64 64
-0.2029559 -0.4261531 2.0270679 255 64 64
-0.2306819 -0.3448088 2.2081947 255 64 64
-0.2672004 -0.2948216 1.8616898 255 64 64
-0.0341257 -0.4748048 2.3579278 255 64 64
-0.1147463 -0.3326000 1.6411757 255 64 64
-0.0125134 -0.7112690 2.2359047 255 64 64
-0.0603997 -0.5996127 1.6394994 255 64 64
-0.0330422 -0.7994152 2.2330694 255 64 64
-0.0686743 -0.6821497 1.6055412 255 64 64
-0.0993979 -0.4788752 1.9963197 255 64 64
-0.1433565 -0.5033032 1.9552288 255 64 64
-0.1370718 -0.5260810 2.0191014 255 64 64
-0.2399866 -0.4664623 1.9318693 255 64 64
-0.2249843 -0.5163562 2.0741003 255 64 64
-0.1153233 1.0811481 2.5439527 255 64 64
-0.1831599 1.0734658 2.5975046 255 64 64
-0.3706813 1.0602901 2.4850354 255 64 64
-0.1657216 1.1613622 2.2360761 255 64 64
-0.2416771 1.1816669 2.1861138 255 64 64
-0.4190311 1.1129404 2.3059182 255 64 64
-0.0277568 -0.8071449 2.1252527 255 64 64
-0.0605595 -0.8886660 2.1751890 255 64 64
-0.0693578 -0.9024795 2.2062533 255 64 64
-0.0639567 -0.8907350 2.2356598 255 64 64
-0.0468322 -0.8645750 2.2698073 255 64 64
-0.0867919 -0.7278928 1.7047638 255 64 64
-0.0943889 -0.7826418 1.6083121 255 64 64
-0.0903385 -0.7817230 1.5727745 255 64 64
-0.0767983 -0.7603027 1.5519605 255 64 64
-0.0544697 -0.7215319 1.5382264 255 64 64
-0.2661392 0.1613267 2.1838679 64 255 128
-0.2613714 0.2387708 2.2684896 64 255 128
-0.2741407 0.2671170 2.1460147 64 255 128
-0.3016716 0.0498115 2.1578846 64 255 128
-0.2380025 0.6041023 2.4395280 64 255 128
-0.3212426 0.6725711 2.2088532 64 255 128
-0.2629274 -0.0975587 2.1319730 64 255 128
-0.2668729 1.0181156 2.5493984 64 255 128
-0.4138801 1.0704333 2.3417649 64 255 128
-0.2521040 -0.1579938 2.1197548 64 255 128
-0.1411266 1.0738362 2.5867524 64 255 128
-0.3128506 1.1360043 2.2626684 64 255 128
-0.2866495 -0.3772831 2.0800734 64 255 128
-0.2704144 -0.2980421 2.1812277 64 255 128
-0.2928787 -0.2643884 2.0165508 64 255 128
-0.2229496 -0.4313750 2.0593109 64 255 128
-0.2532440 -0.3428259 2.2715402 64 255 128
-0.2769255 -0.2743863 1.9083272 64 255 128
-0.1471050 -0.4873034 2.4835382 64 255 128
-0.1863597 -0.2912364 1.6549826 64 255 128
-0.0693288 -0.7229812 2.3876970 64 255 128
-0.1029417 -0.5175650 1.5293561 64 255 128
-0.1011646 -0.8069056 2.3979826 64 255 128
-0.1341242 -0.5699215 1.4635422 64 255 128
-0.1403410 -0.5032271 2.0109334 64 255 128
-0.1949527 -0.5142121 1.9761568 64 255 128
-0.1846303 -0.5427603 2.0370264 64 255 128
-0.2812380 -0.4556604 1.9692850 64 255 128
-0.2574313 -0.5176594 2.1057713 64 255 128
-0.0643644 1.0674227 2.5581298 64 255 128
-0.1175670 1.0621269 2.6268930 64 255 128
-0.3283141 1.0583256 2.5707703 64 255 128
-0.2282284 1.1360978 2.2582760 64 255 128
-0.3112354 1.1601434 2.2235780 64 255 128
-0.4669350 1.1144804 2.3792491 64 255 128
-0.0738439 -0.8397002 2.3003843 64 255 128
-0.1263241 -0.9042023 2.3544195 64 255 128
-0.1434457 -0.9096712 2.3841653 64 255 128
-0.1437168 -0.8920604 2.4114704 64 255 128
-0.1323518 -0.8600342 2.4427311 64 255 128
-0.0975658 -0.6623104 1.5095612 64 255 128
-0.1606482 -0.6605965 1.4184659 64 255 128
-0.1773315 -0.6413491 1.3945212 64 255 128
-0.1756432 -0.6096556 1.3865914 64 255 128
-0.1633101 -0.5653081 1.3893409 64 255 128
