ply
format ascii 1.0
element vertex 90
property float x
property float y
property float z
property uchar red
property uchar green
property uchar blue
end_header
0.7569346 -0.1192416 3.6699610 255 64 64
0.8221642 -0.0348543 3.7021139 255 64 64
0.6944306 -0.0395129 3.7107084 255 64 64
0.7569056 -0.2216789 3.6550591 255 64 64
0.8736269 0.3451388 3.6925850 255 64 64
0.5757012 0.3297178 3.6643331 255 64 64
0.7468325 -0.3228893 3.5676715 255 64 64
0.8527845 0.7022027 3.8749053 255 64 64
0.5800342 0.7067882 3.8011272 255 64 64
0.7383242 -0.3338479 3.5135314 255 64 64
0.9122388 0.7877991 3.7971430 255 64 64
0.5006389 0.7810970 3.7311776 255 64 64
0.6947341 -0.4991368 3.3912289 255 64 64
0.7854390 -0.4451609 3.4444113 255 64 64
0.6443087 -0.4254480 3.4664075 255 64 64
0.7041061 -0.4823969 3.3068767 255 64 64
0.8627450 -0.4208289 3.4128246 255 64 64
0.5703114 -0.3748203 3.4541602 255 64 64
0.9363878 -0.1723349 3.4177537 255 64 64
0.5257717 -0.1312817 3.4829128 255 64 64
0.8959173 -0.0249076 3.2316322 255 64 64
0.5146170 -0.0042437 3.2695708 255 64 64
0.9077129 0.0326350 3.1781149 255 64 64
0.5152525 0.0547910 3.2173815 255 64 64
0.6853716 -0.4612093 3.1980557 255 64 64
0.6512536 -0.5083261 3.2070947 255 64 64
0.7165713 -0.5122929 3.1976244 255 64 64
0.6260986 -0.5467247 3.2958224 255 64 64
0.7635302 -0.5516698 3.2769122 255 64 64
0.9064308 0.8025644 3.7264180 255 64 64
0.9558451 0.7909038 3.7848058 255 64 64
0.8411953 0.7172511 3.9361393 255 64 64
0.4982479 0.8037758 3.6609511 255 64 64
0.4601498 0.7953686 3.7311809 255 64 64
0.6049985 0.7317902 3.8596475 255 64 64
0.8226845 0.0719133 3.1794484 255 64 64
0.8729398 0.0975138 3.1099393 255 64 64
0.9043918 0.0957224 3.0965393 255 64 64
0.9294326 0.0816580 3.1081119 255 64 64
0.9542541 0.0636642 3.1388953 255 64 64
0.6072153 0.0495481 3.1991711 255 64 64
0.5527961 0.1037020 3.1447296 255 64 64
0.5214515 0.1171969 3.1425447 255 64 64
0.4968611 0.1160621 3.1599631 255 64 64
0.4708177 0.1063533 3.1948290 255 64 64
0.7095694 -0.0953995 3.6351471 64 255 128
0.7748702 -0.0051805 3.6522427 64 255 128
0.6450688 -0.0079653 3.6548374 64 255 128
0.7091995 -0.2000010 3.6426420 64 255 128
0.8399602 0.3727140 3.6541731 64 255 128
0.5319747 0.3654211 3.6363480 64 255 128
0.7035986 -0.3213158 3.5823214 64 255 128
0.8051124 0.7276052 3.8384666 64 255 128
0.5468515 0.7339723 3.7942581 64 255 128
0.6955485 -0.3261463 3.5263093 64 255 128
0.8594650 0.8105773 3.7536685 64 255 128
0.4673818 0.8000705 3.7156026 64 255 128
0.6608344 -0.4746731 3.3784740 64 255 128
0.7492169 -0.4194146 3.4359784 64 255 128
0.6080457 -0.4200721 3.4686091 64 255 128
0.6620858 -0.4313336 3.3029239 64 255 128
0.8172468 -0.3772474 3.4018807 64 255 128
0.5293241 -0.3753323 3.4616446 64 255 128
0.8904141 -0.1341573 3.3515840 64 255 128
0.4572457 -0.1380016 3.4371405 64 255 128
0.8304347 0.0078321 3.1669903 64 255 128
0.4545418 -0.0069870 3.2260199 64 255 128
0.8242399 0.0727784 3.1211004 64 255 128
0.4366984 0.0509076 3.1749671 64 255 128
0.6362597 -0.3806489 3.2040601 64 255 128
0.6064512 -0.4311732 3.1997619 64 255 128
0.6714304 -0.4259448 3.1880176 64 255 128
0.5881923 -0.4970741 3.2741745 64 255 128
0.7254367 -0.4829614 3.2515998 64 255 128
0.8533905 0.8201202 3.6824439 64 255 128
0.9029636 0.8168012 3.7423894 64 255 128
0.7940745 0.7443910 3.8981133 64 255 128
0.4665633 0.8178481 3.6445699 64 255 128
0.4265871 0.8125670 3.7130225 64 255 128
0.5679572 0.7617900 3.8525400 64 255 128
0.7340778 0.0943949 3.1403751 64 255 128
0.7676056 0.1384456 3.0685341 64 255 128
0.7974688 0.1448398 3.0510685 64 255 128
0.8273095 0.1340740 3.0559049 64 255 128
0.8600336 0.1174982 3.0807226 64 255 128
0.5095184 0.1067166 3.1972389 64 255 128
0.4589396 0.1283794 3.1218596 64 255 128
0.4285973 0.1200496 3.1050649 64 255 128
0.4061070 0.1011559 3.1107347 64 255 128
0.3811507 0.0691881 3.1322198 64 255 128
