ply
format ascii 1.0
element vertex 45
property float x
property float y
property float z
property uchar red
property uchar green
property uchar blue
end_header
-0.0222152 0.1860607 2.0913930 64 255 128
-0.0279597 0.2624639 2.1768956 64 255 128
-0.0240864 0.2923652 2.0541863 64 255 128
-0.0550761 0.0752659 2.0594869 64 255 128
-0.0200147 0.6159170 2.3725362 64 255 128
-0.0660263 0.6948934 2.1364808 64 255 128
-0.0131699 -0.0722630 2.0402622 64 255 128
-0.0544320 1.0241582 2.5008581 64 255 128
-0.1539862 1.0899726 2.2804146 64 255 128
-0.0047625 -0.1332610 2.0289752 64 255 128
0.0572147 1.0823781 2.5676241 64 255 128
-0.0379182 1.1506506 2.2203383 64 255 128
-0.0353553 -0.3512950 1.9801782 64 255 128
-0.0228288 -0.2757510 2.0846345 64 255 128
-0.0414056 -0.2361591 1.9207958 64 255 128
0.0151484 -0.4201450 1.9690537 64 255 128
0.0134035 -0.3581216 2.1332045 64 255 128
-0.0045725 -0.2827055 1.8283646 64 255 128
0.1109404 -0.6142915 2.1773179 64 255 128
0.1080212 -0.4233464 1.6278341 64 255 128
0.1536741 -0.7565248 1.9565866 64 255 128
0.1750509 -0.6855234 1.6549542 64 255 128
0.1394402 -0.8319218 1.9088864 64 255 128
0.1909940 -0.7675502 1.6223592 64 255 128
0.0995618 -0.4885757 1.9219612 64 255 128
0.0486456 -0.4929195 1.8803618 64 255 128
0.0510048 -0.5284878 1.9379469 64 255 128
-0.0348086 -0.4302267 1.8709667 64 255 128
-0.0280988 -0.5073301 2.0008953 64 255 128
0.1382051 1.0700690 2.5594685 64 255 128
0.0703640 1.0706362 2.6120749 64 255 128
-0.1206274 1.0659872 2.5089326 64 255 128
0.0468945 1.1529291 2.2323120 64 255 128
-0.0295135 1.1785804 2.1849670 64 255 128
-0.2092033 1.1363106 2.3110728 64 255 128
0.1517721 -0.7847716 1.8106908 64 255 128
0.1221710 -0.8823733 1.8104073 64 255 128
0.1125558 -0.9101896 1.8290975 64 255 128
0.1152380 -0.9153589 1.8612317 64 255 128
0.1276118 -0.9092926 1.9051640 64 255 128
0.1558637 -0.8189915 1.7145747 64 255 128
0.1846825 -0.8726127 1.6202203 64 255 128
0.1966224 -0.8704599 1.5866362 64 255 128
0.2119679 -0.8464879 1.5699713 64 255 128
0.2293129 -0.8043903 1.5618540 64 255 128
