ply
format ascii 1.0
element vertex 45
property float x
property float y
property float z
property uchar red
property uchar green
property uchar blue
end_header
-1.2878404 -0.0347716 2.9710703 64 255 128
-1.2259505 0.0186959 3.0489106 64 255 128
-1.3533300 0.0118333 3.0468075 64 255 128
-1.2854680 -0.1139577 2.9016068 64 255 128
-1.1961879 0.4244014 3.0758598 64 255 128
-1.4507996 0.4138231 3.0724361 64 255 128
-1.2941897 -0.0703242 2.7728612 64 255 128
-1.1906585 0.8501732 3.1356263 64 255 128
-1.5218937 0.8336004 3.1296372 64 255 128
-1.3015090 -0.0467021 2.7222753 64 255 128
-1.1405206 0.9345443 3.0400121 64 255 128
-1.5555052 0.9009658 3.0154943 64 255 128
-1.3712575 -0.0781106 2.5171437 64 255 128
-1.2686450 -0.0677691 2.5836949 64 255 128
-1.4063456 -0.0888670 2.6330485 64 255 128
-1.3763664 -0.0475097 2.4334447 64 255 128
-1.2288932 0.0082251 2.5570056 64 255 128
-1.4835668 -0.0424190 2.6603138 64 255 128
-1.2845211 0.2226284 2.7260695 64 255 128
-1.5774388 0.1080037 2.8625443 64 255 128
-1.4497896 0.4004895 2.8135087 64 255 128
-1.6597887 0.3605023 2.8928075 64 255 128
-1.4842442 0.4743990 2.8333340 64 255 128
-1.7044951 0.4303567 2.9044564 64 255 128
-1.4215490 0.0050799 2.3463531 64 255 128
-1.4482279 -0.0498463 2.3426092 64 255 128
-1.3857436 -0.0395283 2.3210089 64 255 128
-1.4495748 -0.1194780 2.4130442 64 255 128
-1.3183594 -0.0922345 2.3722680 64 255 128
-1.1650373 0.9308167 2.9669402 64 255 128
-1.1015352 0.9334984 3.0141184 64 255 128
-1.1946967 0.8801892 3.2008162 64 255 128
-1.5239841 0.9132872 2.9429667 64 255 128
-1.5919137 0.9241232 2.9977951 64 255 128
-1.5185187 0.8723248 3.1918416 64 255 128
-1.5756506 0.4454930 2.8603549 64 255 128
-1.5710089 0.5386169 2.8479242 64 255 128
-1.5492789 0.5658375 2.8413205 64 255 128
-1.5161072 0.5647223 2.8394880 64 255 128
-1.4758393 0.5481219 2.8431509 64 255 128
-1.6472921 0.4900697 2.8503418 64 255 128
-1.7368398 0.5259822 2.8828797 64 255 128
-1.7640619 0.5196950 2.9017134 64 255 128
-1.7690061 0.4960729 2.9227469 64 255 128
-1.7630862 0.4586239 2.9455385 64 255 128
