ply
format ascii 1.0
element vertex 45
property float x
property float y
property float z
property uchar red
property uchar green
property uchar blue
end_header
-1.3625318 -0.0432483 3.2503650 255 64 64
-1.3074384 -0.0166988 3.3451273 255 64 64
-1.4328369 -0.0043456 3.3259652 255 64 64
-1.3588220 -0.1055136 3.1658983 255 64 64
-1.1967814 0.3735422 3.3294528 255 64 64
-1.4651861 0.4067401 3.3409796 255 64 64
-1.3389263 -0.0102130 3.0704246 255 64 64
-1.1197906 0.7893670 3.3905098 255 64 64
-1.4807395 0.8206492 3.4441788 255 64 64
-1.3285177 0.0374030 3.0423510 255 64 64
-1.0517538 0.8886766 3.3268251 255 64 64
-1.5153215 0.9191679 3.3572154 255 64 64
-1.3200088 0.1346921 2.8474493 255 64 64
-1.2496539 0.0774846 2.9295528 255 64 64
-1.3968779 0.0813253 2.9242485 255 64 64
-1.2797134 0.1973590 2.7991414 255 64 64
-1.2104746 0.1531561 2.9569132 255 64 64
-1.4368882 0.1598210 2.9562466 255 64 64
-1.1962643 0.3928908 3.0945048 255 64 64
-1.5329496 0.3648582 3.0976326 255 64 64
-1.3156052 0.6135187 3.0433137 255 64 64
-1.4356563 0.6061541 3.0462449 255 64 64
-1.3075030 0.6862950 3.0037565 255 64 64
-1.4242735 0.6825728 3.0159326 255 64 64
-1.2627618 0.2894689 2.7426174 255 64 64
-1.2985971 0.2578079 2.7038703 255 64 64
-1.2329208 0.2447567 2.7107964 255 64 64
-1.3536878 0.1769268 2.7254646 255 64 64
-1.2147319 0.1529177 2.7454162 255 64 64
-1.0678723 0.9005444 3.2519870 255 64 64
-1.0110245 0.8917000 3.3061821 255 64 64
-1.1287991 0.8074953 3.4604247 255 64 64
-1.4848242 0.9567722 3.2931211 255 64 64
-1.5511096 0.9496009 3.3513455 255 64 64
-1.4748642 0.8387864 3.5139143 255 64 64
-1.4002210 0.7182946 2.9941838 255 64 64
-1.3474143 0.7688168 2.9391291 255 64 64
-1.3143197 0.7754735 2.9302020 255 64 64
-1.2872558 0.7624108 2.9443176 255 64 64
-1.2625074 0.7411280 2.9751377 255 64 64
-1.3286215 0.6877114 3.0218837 255 64 64
-1.3698924 0.7599718 2.9714437 255 64 64
-1.3997830 0.7743385 2.9636118 255 64 64
-1.4284105 0.7675679 2.9742911 255 64 64
-1.4618051 0.7465519 2.9938967 255 64 64
