ply
format ascii 1.0
element vertex 90
property float x
property float y
property float z
property uchar red
property uchar green
property uchar blue
end_header
-0.1958202 0.1870688 2.0841556 255 64 64
-0.2011916 0.2647758 2.1694932 255 64 64
-0.1870346 0.2929896 2.0447028 255 64 64
-0.2354993 0.0782480 2.0511243 255 64 64
-0.1861857 0.6264578 2.3518219 255 64 64
-0.1979412 0.7028570 2.1036577 255 64 64
-0.2176509 -0.0741559 2.0363548 255 64 64
-0.2397663 1.0387801 2.4659634 255 64 64
-0.3189102 1.0906527 2.2492352 255 64 64
-0.2050144 -0.1353604 2.0283022 255 64 64
-0.1344935 1.0926621 2.5470586 255 64 64
-0.2031670 1.1659094 2.2048023 255 64 64
-0.2243101 -0.3597257 1.9943535 255 64 64
-0.2242023 -0.2746964 2.0942078 255 64 64
-0.2294293 -0.2483429 1.9249299 255 64 64
-0.1565691 -0.4152755 1.9879775 255 64 64
-0.1902681 -0.3399100 2.1670799 255 64 64
-0.1779012 -0.2808426 1.8322127 255 64 64
0.0035898 -0.4970304 2.2925029 255 64 64
0.0298614 -0.3653312 1.6796484 255 64 64
0.0183892 -0.7082186 2.1283658 255 64 64
0.0598123 -0.6358083 1.7056936 255 64 64
-0.0020252 -0.7963570 2.1167562 255 64 64
0.0614579 -0.7173938 1.6668267 255 64 64
-0.0518309 -0.4696198 1.9672122 255 64 64
-0.0911850 -0.4898788 1.9190385 255 64 64
-0.0938128 -0.5169355 1.9814414 255 64 64
-0.1825486 -0.4477661 1.8855097 255 64 64
-0.1875661 -0.5076100 2.0257454 255 64 64
-0.0531658 1.0810615 2.5428293 255 64 64
-0.1244274 1.0789645 2.5931540 255 64 64
-0.3065901 1.0761395 2.4694147 255 64 64
-0.1214178 1.1766620 2.2275131 255 64 64
-0.1937424 1.1955323 2.1702042 255 64 64
-0.3815950 1.1290586 2.2760634 255 64 64
-0.0135417 -0.7891201 2.0082366 255 64 64
-0.0370123 -0.8783758 2.0516124 255 64 64
-0.0411443 -0.8964459 2.0812392 255 64 64
-0.0314319 -0.8886906 2.1109290 255 64 64
-0.0097393 -0.8669115 2.1454494 255 64 64
0.0011263 -0.7648391 1.7481909 255 64 64
0.0318580 -0.8172240 1.6532182 255 64 64
0.0496452 -0.8156284 1.6224267 255 64 64
0.0718995 -0.7948083 1.6101472 255 64 64
0.0994790 -0.7574910 1.6088884 255 64 64
-0.1933556 0.1813071 2.1401601 64 255 128
-0.1859533 0.2592503 2.2241316 64 255 128
-0.1914806 0.2868915 2.1009567 64 255 128
-0.2364558 0.0725742 2.1138377 64 255 128
-0.1368352 0.6106020 2.4175401 64 255 128
-0.2150916 0.6939093 2.1668298 64 255 128
-0.1993342 -0.0749861 2.0866635 64 255 128
-0.1923734 1.0204437 2.5326805 64 255 128
-0.3301845 1.0802234 2.3153446 64 255 128
-0.1914425 -0.1357018 2.0736191 64 255 128
-0.0700203 1.0778129 2.5779653 64 255 128
-0.2225679 1.1420480 2.2421381 64 255 128
-0.2262398 -0.3543931 2.0309684 64 255 128
-0.2114994 -0.2763085 2.1332448 64 255 128
-0.2308024 -0.2408018 1.9685558 64 255 128
-0.1662856 -0.4133166 2.0123081 64 255 128
-0.1734458 -0.3411942 2.2025158 64 255 128
-0.1936483 -0.2819268 1.8737134 64 255 128
0.0102982 -0.5239823 2.3020604 64 255 128
-0.0373114 -0.3971724 1.6867726 64 255 128
-0.0094670 -0.7572775 2.1757219 64 255 128
0.0214350 -0.6566164 1.6301787 64 255 128
-0.0450782 -0.8299735 2.2158434 64 255 128
0.0203781 -0.7120838 1.5596998 64 255 128
-0.0738732 -0.4730492 1.9680452 64 255 128
-0.1236433 -0.4862152 1.9274715 64 255 128
-0.1162647 -0.5179589 1.9868360 64 255 128
-0.2143788 -0.4350894 1.9157611 64 255 128
-0.1975053 -0.5043766 2.0492558 64 255 128
0.0077298 1.0684376 2.5551133 64 255 128
-0.0490450 1.0676222 2.6198006 64 255 128
-0.2562138 1.0611207 2.5507658 64 255 128
-0.1381619 1.1452413 2.2441015 64 255 128
-0.2190180 1.1675712 2.2034559 64 255 128
-0.3834274 1.1254692 2.3511183 64 255 128
-0.0937341 -0.8671952 2.1273360 64 255 128
-0.1134732 -0.9161792 2.2124419 64 255 128
-0.1085700 -0.9177101 2.2469075 64 255 128
-0.0869489 -0.9018162 2.2657418 64 255 128
-0.0510899 -0.8753472 2.2774742 64 255 128
-0.0209347 -0.7972612 1.6176441 64 255 128
-0.0056454 -0.7995527 1.5067457 64 255 128
0.0053209 -0.7825729 1.4776651 64 255 128
0.0249290 -0.7559490 1.4729095 64 255 128
0.0496148 -0.7184327 1.4843923 64 255 128
