ply
format ascii 1.0
element vertex 90
property float x
property float y
property float z
property uchar red
property uchar green
property uchar blue
end_header
-1.3587618 -0.0500484 3.2334020 255 64 64
-1.2982988 -0.0097407 3.3193719 255 64 64
-1.4244816 -0.0012317 3.3070395 255 64 64
-1.3595526 -0.1243575 3.1585662 255 64 64
-1.1892108 0.3778877 3.2665691 255 64 64
-1.4656489 0.4095645 3.3119969 255 64 64
-1.3430201 -0.0527428 3.0431795 255 64 64
-1.1150990 0.7978605 3.3025303 255 64 64
-1.4847358 0.8246337 3.4128661 255 64 64
-1.3340191 -0.0117314 3.0055456 255 64 64
-1.0547502 0.8960711 3.2289176 255 64 64
-1.5361584 0.9185110 3.3281164 255 64 64
-1.3330764 0.0515022 2.7962601 255 64 64
-1.2588305 0.0098086 2.8847411 255 64 64
-1.4071711 0.0105536 2.8836222 255 64 64
-1.2945871 0.1169011 2.7495558 255 64 64
-1.2116688 0.0849426 2.9011683 255 64 64
-1.4562724 0.0875042 2.9085991 255 64 64
-1.1921818 0.3286962 3.0324650 255 64 64
-1.5650769 0.2864689 3.0511866 255 64 64
-1.3604515 0.5157002 2.9783051 255 64 64
-1.4180053 0.5062362 3.0191722 255 64 64
-1.3731523 0.5884771 2.9386177 255 64 64
-1.3882958 0.5803957 2.9944131 255 64 64
-1.2882053 0.2129446 2.6966853 255 64 64
-1.3257496 0.1807623 2.6598196 255 64 64
-1.2591778 0.1717432 2.6598086 255 64 64
-1.3738745 0.0954859 2.6817820 255 64 64
-1.2320366 0.0793516 2.6875155 255 64 64
-1.0792054 0.9076917 3.1557047 255 64 64
-1.0165839 0.8994780 3.2038565 255 64 64
-1.1182303 0.8174688 3.3717728 255 64 64
-1.5158651 0.9555222 3.2590003 255 64 64
-1.5747734 0.9450194 3.3244200 255 64 64
-1.4733682 0.8444004 3.4814341 255 64 64
-1.4717990 0.5939455 2.9313502 255 64 64
-1.4349436 0.6574353 2.8761909 255 64 64
-1.4052919 0.6725117 2.8661025 255 64 64
-1.3759434 0.6672565 2.8796577 255 64 64
-1.3455765 0.6529765 2.9087608 255 64 64
-1.2936270 0.5609220 2.9984121 255 64 64
-1.3174516 0.6458122 2.9550126 255 64 64
-1.3428034 0.6673100 2.9491296 255 64 64
-1.3720059 0.6665382 2.9597936 255 64 64
-1.4091082 0.6525388 2.9785640 255 64 64
-1.3645343 -0.0645632 3.1107409 64 255 128
-1.3163258 -0.0265637 3.2055051 64 255 128
-1.4417838 -0.0357400 3.1842172 64 255 128
-1.3489532 -0.1279832 3.0280585 64 255 128
-1.2742696 0.3748309 3.2631471 64 255 128
-1.5223461 0.3635376 3.2606378 64 255 128
-1.3297130 -0.0452109 2.9215975 64 255 128
-1.2535237 0.8038528 3.2829983 64 255 128
-1.5730867 0.7864745 3.3162167 64 255 128
-1.3253506 -0.0012992 2.8866227 64 255 128
-1.2111623 0.8934242 3.1883576 64 255 128
-1.6202891 0.8594909 3.2106845 64 255 128
-1.3281997 0.0595865 2.6763489 64 255 128
-1.2511468 0.0339145 2.7683766 64 255 128
-1.3958917 0.0049209 2.7612622 64 255 128
-1.3084941 0.1257715 2.6197867 64 255 128
-1.2079985 0.1088760 2.7925978 64 255 128
-1.4652882 0.0638652 2.7852120 64 255 128
-1.2408885 0.2992656 2.9933858 64 255 128
-1.6103783 0.1671401 2.9867544 64 255 128
-1.4030236 0.5000287 2.9929180 64 255 128
-1.6220980 0.4329007 3.0129631 64 255 128
-1.4324702 0.5766550 3.0103559 64 255 128
-1.6434636 0.5137233 3.0179839 64 255 128
-1.3336589 0.2049482 2.5446889 64 255 128
-1.3646559 0.1567457 2.5229409 64 255 128
-1.2982808 0.1634153 2.5135324 64 255 128
-1.3849348 0.0711231 2.5709252 64 255 128
-1.2446851 0.0901175 2.5577526 64 255 128
-1.2412878 0.8940285 3.1169696 64 255 128
-1.1743327 0.8955977 3.1594565 64 255 128
-1.2565548 0.8327657 3.3477843 64 255 128
-1.5954190 0.8757988 3.1368141 64 255 128
-1.6594050 0.8816440 3.1955147 64 255 128
-1.5698608 0.8179359 3.3808370 64 255 128
-1.5096804 0.5839267 2.9476752 64 255 128
-1.4897696 0.6679211 2.9823418 64 255 128
-1.4689960 0.6854149 3.0068400 64 255 128
-1.4483236 0.6716201 3.0295360 64 255 128
-1.4297009 0.6392641 3.0541830 64 255 128
-1.5564400 0.5523267 2.9955194 64 255 128
-1.6328961 0.6157399 2.9989238 64 255 128
-1.6660639 0.6189809 3.0074730 64 255 128
-1.6853896 0.5979261 3.0220528 64 255 128
-1.7010522 0.5598844 3.0400994 64 255 128
