ply
format ascii 1.0
element vertex 45
property float x
property float y
property float z
property uchar red
property uchar green
property uchar blue
end_header
0.7703912 -0.0961143 3.6250877 255 64 64
0.8380701 -0.0115857 3.6528096 255 64 64
0.7106113 -0.0161629 3.6702352 255 64 64
0.7692407 -0.1987253 3.6101468 255 64 64
0.8902762 0.3687834 3.6218157 255 64 64
0.5834907 0.3527763 3.6313612 255 64 64
0.7540995 -0.2978648 3.5207002 255 64 64
0.8834765 0.7306374 3.7990661 255 64 64
0.5936693 0.7264023 3.7812912 255 64 64
0.7431637 -0.3095191 3.4668798 255 64 64
0.9341499 0.8125899 3.7111990 255 64 64
0.5074905 0.8000017 3.7182426 255 64 64
0.6973414 -0.4745664 3.3432951 255 64 64
0.7896288 -0.4188963 3.3934996 255 64 64
0.6489418 -0.4031335 3.4229169 255 64 64
0.7053798 -0.4607461 3.2573087 255 64 64
0.8652811 -0.3986746 3.3552091 255 64 64
0.5700225 -0.3598501 3.4123406 255 64 64
0.9383532 -0.1490602 3.3565094 255 64 64
0.5284222 -0.1156768 3.4459155 255 64 64
0.8911828 -0.0010455 3.1718180 255 64 64
0.5080379 0.0083714 3.2309120 255 64 64
0.9022496 0.0536645 3.1150661 255 64 64
0.5050721 0.0647845 3.1758654 255 64 64
0.6864377 -0.4413438 3.1476033 255 64 64
0.6501623 -0.4866841 3.1583030 255 64 64
0.7152733 -0.4939331 3.1482189 255 64 64
0.6240688 -0.5216029 3.2487979 255 64 64
0.7612778 -0.5336894 3.2281201 255 64 64
0.9198352 0.8233829 3.6407790 255 64 64
0.9759964 0.8146052 3.6936493 255 64 64
0.8783152 0.7491284 3.8610246 255 64 64
0.4992743 0.8230077 3.6483693 255 64 64
0.4667701 0.8133044 3.7213829 255 64 64
0.6219023 0.7513959 3.8390331 255 64 64
0.8165205 0.0920705 3.1146250 255 64 64
0.8667417 0.1142068 3.0434155 255 64 64
0.8980941 0.1119416 3.0298560 255 64 64
0.9232923 0.0991295 3.0423412 255 64 64
0.9482297 0.0832010 3.0737958 255 64 64
0.5940886 0.0523059 3.1464553 255 64 64
0.5353819 0.1075349 3.0965157 255 64 64
0.5047334 0.1228619 3.0977042 255 64 64
0.4826092 0.1241735 3.1183181 255 64 64
0.4611658 0.1179277 3.1568253 255 64 64
