ply
format ascii 1.0
element vertex 90
property float x
property float y
property float z
property uchar red
property uchar green
property uchar blue
end_header
-1.3824764 -0.0496937 3.3047094 255 64 64
-1.3306652 -0.0242548 3.4019179 255 64 64
-1.4555341 -0.0098569 3.3775609 255 64 64
-1.3762418 -0.1120062 3.2200823 255 64 64
-1.2174383 0.3653824 3.3979681 255 64 64
-1.4769464 0.4017290 3.3959773 255 64 64
-1.3510284 -0.0166444 3.1255777 255 64 64
-1.1423560 0.7747787 3.4944487 255 64 64
-1.4841616 0.8113680 3.5159144 255 64 64
-1.3377464 0.0308017 3.0979788 255 64 64
-1.0752599 0.8801356 3.4399369 255 64 64
-1.5150291 0.9122033 3.4300637 255 64 64
-1.3177420 0.1291921 2.9036777 255 64 64
-1.2531410 0.0670982 2.9876103 255 64 64
-1.4000580 0.0794908 2.9779441 255 64 64
-1.2742512 0.1924273 2.8581867 255 64 64
-1.2095931 0.1406847 3.0146360 255 64 64
-1.4342000 0.1630148 3.0038261 255 64 64
-1.1816007 0.3786375 3.1529903 255 64 64
-1.5149142 0.3869183 3.1244237 255 64 64
-1.2807922 0.6093135 3.1034625 255 64 64
-1.4117455 0.6193825 3.0499527 255 64 64
-1.2661084 0.6811404 3.0639305 255 64 64
-1.4015043 0.6933360 3.0136654 255 64 64
-1.2529539 0.2850915 2.8035336 255 64 64
-1.2890351 0.2553866 2.7635491 255 64 64
-1.2239538 0.2400289 2.7716384 255 64 64
-1.3475465 0.1758051 2.7825880 255 64 64
-1.2097023 0.1464936 2.8046913 255 64 64
-1.0898880 0.8967878 3.3658452 255 64 64
-1.0341401 0.8855794 3.4208798 255 64 64
-1.1527394 0.7872915 3.5656519 255 64 64
-1.4826883 0.9519222 3.3684897 255 64 64
-1.5503573 0.9431667 3.4244952 255 64 64
-1.4808282 0.8275495 3.5863016 255 64 64
-1.3560199 0.7201859 3.0532227 255 64 64
-1.2982641 0.7662155 2.9985993 255 64 64
-1.2644454 0.7702309 2.9902596 255 64 64
-1.2385986 0.7551295 3.0048420 255 64 64
-1.2161750 0.7320784 3.0363269 255 64 64
-1.3054068 0.6978839 3.0140424 255 64 64
-1.3487716 0.7668461 2.9608209 255 64 64
-1.3792099 0.7809778 2.9536121 255 64 64
-1.4074064 0.7754061 2.9663630 255 64 64
-1.4401462 0.7562019 2.9892473 255 64 64
-1.4059772 -0.0896320 3.2677541 64 255 128
-1.3633256 -0.0718097 3.3707662 64 255 128
-1.4873564 -0.0775712 3.3414359 64 255 128
-1.3850050 -0.1342076 3.1746175 64 255 128
-1.3160340 0.3318032 3.4034650 64 255 128
-1.5668370 0.3196220 3.4290333 64 255 128
-1.3717383 -0.0194148 3.1024926 64 255 128
-1.2965386 0.7604468 3.4311917 64 255 128
-1.6163001 0.7387372 3.5092528 64 255 128
-1.3619387 0.0298881 3.0771215 64 255 128
-1.2709875 0.8559527 3.3363225 64 255 128
-1.6715620 0.8050617 3.4032168 64 255 128
-1.3449414 0.1492406 2.8943748 64 255 128
-1.2769405 0.0903956 2.9779122 64 255 128
-1.4227190 0.0792646 2.9563007 64 255 128
-1.3116183 0.2232783 2.8572800 64 255 128
-1.2473662 0.1749657 2.9843104 64 255 128
-1.4581821 0.1654244 2.9698198 64 255 128
-1.1988050 0.4475908 3.0153444 64 255 128
-1.5540032 0.4124664 3.0159140 64 255 128
-1.2839321 0.6812350 2.9463687 64 255 128
-1.5341663 0.6689239 2.9431887 64 255 128
-1.2822242 0.7559190 2.9081306 64 255 128
-1.5486631 0.7391006 2.8998404 64 255 128
-1.3177043 0.3182426 2.7996249 64 255 128
-1.3543167 0.2804856 2.7661622 64 255 128
-1.2868335 0.2773111 2.7624788 64 255 128
-1.3931600 0.1913637 2.7949624 64 255 128
-1.2507560 0.1884479 2.7936554 64 255 128
-1.3051461 0.8492063 3.2681501 64 255 128
-1.2374240 0.8585048 3.3063149 64 255 128
-1.2895528 0.7910015 3.4991522 64 255 128
-1.6509794 0.8250906 3.3285227 64 255 128
-1.7103163 0.8305452 3.3936684 64 255 128
-1.6125439 0.7724557 3.5735133 64 255 128
-1.3798859 0.7745048 2.8932703 64 255 128
-1.3309261 0.8342412 2.8411467 64 255 128
-1.2964174 0.8462666 2.8347206 64 255 128
-1.2658259 0.8368364 2.8505068 64 255 128
-1.2410302 0.8188151 2.8848703 64 255 128
-1.4578503 0.7739919 2.8953671 64 255 128
-1.5201809 0.8205878 2.8379738 64 255 128
-1.5558463 0.8240704 2.8305972 64 255 128
-1.5818108 0.8113003 2.8459423 64 255 128
-1.6085907 0.7840804 2.8733904 64 255 128
