ply
format ascii 1.0
element vertex 45
property float x
property float y
property float z
property uchar red
property uchar green
property uchar blue
end_header
0.7612793 -0.1117855 3.7417452 255 64 64
0.8247853 -0.0281027 3.7792885 255 64 64
0.6964021 -0.0312017 3.7772985 255 64 64
0.7612948 -0.2145067 3.7267475 255 64 64
0.9042555 0.3462939 3.7793207 255 64 64
0.5801742 0.3377292 3.7296541 255 64 64
0.7573828 -0.3180254 3.6420550 255 64 64
0.8877683 0.6863006 3.9905567 255 64 64
0.5770425 0.7057678 3.8872714 255 64 64
0.7528923 -0.3310094 3.5878093 255 64 64
0.9634528 0.7690091 3.9249952 255 64 64
0.5019017 0.7786340 3.8116052 255 64 64
0.7152483 -0.5009117 3.4699664 255 64 64
0.8031127 -0.4454205 3.5259001 255 64 64
0.6609117 -0.4241135 3.5389266 255 64 64
0.7218265 -0.4899454 3.3847878 255 64 64
0.8834353 -0.4235650 3.5012758 255 64 64
0.5892417 -0.3729487 3.5183930 255 64 64
0.9891602 -0.1879098 3.5011492 255 64 64
0.5273482 -0.1328872 3.5019145 255 64 64
0.9776423 -0.0495546 3.3053660 255 64 64
0.5278033 -0.0460553 3.2697806 255 64 64
0.9932274 0.0086687 3.2537603 255 64 64
0.5251941 0.0022069 3.2075996 255 64 64
0.6961436 -0.4841903 3.2748508 255 64 64
0.6636247 -0.5301989 3.2922974 255 64 64
0.7282438 -0.5344989 3.2793570 255 64 64
0.6447587 -0.5564513 3.3868637 255 64 64
0.7810724 -0.5616440 3.3605952 255 64 64
0.9693952 0.7865511 3.8551071 255 64 64
1.0086632 0.7696663 3.9198582 255 64 64
0.8698877 0.6992463 4.0504670 255 64 64
0.5042958 0.8020517 3.7421176 255 64 64
0.4613529 0.7918043 3.8088524 255 64 64
0.5965225 0.7298295 3.9478042 255 64 64
0.9085418 0.0491702 3.2524531 255 64 64
0.9625426 0.0753838 3.1857545 255 64 64
0.9950136 0.0733424 3.1738379 255 64 64
1.0195711 0.0583501 3.1861320 255 64 64
1.0427798 0.0393439 3.2180781 255 64 64
0.6181418 0.0146635 3.2016330 255 64 64
0.5639836 0.0455038 3.1316681 255 64 64
0.5311230 0.0513337 3.1230690 255 64 64
0.5045883 0.0479067 3.1374068 255 64 64
0.4750611 0.0383284 3.1703670 255 64 64
