ply
format ascii 1.0
element vertex 45
property float x
property float y
property float z
property uchar red
property uchar green
property uchar blue
end_header
-0.2458134 0.1701485 2.1076360 255 64 64
-0.2463180 0.2496081 2.1910133 255 64 64
-0.2433284 0.2747164 2.0648589 255 64 64
-0.2842179 0.0607266 2.0811405 255 64 64
-0.2371815 0.6146659 2.3668349 255 64 64
-0.2583629 0.6846856 2.1210988 255 64 64
-0.2689290 -0.0904448 2.0677423 255 64 64
-0.3031297 1.0252622 2.4795177 255 64 64
-0.3585126 1.0752721 2.2737310 255 64 64
-0.2546869 -0.1507646 2.0598383 255 64 64
-0.1965364 1.0860342 2.5525432 255 64 64
-0.2486744 1.1525759 2.2212543 255 64 64
-0.2755816 -0.3755705 2.0354569 255 64 64
-0.2656378 -0.2870633 2.1311591 255 64 64
-0.2902953 -0.2666003 1.9648236 255 64 64
-0.2029559 -0.4261531 2.0270679 255 64 64
-0.2306819 -0.3448088 2.2081947 255 64 64
-0.2672004 -0.2948216 1.8616898 255 64 64
-0.0341257 -0.4748048 2.3579278 255 64 64
-0.1147463 -0.3326000 1.6411757 255 64 64
-0.0125134 -0.7112690 2.2359047 255 64 64
-0.0603997 -0.5996127 1.6394994 255 64 64
-0.0330422 -0.7994152 2.2330694 255 64 64
-0.0686743 -0.6821497 1.6055412 255 64 64
-0.0993979 -0.4788752 1.9963197 255 64 64
-0.1433565 -0.5033032 1.9552288 255 64 64
-0.1370718 -0.5260810 2.0191014 255 64 64
-0.2399866 -0.4664623 1.9318693 255 64 64
-0.2249843 -0.5163562 2.0741003 255 64 64
-0.1153233 1.0811481 2.5439527 255 64 64
-0.1831599 1.0734658 2.5975046 255 64 64
-0.3706813 1.0602901 2.4850354 255 64 64
-0.1657216 1.1613622 2.2360761 255 64 64
-0.2416771 1.1816669 2.1861138 255 64 64
-0.4190311 1.1129404 2.3059182 255 64 64
-0.0277568 -0.8071449 2.1252527 255 64 64
-0.0605595 -0.8886660 2.1751890 255 64 64
-0.0693578 -0.9024795 2.2062533 255 64 64
-0.0639567 -0.8907350 2.2356598 255 64 64
-0.0468322 -0.8645750 2.2698073 255 64 64
-0.0867919 -0.7278928 1.7047638 255 64 64
-0.0943889 -0.7826418 1.6083121 255 64 64
-0.0903385 -0.7817230 1.5727745 255 64 64
-0.0767983 -0.7603027 1.5519605 255 64 64
-0.0544697 -0.7215319 1.5382264 255 64 64
