ply
format ascii 1.0
element vertex 45
property float x
property float y
property float z
property uchar red
property uchar green
property uchar blue
end_header
-1.3539406 0.0088102 3.0298457 255 64 64
-1.2853622 0.0691673 3.0953100 255 64 64
-1.4120803 0.0730415 3.0974181 255 64 64
-1.3607314 -0.0810356 2.9756374 255 64 64
-1.1902823 0.4582122 3.0437489 255 64 64
-1.4520400 0.4817560 3.0951734 255 64 64
-1.3667989 -0.0748041 2.8385365 255 64 64
-1.1141187 0.8739719 3.0901732 255 64 64
-1.4680804 0.8969402 3.1833787 255 64 64
-1.3704729 -0.0556481 2.7855923 255 64 64
-1.0544499 0.9657245 3.0090163 255 64 64
-1.5269259 0.9799505 3.0932260 255 64 64
-1.4203787 -0.0978031 2.5773320 255 64 64
-1.3252226 -0.0903743 2.6541219 255 64 64
-1.4682083 -0.0959519 2.6888492 255 64 64
-1.4033606 -0.0540311 2.5012670 255 64 64
-1.2791269 -0.0153499 2.6365399 255 64 64
-1.5283421 -0.0257697 2.7067411 255 64 64
-1.2760705 0.2439912 2.7312689 255 64 64
-1.5928164 0.1838645 2.8581078 255 64 64
-1.3958607 0.4666715 2.6901803 255 64 64
-1.5905776 0.4455228 2.8157833 255 64 64
-1.3960105 0.5460481 2.6640723 255 64 64
-1.6160871 0.5235197 2.8014703 255 64 64
-1.4125385 0.0190285 2.4185410 255 64 64
-1.4538554 -0.0230573 2.4023750 255 64 64
-1.3883483 -0.0315923 2.3924129 255 64 64
-1.4909467 -0.0959030 2.4601965 255 64 64
-1.3516808 -0.1091946 2.4429407 255 64 64
-1.0744848 0.9753184 2.9349945 255 64 64
-1.0145679 0.9666194 2.9859474 255 64 64
-1.1164225 0.8962843 3.1576555 255 64 64
-1.5137348 1.0084043 3.0196097 255 64 64
-1.5652304 1.0049168 3.0897610 255 64 64
-1.4523115 0.9229044 3.2481575 255 64 64
-1.4919529 0.5665976 2.6609106 255 64 64
-1.4441094 0.6325352 2.6169758 255 64 64
-1.4123858 0.6438409 2.6091361 255 64 64
-1.3845379 0.6317142 2.6204398 255 64 64
-1.3577087 0.6079834 2.6459217 255 64 64
-1.5365732 0.5555074 2.7564831 255 64 64
-1.6157073 0.6151896 2.7543666 255 64 64
-1.6470114 0.6197344 2.7665925 255 64 64
-1.6622059 0.6037996 2.7885771 255 64 64
-1.6722474 0.5725549 2.8180947 255 64 64
