ply
format ascii 1.0
element vertex 90
property float x
property float y
property float z
property uchar red
property uchar green
property uchar blue
end_header
0.7612793 -0.1117855 3.7417452 255 64 64
0.8247853 -0.0281027 3.7792885 255 64 64
0.6964021 -0.0312017 3.7772985 255 64 64
0.7612948 -0.2145067 3.7267475 255 64 64
0.9042555 0.3462939 3.7793207 255 64 64
0.5801742 0.3377292 3.7296541 255 64 64
0.7573828 -0.3180254 3.6420550 255 64 64
0.8877683 0.6863006 3.9905567 255 64 64
0.5770425 0.7057678 3.8872714 255 64 64
0.7528923 -0.3310094 3.5878093 255 64 64
0.9634528 0.7690091 3.9249952 255 64 64
0.5019017 0.7786340 3.8116052 255 64 64
0.7152483 -0.5009117 3.4699664 255 64 64
0.8031127 -0.4454205 3.5259001 255 64 64
0.6609117 -0.4241135 3.5389266 255 64 64
0.7218265 -0.4899454 3.3847878 255 64 64
0.8834353 -0.4235650 3.5012758 255 64 64
0.5892417 -0.3729487 3.5183930 255 64 64
0.9891602 -0.1879098 3.5011492 255 64 64
0.5273482 -0.1328872 3.5019145 255 64 64
0.9776423 -0.0495546 3.3053660 255 64 64
0.5278033 -0.0460553 3.2697806 255 64 64
0.9932274 0.0086687 3.2537603 255 64 64
0.5251941 0.0022069 3.2075996 255 64 64
0.6961436 -0.4841903 3.2748508 255 64 64
0.6636247 -0.5301989 3.2922974 255 64 64
0.7282438 -0.5344989 3.2793570 255 64 64
0.6447587 -0.5564513 3.3868637 255 64 64
0.7810724 -0.5616440 3.3605952 255 64 64
0.9693952 0.7865511 3.8551071 255 64 64
1.0086632 0.7696663 3.9198582 255 64 64
0.8698877 0.6992463 4.0504670 255 64 64
0.5042958 0.8020517 3.7421176 255 64 64
0.4613529 0.7918043 3.8088524 255 64 64
0.5965225 0.7298295 3.9478042 255 64 64
0.9085418 0.0491702 3.2524531 255 64 64
0.9625426 0.0753838 3.1857545 255 64 64
0.9950136 0.0733424 3.1738379 255 64 64
1.0195711 0.0583501 3.1861320 255 64 64
1.0427798 0.0393439 3.2180781 255 64 64
0.6181418 0.0146635 3.2016330 255 64 64
0.5639836 0.0455038 3.1316681 255 64 64
0.5311230 0.0513337 3.1230690 255 64 64
0.5045883 0.0479067 3.1374068 255 64 64
0.4750611 0.0383284 3.1703670 255 64 64
0.6813240 -0.1169840 3.7427747 64 255 128
0.7467089 -0.0293168 3.7698894 64 255 128
0.6184270 -0.0265091 3.7499201 64 255 128
0.6749125 -0.2213079 3.7513287 64 255 128
0.8309550 0.3446505 3.7796667 64 255 128
0.5256804 0.3505495 3.7077985 64 255 128
0.6743678 -0.3430472 3.6916089 64 255 128
0.7740435 0.6968874 3.9635592 64 255 128
0.5279770 0.7142760 3.8771641 64 255 128
0.6759883 -0.3480882 3.6350627 64 255 128
0.8460865 0.7791879 3.8923852 64 255 128
0.4665234 0.7862889 3.7882338 64 255 128
0.6613109 -0.4967088 3.4840097 64 255 128
0.7405825 -0.4444698 3.5558345 64 255 128
0.5959861 -0.4389980 3.5633469 64 255 128
0.6779591 -0.4555025 3.4090927 64 255 128
0.8152134 -0.4054193 3.5340610 64 255 128
0.5217414 -0.3907983 3.5430546 64 255 128
0.9073849 -0.1665616 3.4962804 64 255 128
0.4646814 -0.1504673 3.5097873 64 255 128
0.8806037 -0.0266799 3.3025045 64 255 128
0.5082594 -0.0222893 3.3014238 64 255 128
0.8835514 0.0373564 3.2550392 64 255 128
0.5037110 0.0357633 3.2477045 64 255 128
0.6718048 -0.4057632 3.3067846 64 255 128
0.6415257 -0.4553302 3.2977223 64 255 128
0.7076637 -0.4523869 3.2977188 64 255 128
0.6082284 -0.5193567 3.3683519 64 255 128
0.7475891 -0.5099267 3.3704560 64 255 128
0.8524603 0.7897295 3.8211977 64 255 128
0.8908741 0.7832435 3.8883536 64 255 128
0.7530311 0.7136724 4.0211315 64 255 128
0.4799067 0.8082732 3.7193706 64 255 128
0.4269206 0.7995700 3.7786012 64 255 128
0.5389442 0.7398621 3.9396853 64 255 128
0.7922614 0.0621781 3.2599661 64 255 128
0.8378452 0.1034304 3.1932096 64 255 128
0.8700568 0.1086458 3.1804616 64 255 128
0.8983340 0.0971253 3.1899900 64 255 128
0.9263652 0.0800594 3.2196178 64 255 128
0.5738340 0.0881411 3.2835188 64 255 128
0.5397463 0.1112483 3.1995633 64 255 128
0.5129163 0.1042999 3.1772194 64 255 128
0.4888790 0.0866768 3.1785169 64 255 128
0.4587605 0.0564668 3.1948798 64 255 128
