ply
format ascii 1.0
element vertex 45
property float x
property float y
property float z
property uchar red
property uchar green
property uchar blue
end_header
0.7562734 -0.1146640 3.6911554 255 64 64
0.8195483 -0.0304371 3.7277126 255 64 64
0.6910490 -0.0347322 3.7273633 255 64 64
0.7570361 -0.2172749 3.6763508 255 64 64
0.8903435 0.3449775 3.7209682 255 64 64
0.5786414 0.3353583 3.6848381 255 64 64
0.7520916 -0.3209348 3.5919833 255 64 64
0.8722563 0.6949091 3.9138331 255 64 64
0.5791211 0.7059964 3.8345497 255 64 64
0.7470608 -0.3333738 3.5376539 255 64 64
0.9441428 0.7763149 3.8427947 255 64 64
0.5040666 0.7800916 3.7602193 255 64 64
0.7115718 -0.5035474 3.4191616 255 64 64
0.7987517 -0.4469855 3.4754505 255 64 64
0.6562982 -0.4275723 3.4885185 255 64 64
0.7201577 -0.4937735 3.3337808 255 64 64
0.8782773 -0.4235548 3.4494507 255 64 64
0.5830861 -0.3783347 3.4687104 255 64 64
0.9708927 -0.1828147 3.4420447 255 64 64
0.5191841 -0.1386202 3.4609406 255 64 64
0.9451689 -0.0573224 3.2393222 255 64 64
0.5316964 -0.0560114 3.2279508 255 64 64
0.9571197 -0.0034367 3.1823697 255 64 64
0.5317845 -0.0099517 3.1641603 255 64 64
0.6966218 -0.4924722 3.2229116 255 64 64
0.6635991 -0.5375503 3.2416213 255 64 64
0.7285381 -0.5426191 3.2302039 255 64 64
0.6427321 -0.5597599 3.3369789 255 64 64
0.7796779 -0.5666959 3.3136492 255 64 64
0.9464608 0.7925617 3.7723484 255 64 64
0.9891900 0.7778049 3.8356512 255 64 64
0.8554929 0.7099005 3.9733610 255 64 64
0.5064375 0.8035734 3.6908324 255 64 64
0.4633708 0.7930936 3.7572198 255 64 64
0.5991087 0.7293799 3.8949738 255 64 64
0.8721507 0.0361790 3.1819782 255 64 64
0.9219940 0.0570785 3.1106317 255 64 64
0.9538469 0.0543483 3.0972848 255 64 64
0.9791326 0.0407324 3.1095319 255 64 64
1.0042425 0.0246067 3.1416416 255 64 64
0.6245058 0.0039813 3.1629407 255 64 64
0.5739619 0.0313066 3.0891938 255 64 64
0.5416160 0.0362812 3.0787084 255 64 64
0.5144444 0.0327792 3.0916853 255 64 64
0.4834382 0.0238127 3.1232107 255 64 64
