ply
format ascii 1.0
element vertex 90
property float x
property float y
property float z
property uchar red
property uchar green
property uchar blue
end_header
-1.3625318 -0.0432483 3.2503650 255 64 64
-1.3074384 -0.0166988 3.3451273 255 64 64
-1.4328369 -0.0043456 3.3259652 255 64 64
-1.3588220 -0.1055136 3.1658983 255 64 64
-1.1967814 0.3735422 3.3294528 255 64 64
-1.4651861 0.4067401 3.3409796 255 64 64
-1.3389263 -0.0102130 3.0704246 255 64 64
-1.1197906 0.7893670 3.3905098 255 64 64
-1.4807395 0.8206492 3.4441788 255 64 64
-1.3285177 0.0374030 3.0423510 255 64 64
-1.0517538 0.8886766 3.3268251 255 64 64
-1.5153215 0.9191679 3.3572154 255 64 64
-1.3200088 0.1346921 2.8474493 255 64 64
-1.2496539 0.0774846 2.9295528 255 64 64
-1.3968779 0.0813253 2.9242485 255 64 64
-1.2797134 0.1973590 2.7991414 255 64 64
-1.2104746 0.1531561 2.9569132 255 64 64
-1.4368882 0.1598210 2.9562466 255 64 64
-1.1962643 0.3928908 3.0945048 255 64 64
-1.5329496 0.3648582 3.0976326 255 64 64
-1.3156052 0.6135187 3.0433137 255 64 64
-1.4356563 0.6061541 3.0462449 255 64 64
-1.3075030 0.6862950 3.0037565 255 64 64
-1.4242735 0.6825728 3.0159326 255 64 64
-1.2627618 0.2894689 2.7426174 255 64 64
-1.2985971 0.2578079 2.7038703 255 64 64
-1.2329208 0.2447567 2.7107964 255 64 64
-1.3536878 0.1769268 2.7254646 255 64 64
-1.2147319 0.1529177 2.7454162 255 64 64
-1.0678723 0.9005444 3.2519870 255 64 64
-1.0110245 0.8917000 3.3061821 255 64 64
-1.1287991 0.8074953 3.4604247 255 64 64
-1.4848242 0.9567722 3.2931211 255 64 64
-1.5511096 0.9496009 3.3513455 255 64 64
-1.4748642 0.8387864 3.5139143 255 64 64
-1.4002210 0.7182946 2.9941838 255 64 64
-1.3474143 0.7688168 2.9391291 255 64 64
-1.3143197 0.7754735 2.9302020 255 64 64
-1.2872558 0.7624108 2.9443176 255 64 64
-1.2625074 0.7411280 2.9751377 255 64 64
-1.3286215 0.6877114 3.0218837 255 64 64
-1.3698924 0.7599718 2.9714437 255 64 64
-1.3997830 0.7743385 2.9636118 255 64 64
-1.4284105 0.7675679 2.9742911 255 64 64
-1.4618051 0.7465519 2.9938967 255 64 64
-1.3851751 -0.0727037 3.1897414 64 255 128
-1.3420514 -0.0485425 3.2912540 64 255 128
-1.4662179 -0.0552005 3.2626987 64 255 128
-1.3648571 -0.1234315 3.0996575 64 255 128
-1.2959732 0.3534056 3.3414891 64 255 128
-1.5493222 0.3424633 3.3446136 64 255 128
-1.3472694 -0.0192692 3.0136557 64 255 128
-1.2771035 0.7826848 3.3572199 64 255 128
-1.6007729 0.7632939 3.4138505 64 255 128
-1.3400087 0.0299513 2.9872906 64 255 128
-1.2423490 0.8744383 3.2615759 64 255 128
-1.6496919 0.8304079 3.3052268 64 255 128
-1.3344077 0.1330310 2.7942271 64 255 128
-1.2611500 0.0840772 2.8796799 64 255 128
-1.4071689 0.0663893 2.8652589 64 255 128
-1.3055800 0.2051694 2.7502606 64 255 128
-1.2298632 0.1655261 2.9010077 64 255 128
-1.4549031 0.1432645 2.8912501 64 255 128
-1.2196072 0.4220043 3.0094490 64 255 128
-1.5805142 0.3566473 2.9962537 64 255 128
-1.3390269 0.6469183 2.9676573 64 255 128
-1.6243998 0.6197433 2.9787185 64 255 128
-1.3468950 0.7303131 2.9625425 64 255 128
-1.6617866 0.6937446 2.9668858 64 255 128
-1.3193543 0.2945070 2.6845059 64 255 128
-1.3535745 0.2520034 2.6551025 64 255 128
-1.2862161 0.2531393 2.6502194 64 255 128
-1.3848264 0.1629102 2.6915212 64 255 128
-1.2429904 0.1701733 2.6880648 64 255 128
-1.2744226 0.8687993 3.1921501 64 255 128
-1.2073735 0.8765317 3.2323189 64 255 128
-1.2744107 0.8127900 3.4233873 64 255 128
-1.6247363 0.8495861 3.2318337 64 255 128
-1.6878202 0.8556599 3.2926710 64 255 128
-1.5996022 0.7961208 3.4779046 64 255 128
-1.4257944 0.7402222 2.9018750 64 255 128
-1.3833194 0.8229154 2.9088986 64 255 128
-1.3566543 0.8409058 2.9269588 64 255 128
-1.3361268 0.8292317 2.9531136 64 255 128
-1.3254125 0.8008866 2.9870112 64 255 128
-1.5859067 0.7451119 2.9347434 64 255 128
-1.6714175 0.7906151 2.9249647 64 255 128
-1.7058157 0.7888476 2.9339876 64 255 128
-1.7206770 0.7683135 2.9540067 64 255 128
-1.7296214 0.7318266 2.9804718 64 255 128
