ply
format ascii 1.0
element vertex 45
property float x
property float y
property float z
property uchar red
property uchar green
property uchar blue
end_header
-1.3259954 -0.0126573 3.1181550 255 64 64
-1.2607306 0.0474077 3.1865532 255 64 64
-1.3866758 0.0522035 3.1821673 255 64 64
-1.3307098 -0.1023419 3.0642946 255 64 64
-1.1650558 0.4366522 3.1404598 255 64 64
-1.4234031 0.4606998 3.1785271 255 64 64
-1.3257172 -0.0933434 2.9274530 255 64 64
-1.0942241 0.8533670 3.1768496 255 64 64
-1.4228864 0.8770463 3.2573481 255 64 64
-1.3246982 -0.0707584 2.8758938 255 64 64
-1.0331335 0.9451838 3.0972466 255 64 64
-1.4805845 0.9632397 3.1699083 255 64 64
-1.3477598 -0.0942709 2.6609302 255 64 64
-1.2634711 -0.0945130 2.7492671 255 64 64
-1.4088297 -0.1022857 2.7650738 255 64 64
-1.3223169 -0.0368423 2.5964956 255 64 64
-1.2065517 -0.0259816 2.7424586 255 64 64
-1.4780811 -0.0426774 2.7857969 255 64 64
-1.2157398 0.2150214 2.8757558 255 64 64
-1.5611646 0.1081532 2.9882832 255 64 64
-1.3908963 0.3836924 2.7972693 255 64 64
-1.4822257 0.3597890 2.9677560 255 64 64
-1.4147338 0.4546777 2.7606227 255 64 64
-1.4800578 0.4414590 2.9525914 255 64 64
-1.3233379 0.0541408 2.5337052 255 64 64
-1.3629358 0.0179476 2.5042100 255 64 64
-1.2967662 0.0106685 2.4983485 255 64 64
-1.4051681 -0.0656530 2.5389960 255 64 64
-1.2648264 -0.0775201 2.5316448 255 64 64
-1.0510888 0.9548892 3.0228343 255 64 64
-0.9922501 0.9465771 3.0750239 255 64 64
-1.1014572 0.8760810 3.2425151 255 64 64
-1.4683429 0.9915091 3.0961792 255 64 64
-1.5181915 0.9890006 3.1672623 255 64 64
-1.4051346 0.9011666 3.3217063 255 64 64
-1.5089604 0.4379290 2.7416506 255 64 64
-1.4803257 0.5119579 2.6964753 255 64 64
-1.4539434 0.5334365 2.6914589 255 64 64
-1.4271244 0.5333654 2.7081149 255 64 64
-1.3986340 0.5233780 2.7390273 255 64 64
-1.3876207 0.4466787 2.9255025 255 64 64
-1.4438916 0.5266684 2.9113863 255 64 64
-1.4735665 0.5402206 2.9176917 255 64 64
-1.4965185 0.5296338 2.9349725 255 64 64
-1.5204237 0.5034816 2.9603541 255 64 64
