ply
format ascii 1.0
element vertex 45
property float x
property float y
property float z
property uchar red
property uchar green
property uchar blue
end_header
-0.1958202 0.1870688 2.0841556 255 64 64
-0.2011916 0.2647758 2.1694932 255 64 64
-0.1870346 0.2929896 2.0447028 255 64 64
-0.2354993 0.0782480 2.0511243 255 64 64
-0.1861857 0.6264578 2.3518219 255 64 64
-0.1979412 0.7028570 2.1036577 255 64 64
-0.2176509 -0.0741559 2.0363548 255 64 64
-0.2397663 1.0387801 2.4659634 255 64 64
-0.3189102 1.0906527 2.2492352 255 64 64
-0.2050144 -0.1353604 2.0283022 255 64 64
-0.1344935 1.0926621 2.5470586 255 64 64
-0.2031670 1.1659094 2.2048023 255 64 64
-0.2243101 -0.3597257 1.9943535 255 64 64
-0.2242023 -0.2746964 2.0942078 255 64 64
-0.2294293 -0.2483429 1.9249299 255 64 64
-0.1565691 -0.4152755 1.9879775 255 64 64
-0.1902681 -0.3399100 2.1670799 255 64 64
-0.1779012 -0.2808426 1.8322127 255 64 64
0.0035898 -0.4970304 2.2925029 255 64 64
0.0298614 -0.3653312 1.6796484 255 64 64
0.0183892 -0.7082186 2.1283658 255 64 64
0.0598123 -0.6358083 1.7056936 255 64 64
-0.0020252 -0.7963570 2.1167562 255 64 64
0.0614579 -0.7173938 1.6668267 255 64 64
-0.0518309 -0.4696198 1.9672122 255 64 64
-0.0911850 -0.4898788 1.9190385 255 64 64
-0.0938128 -0.5169355 1.9814414 255 64 64
-0.1825486 -0.4477661 1.8855097 255 64 64
-0.1875661 -0.5076100 2.0257454 255 64 64
-0.0531658 1.0810615 2.5428293 255 64 64
-0.1244274 1.0789645 2.5931540 255 64 64
-0.3065901 1.0761395 2.4694147 255 64 64
-0.1214178 1.1766620 2.2275131 255 64 64
-0.1937424 1.1955323 2.1702042 255 64 64
-0.3815950 1.1290586 2.2760634 255 64 64
-0.0135417 -0.7891201 2.0082366 255 64 64
-0.0370123 -0.8783758 2.0516124 255 64 64
-0.0411443 -0.8964459 2.0812392 255 64 64
-0.0314319 -0.8886906 2.1109290 255 64 64
-0.0097393 -0.8669115 2.1454494 255 64 64
0.0011263 -0.7648391 1.7481909 255 64 64
0.0318580 -0.8172240 1.6532182 255 64 64
0.0496452 -0.8156284 1.6224267 255 64 64
0.0718995 -0.7948083 1.6101472 255 64 64
0.0994790 -0.7574910 1.6088884 255 64 64
