ply
format ascii 1.0
element vertex 90
property float x
property float y
property float z
property uchar red
property uchar green
property uchar blue
end_header
0.7703912 -0.0961143 3.6250877 255 64 64
0.8380701 -0.0115857 3.6528096 255 64 64
0.7106113 -0.0161629 3.6702352 255 64 64
0.7692407 -0.1987253 3.6101468 255 64 64
0.8902762 0.3687834 3.6218157 255 64 64
0.5834907 0.3527763 3.6313612 255 64 64
0.7540995 -0.2978648 3.5207002 255 64 64
0.8834765 0.7306374 3.7990661 255 64 64
0.5936693 0.7264023 3.7812912 255 64 64
0.7431637 -0.3095191 3.4668798 255 64 64
0.9341499 0.8125899 3.7111990 255 64 64
0.5074905 0.8000017 3.7182426 255 64 64
0.6973414 -0.4745664 3.3432951 255 64 64
0.7896288 -0.4188963 3.3934996 255 64 64
0.6489418 -0.4031335 3.4229169 255 64 64
0.7053798 -0.4607461 3.2573087 255 64 64
0.8652811 -0.3986746 3.3552091 255 64 64
0.5700225 -0.3598501 3.4123406 255 64 64
0.9383532 -0.1490602 3.3565094 255 64 64
0.5284222 -0.1156768 3.4459155 255 64 64
0.8911828 -0.0010455 3.1718180 255 64 64
0.5080379 0.0083714 3.2309120 255 64 64
0.9022496 0.0536645 3.1150661 255 64 64
0.5050721 0.0647845 3.1758654 255 64 64
0.6864377 -0.4413438 3.1476033 255 64 64
0.6501623 -0.4866841 3.1583030 255 64 64
0.7152733 -0.4939331 3.1482189 255 64 64
0.6240688 -0.5216029 3.2487979 255 64 64
0.7612778 -0.5336894 3.2281201 255 64 64
0.9198352 0.8233829 3.6407790 255 64 64
0.9759964 0.8146052 3.6936493 255 64 64
0.8783152 0.7491284 3.8610246 255 64 64
0.4992743 0.8230077 3.6483693 255 64 64
0.4667701 0.8133044 3.7213829 255 64 64
0.6219023 0.7513959 3.8390331 255 64 64
0.8165205 0.0920705 3.1146250 255 64 64
0.8667417 0.1142068 3.0434155 255 64 64
0.8980941 0.1119416 3.0298560 255 64 64
0.9232923 0.0991295 3.0423412 255 64 64
0.9482297 0.0832010 3.0737958 255 64 64
0.5940886 0.0523059 3.1464553 255 64 64
0.5353819 0.1075349 3.0965157 255 64 64
0.5047334 0.1228619 3.0977042 255 64 64
0.4826092 0.1241735 3.1183181 255 64 64
0.4611658 0.1179277 3.1568253 255 64 64
0.7186073 -0.0874668 3.5981712 64 255 128
0.7833985 0.0036613 3.6120892 64 255 128
0.6540110 -0.0011461 3.6220222 64 255 128
0.7202491 -0.1920993 3.6050344 64 255 128
0.8405211 0.3828467 3.6116681 64 255 128
0.5355073 0.3708745 3.6116786 64 255 128
0.7129645 -0.3134189 3.5449035 64 255 128
0.8109002 0.7388757 3.7946768 64 255 128
0.5499299 0.7410586 3.7657652 64 255 128
0.7017561 -0.3185369 3.4894626 64 255 128
0.8590913 0.8234678 3.7077799 64 255 128
0.4654939 0.8068324 3.6921754 64 255 128
0.6597976 -0.4674298 3.3438914 64 255 128
0.7508806 -0.4111183 3.3958976 64 255 128
0.6120075 -0.4135020 3.4371662 64 255 128
0.6561913 -0.4220982 3.2695966 64 255 128
0.8153135 -0.3674791 3.3570027 64 255 128
0.5324863 -0.3697785 3.4337170 64 255 128
0.8799622 -0.1225438 3.3040571 64 255 128
0.4555813 -0.1336270 3.4127483 64 255 128
0.8085710 0.0215385 3.1252363 64 255 128
0.4378667 -0.0028598 3.2022011 64 255 128
0.7993993 0.0873551 3.0811191 64 255 128
0.4164473 0.0548401 3.1523163 64 255 128
0.6237663 -0.3712942 3.1729043 64 255 128
0.5944152 -0.4221125 3.1701188 64 255 128
0.6585088 -0.4160073 3.1545331 64 255 128
0.5815834 -0.4887313 3.2450063 64 255 128
0.7170855 -0.4725611 3.2144859 64 255 128
0.8481411 0.8329998 3.6370816 64 255 128
0.9015020 0.8300206 3.6934013 64 255 128
0.8025997 0.7559650 3.8551407 64 255 128
0.4606805 0.8249260 3.6212218 64 255 128
0.4241653 0.8185238 3.6919024 64 255 128
0.5745144 0.7698793 3.8226900 64 255 128
0.7100689 0.1075207 3.1051493 64 255 128
0.7395542 0.1534881 3.0326796 64 255 128
0.7683885 0.1606861 3.0140378 64 255 128
0.7985347 0.1501709 3.0171940 64 255 128
0.8326398 0.1334411 3.0399547 64 255 128
0.4899955 0.1113803 3.1699164 64 255 128
0.4347184 0.1325815 3.0978332 64 255 128
0.4034416 0.1240082 3.0829537 64 255 128
0.3815224 0.1049149 3.0900025 64 255 128
0.3582480 0.0727672 3.1129956 64 255 128
