ply
format ascii 1.0
element vertex 90
property float x
property float y
property float z
property uchar red
property uchar green
property uchar blue
end_header
0.7562734 -0.1146640 3.6911554 255 64 64
0.8195483 -0.0304371 3.7277126 255 64 64
0.6910490 -0.0347322 3.7273633 255 64 64
0.7570361 -0.2172749 3.6763508 255 64 64
0.8903435 0.3449775 3.7209682 255 64 64
0.5786414 0.3353583 3.6848381 255 64 64
0.7520916 -0.3209348 3.5919833 255 64 64
0.8722563 0.6949091 3.9138331 255 64 64
0.5791211 0.7059964 3.8345497 255 64 64
0.7470608 -0.3333738 3.5376539 255 64 64
0.9441428 0.7763149 3.8427947 255 64 64
0.5040666 0.7800916 3.7602193 255 64 64
0.7115718 -0.5035474 3.4191616 255 64 64
0.7987517 -0.4469855 3.4754505 255 64 64
0.6562982 -0.4275723 3.4885185 255 64 64
0.7201577 -0.4937735 3.3337808 255 64 64
0.8782773 -0.4235548 3.4494507 255 64 64
0.5830861 -0.3783347 3.4687104 255 64 64
0.9708927 -0.1828147 3.4420447 255 64 64
0.5191841 -0.1386202 3.4609406 255 64 64
0.9451689 -0.0573224 3.2393222 255 64 64
0.5316964 -0.0560114 3.2279508 255 64 64
0.9571197 -0.0034367 3.1823697 255 64 64
0.5317845 -0.0099517 3.1641603 255 64 64
0.6966218 -0.4924722 3.2229116 255 64 64
0.6635991 -0.5375503 3.2416213 255 64 64
0.7285381 -0.5426191 3.2302039 255 64 64
0.6427321 -0.5597599 3.3369789 255 64 64
0.7796779 -0.5666959 3.3136492 255 64 64
0.9464608 0.7925617 3.7723484 255 64 64
0.9891900 0.7778049 3.8356512 255 64 64
0.8554929 0.7099005 3.9733610 255 64 64
0.5064375 0.8035734 3.6908324 255 64 64
0.4633708 0.7930936 3.7572198 255 64 64
0.5991087 0.7293799 3.8949738 255 64 64
0.8721507 0.0361790 3.1819782 255 64 64
0.9219940 0.0570785 3.1106317 255 64 64
0.9538469 0.0543483 3.0972848 255 64 64
0.9791326 0.0407324 3.1095319 255 64 64
1.0042425 0.0246067 3.1416416 255 64 64
0.6245058 0.0039813 3.1629407 255 64 64
0.5739619 0.0313066 3.0891938 255 64 64
0.5416160 0.0362812 3.0787084 255 64 64
0.5144444 0.0327792 3.0916853 255 64 64
0.4834382 0.0238127 3.1232107 255 64 64
0.6919519 -0.1109924 3.7073817 64 255 128
0.7573918 -0.0225585 3.7317331 64 255 128
0.6281901 -0.0215598 3.7187405 64 255 128
0.6875703 -0.2154706 3.7153111 64 255 128
0.8346828 0.3529498 3.7397501 64 255 128
0.5304462 0.3551273 3.6855385 64 255 128
0.6854472 -0.3370635 3.6553288 64 255 128
0.7867382 0.7070848 3.9225507 64 255 128
0.5361886 0.7208936 3.8503692 64 255 128
0.6839584 -0.3419050 3.5987616 64 255 128
0.8532341 0.7895416 3.8463373 64 255 128
0.4690172 0.7921020 3.7649968 64 255 128
0.6621318 -0.4898262 3.4478858 64 255 128
0.7448547 -0.4372247 3.5154264 64 255 128
0.6008710 -0.4331825 3.5311375 64 255 128
0.6737764 -0.4474567 3.3726733 64 255 128
0.8174508 -0.3972343 3.4889808 64 255 128
0.5250494 -0.3859723 3.5147195 64 255 128
0.9023526 -0.1564344 3.4467542 64 255 128
0.4642952 -0.1462993 3.4832973 64 255 128
0.8642486 -0.0161405 3.2551844 64 255 128
0.4926760 -0.0159066 3.2736876 64 255 128
0.8640546 0.0484168 3.2083378 64 255 128
0.4837625 0.0426496 3.2210732 64 255 128
0.6605951 -0.3967930 3.2715335 64 255 128
0.6304879 -0.4466928 3.2638540 64 255 128
0.6964569 -0.4428152 3.2597697 64 255 128
0.6025082 -0.5118829 3.3356738 64 255 128
0.7416139 -0.5005202 3.3293071 64 255 128
0.8552392 0.7993944 3.7748199 64 255 128
0.8977072 0.7941256 3.8396094 64 255 128
0.7689400 0.7242690 3.9810147 64 255 128
0.4781258 0.8138973 3.6953819 64 255 128
0.4288056 0.8050755 3.7576375 64 255 128
0.5505103 0.7468184 3.9120424 64 255 128
0.7727821 0.0718823 3.2178566 64 255 128
0.8145480 0.1144865 3.1494694 64 255 128
0.8460518 0.1202740 3.1352880 64 255 128
0.8749295 0.1090379 3.1433129 64 255 128
0.9045824 0.0920858 3.1714137 64 255 128
0.5552872 0.0956900 3.2527752 64 255 128
0.5154532 0.1192636 3.1715589 64 255 128
0.4873035 0.1121304 3.1509480 64 255 128
0.4636635 0.0941143 3.1536064 64 255 128
0.4351155 0.0632633 3.1715705 64 255 128
