ply
format ascii 1.0
element vertex 45
property float x
property float y
property float z
property uchar red
property uchar green
property uchar blue
end_header
0.8016982 -0.1113038 3.7099025 255 64 64
0.8660988 -0.0255359 3.7399693 255 64 64
0.7382089 -0.0328361 3.7516465 255 64 64
0.8035182 -0.2136875 3.6955569 255 64 64
0.9165388 0.3531892 3.7295086 255 64 64
0.6156272 0.3344566 3.7124615 255 64 64
0.7933902 -0.3150061 3.6095994 255 64 64
0.8986243 0.7070528 3.9153781 255 64 64
0.6230391 0.7082890 3.8541393 255 64 64
0.7834389 -0.3271405 3.5560298 255 64 64
0.9593825 0.7902523 3.8365123 255 64 64
0.5416570 0.7807858 3.7851377 255 64 64
0.7394889 -0.4949407 3.4373705 255 64 64
0.8308907 -0.4379203 3.4859989 255 64 64
0.6899871 -0.4219891 3.5138950 255 64 64
0.7407706 -0.4833419 3.3518226 255 64 64
0.9044823 -0.4125170 3.4470115 255 64 64
0.6156096 -0.3723297 3.4998550 255 64 64
0.9755851 -0.1650971 3.4244282 255 64 64
0.5621021 -0.1296444 3.5009160 255 64 64
0.9240985 -0.0298236 3.2328730 255 64 64
0.5432492 -0.0189242 3.2801037 255 64 64
0.9319747 0.0263344 3.1773655 255 64 64
0.5366712 0.0356275 3.2237692 255 64 64
0.7097623 -0.4750207 3.2434089 255 64 64
0.6790162 -0.5220451 3.2611046 255 64 64
0.7431355 -0.5246777 3.2450984 255 64 64
0.6649695 -0.5512602 3.3557973 255 64 64
0.8001495 -0.5532296 3.3231044 255 64 64
0.9540623 0.8046675 3.7658172 255 64 64
1.0032718 0.7928804 3.8245308 255 64 64
0.8876950 0.7225574 3.9764891 255 64 64
0.5378428 0.8032442 3.7151539 255 64 64
0.5009676 0.7943954 3.7857106 255 64 64
0.6482843 0.7333267 3.9121845 255 64 64
0.8455496 0.0626161 3.1808445 255 64 64
0.8923799 0.0878320 3.1085575 255 64 64
0.9235677 0.0866887 3.0940769 255 64 64
0.9497763 0.0738303 3.1051457 255 64 64
0.9763089 0.0578346 3.1357841 255 64 64
0.6279801 0.0384084 3.2027216 255 64 64
0.5673640 0.0824725 3.1462545 255 64 64
0.5346725 0.0925167 3.1440275 255 64 64
0.5108171 0.0904471 3.1624279 255 64 64
0.4866442 0.0807691 3.1988139 255 64 64
