ply
format ascii 1.0
element vertex 45
property float x
property float y
property float z
property uchar red
property uchar green
property uchar blue
end_header
0.0800576 0.1732753 2.0708637 255 64 64
0.0767123 0.2508594 2.1562088 255 64 64
0.0890559 0.2790844 2.0317287 255 64 64
0.0390188 0.0648964 2.0382288 255 64 64
0.0979773 0.6107700 2.3442781 255 64 64
0.0660859 0.6891202 2.0934901 255 64 64
0.0533601 -0.0876797 2.0203078 255 64 64
0.0420343 1.0240602 2.4571071 255 64 64
-0.0765040 1.0714438 2.2364542 255 64 64
0.0578047 -0.1498096 2.0114832 255 64 64
0.1405030 1.0804508 2.5452807 255 64 64
0.0299267 1.1553197 2.1838834 255 64 64
0.0161828 -0.3705871 1.9758873 255 64 64
0.0274527 -0.2874027 2.0761621 255 64 64
0.0193090 -0.2583709 1.9080565 255 64 64
0.0747716 -0.4360830 1.9739847 255 64 64
0.0439442 -0.3707091 2.1347456 255 64 64
0.0487024 -0.3147821 1.8172591 255 64 64
0.1613482 -0.6013200 2.2404869 255 64 64
0.1807615 -0.4642103 1.6326494 255 64 64
0.1295642 -0.8181994 2.0857687 255 64 64
0.1913346 -0.7380798 1.6269052 255 64 64
0.0898121 -0.9001184 2.0782051 255 64 64
0.1768596 -0.8146284 1.5805604 255 64 64
0.1681033 -0.5063179 1.9477282 255 64 64
0.1226442 -0.5200284 1.9019148 255 64 64
0.1195057 -0.5462210 1.9645312 255 64 64
0.0372101 -0.4634118 1.8733681 255 64 64
0.0318094 -0.5213481 2.0141721 255 64 64
0.2226828 1.0687656 2.5478833 255 64 64
0.1471259 1.0672195 2.5907745 255 64 64
-0.0263824 1.0645339 2.4562259 255 64 64
0.1130077 1.1716207 2.2003274 255 64 64
0.0348647 1.1844163 2.1486504 255 64 64
-0.1410602 1.1077584 2.2670281 255 64 64
0.0774815 -0.8936949 1.9684900 255 64 64
0.0353777 -0.9749422 2.0157640 255 64 64
0.0284109 -0.9913642 2.0466564 255 64 64
0.0405838 -0.9854184 2.0765986 255 64 64
0.0677281 -0.9678106 2.1104648 255 64 64
0.1277959 -0.8662701 1.6684194 255 64 64
0.1341185 -0.9105190 1.5642064 255 64 64
0.1461064 -0.9068031 1.5297644 255 64 64
0.1682634 -0.8863813 1.5149319 255 64 64
0.2001078 -0.8510486 1.5112891 255 64 64
