<svg xmlns="http://www.w3.org/2000/svg" width="1352" height="910" viewBox="0 0 1352 910">
<rect x="628" y="152" width="28" height="28" rx="4" fill="rgb(255,205,205)" fill-opacity="0.82" stroke="rgb(244,124,124)" stroke-width="2"/>
<rect x="662" y="152" width="28" height="28" rx="4" fill="rgb(255,205,205)" fill-opacity="0.82" stroke="rgb(244,124,124)" stroke-width="2"/>
<rect x="696" y="152" width="28" height="28" rx="4" fill="rgb(255,205,205)" fill-opacity="0.82" stroke="rgb(244,124,124)" stroke-width="2"/>
<rect x="458" y="186" width="28" height="28" rx="4" fill="rgb(197,225,255)" fill-opacity="0.82" stroke="rgb(80,150,235)" stroke-width="2"/>
<rect x="492" y="186" width="28" height="28" rx="4" fill="rgb(197,225,255)" fill-opacity="0.82" stroke="rgb(80,150,235)" stroke-width="2"/>
<rect x="628" y="186" width="28" height="28" rx="4" fill="rgb(255,205,205)" fill-opacity="0.82" stroke="rgb(244,124,124)" stroke-width="2"/>
<rect x="662" y="186" width="28" height="28" rx="4" fill="rgb(255,205,205)" fill-opacity="0.82" stroke="rgb(244,124,124)" stroke-width="2"/>
<rect x="696" y="186" width="28" height="28" rx="4" fill="rgb(255,205,205)" fill-opacity="0.82" stroke="rgb(244,124,124)" stroke-width="2"/>
<rect x="424" y="220" width="28" height="28" rx="4" fill="rgb(197,225,255)" fill-opacity="0.82" stroke="rgb(80,150,235)" stroke-width="2"/>
<rect x="458" y="220" width="28" height="28" rx="4" fill="rgb(197,225,255)" fill-opacity="0.82" stroke="rgb(80,150,235)" stroke-width="2"/>
<rect x="492" y="220" width="28" height="28" rx="4" fill="rgb(197,225,255)" fill-opacity="0.82" stroke="rgb(80,150,235)" stroke-width="2"/>
<rect x="526" y="220" width="28" height="28" rx="4" fill="rgb(197,225,255)" fill-opacity="0.82" stroke="rgb(80,150,235)" stroke-width="2"/>
<rect x="594" y="220" width="28" height="28" rx="4" fill="rgb(255,205,205)" fill-opacity="0.82" stroke="rgb(244,124,124)" stroke-width="2"/>
<rect x="628" y="220" width="28" height="28" rx="4" fill="rgb(255,205,205)" fill-opacity="0.82" stroke="rgb(244,124,124)" stroke-width="2"/>
<rect x="662" y="220" width="28" height="28" rx="4" fill="rgb(255,205,205)" fill-opacity="0.82" stroke="rgb(244,124,124)" stroke-width="2"/>
<rect x="696" y="220" width="28" height="28" rx="4" fill="rgb(255,205,205)" fill-opacity="0.82" stroke="rgb(244,124,124)" stroke-width="2"/>
<rect x="424" y="254" width="28" height="28" rx="4" fill="rgb(197,225,255)" fill-opacity="0.82" stroke="rgb(80,150,235)" stroke-width="2"/>
<rect x="458" y="254" width="28" height="28" rx="4" fill="rgb(197,225,255)" fill-opacity="0.82" stroke="rgb(80,150,235)" stroke-width="2"/>
<rect x="492" y="254" width="28" height="28" rx="4" fill="rgb(197,225,255)" fill-opacity="0.82" stroke="rgb(80,150,235)" stroke-width="2"/>
<rect x="526" y="254" width="28" height="28" rx="4" fill="rgb(197,225,255)" fill-opacity="0.82" stroke="rgb(80,150,235)" stroke-width="2"/>
<rect x="594" y="254" width="28" height="28" rx="4" fill="rgb(255,205,205)" fill-opacity="0.82" stroke="rgb(244,124,124)" stroke-width="2"/>
<rect x="628" y="254" width="28" height="28" rx="4" fill="rgb(255,205,205)" fill-opacity="0.82" stroke="rgb(244,124,124)" stroke-width="2"/>
<rect x="662" y="254" width="28" height="28" rx="4" fill="rgb(255,205,205)" fill-opacity="0.82" stroke="rgb(244,124,124)" stroke-width="2"/>
<rect x="696" y="254" width="28" height="28" rx="4" fill="rgb(255,205,205)" fill-opacity="0.82" stroke="rgb(244,124,124)" stroke-width="2"/>
<rect x="730" y="254" width="28" height="28" rx="4" fill="rgb(255,205,205)" fill-opacity="0.82" stroke="rgb(244,124,124)" stroke-width="2"/>
<rect x="424" y="288" width="28" height="28" rx="4" fill="rgb(197,225,255)" fill-opacity="0.82" stroke="rgb(80,150,235)" stroke-width="2"/>
<rect x="458" y="288" width="28" height="28" rx="4" fill="rgb(197,225,255)" fill-opacity="0.82" stroke="rgb(80,150,235)" stroke-width="2"/>
<rect x="492" y="288" width="28" height="28" rx="4" fill="rgb(197,225,255)" fill-opacity="0.82" stroke="rgb(80,150,235)" stroke-width="2"/>
<rect x="560" y="288" width="28" height="28" rx="4" fill="rgb(255,205,205)" fill-opacity="0.82" stroke="rgb(244,124,124)" stroke-width="2"/>
<rect x="594" y="288" width="28" height="28" rx="4" fill="rgb(255,205,205)" fill-opacity="0.82" stroke="rgb(244,124,124)" stroke-width="2"/>
<rect x="628" y="288" width="28" height="28" rx="4" fill="rgb(255,205,205)" fill-opacity="0.82" stroke="rgb(244,124,124)" stroke-width="2"/>
<rect x="662" y="288" width="28" height="28" rx="4" fill="rgb(255,205,205)" fill-opacity="0.82" stroke="rgb(244,124,124)" stroke-width="2"/>
<rect x="696" y="288" width="28" height="28" rx="4" fill="rgb(255,205,205)" fill-opacity="0.82" stroke="rgb(244,124,124)" stroke-width="2"/>
<rect x="730" y="288" width="28" height="28" rx="4" fill="rgb(255,205,205)" fill-opacity="0.82" stroke="rgb(244,124,124)" stroke-width="2"/>
<rect x="424" y="322" width="28" height="28" rx="4" fill="rgb(197,225,255)" fill-opacity="0.82" stroke="rgb(80,150,235)" stroke-width="2"/>
<rect x="458" y="322" width="28" height="28" rx="4" fill="rgb(197,225,255)" fill-opacity="0.82" stroke="rgb(80,150,235)" stroke-width="2"/>
<rect x="492" y="322" width="28" height="28" rx="4" fill="rgb(197,225,255)" fill-opacity="0.82" stroke="rgb(80,150,235)" stroke-width="2"/>
<rect x="560" y="322" width="28" height="28" rx="4" fill="rgb(255,205,205)" fill-opacity="0.82" stroke="rgb(244,124,124)" stroke-width="2"/>
<rect x="594" y="322" width="28" height="28" rx="4" fill="rgb(255,205,205)" fill-opacity="0.82" stroke="rgb(244,124,124)" stroke-width="2"/>
<rect x="628" y="322" width="28" height="28" rx="4" fill="rgb(255,205,205)" fill-opacity="0.82" stroke="rgb(244,124,124)" stroke-width="2"/>
<rect x="662" y="322" width="28" height="28" rx="4" fill="rgb(255,205,205)" fill-opacity="0.82" stroke="rgb(244,124,124)" stroke-width="2"/>
<rect x="696" y="322" width="28" height="28" rx="4" fill="rgb(255,205,205)" fill-opacity="0.82" stroke="rgb(244,124,124)" stroke-width="2"/>
<rect x="730" y="322" width="28" height="28" rx="4" fill="rgb(255,205,205)" fill-opacity="0.82" stroke="rgb(244,124,124)" stroke-width="2"/>
<rect x="764" y="322" width="28" height="28" rx="4" fill="rgb(255,205,205)" fill-opacity="0.82" stroke="rgb(244,124,124)" stroke-width="2"/>
<rect x="424" y="356" width="28" height="28" rx="4" fill="rgb(197,225,255)" fill-opacity="0.82" stroke="rgb(80,150,235)" stroke-width="2"/>
<rect x="458" y="356" width="28" height="28" rx="4" fill="rgb(197,225,255)" fill-opacity="0.82" stroke="rgb(80,150,235)" stroke-width="2"/>
<rect x="492" y="356" width="28" height="28" rx="4" fill="rgb(197,225,255)" fill-opacity="0.82" stroke="rgb(80,150,235)" stroke-width="2"/>
<rect x="526" y="356" width="28" height="28" rx="4" fill="rgb(197,225,255)" fill-opacity="0.82" stroke="rgb(80,150,235)" stroke-width="2"/>
<rect x="560" y="356" width="28" height="28" rx="4" fill="rgb(255,205,205)" fill-opacity="0.82" stroke="rgb(244,124,124)" stroke-width="2"/>
<rect x="594" y="356" width="28" height="28" rx="4" fill="rgb(255,205,205)" fill-opacity="0.82" stroke="rgb(244,124,124)" stroke-width="2"/>
<rect x="628" y="356" width="28" height="28" rx="4" fill="rgb(255,205,205)" fill-opacity="0.82" stroke="rgb(244,124,124)" stroke-width="2"/>
<rect x="662" y="356" width="28" height="28" rx="4" fill="rgb(255,205,205)" fill-opacity="0.82" stroke="rgb(244,124,124)" stroke-width="2"/>
<rect x="696" y="356" width="28" height="28" rx="4" fill="rgb(255,205,205)" fill-opacity="0.82" stroke="rgb(244,124,124)" stroke-width="2"/>
<rect x="730" y="356" width="28" height="28" rx="4" fill="rgb(255,205,205)" fill-opacity="0.82" stroke="rgb(244,124,124)" stroke-width="2"/>
<rect x="764" y="356" width="28" height="28" rx="4" fill="rgb(255,205,205)" fill-opacity="0.82" stroke="rgb(244,124,124)" stroke-width="2"/>
<rect x="424" y="390" width="28" height="28" rx="4" fill="rgb(197,225,255)" fill-opacity="0.82" stroke="rgb(80,150,235)" stroke-width="2"/>
<rect x="458" y="390" width="28" height="28" rx="4" fill="rgb(197,225,255)" fill-opacity="0.82" stroke="rgb(80,150,235)" stroke-width="2"/>
<rect x="492" y="390" width="28" height="28" rx="4" fill="rgb(197,225,255)" fill-opacity="0.82" stroke="rgb(80,150,235)" stroke-width="2"/>
<rect x="526" y="390" width="28" height="28" rx="4" fill="rgb(197,225,255)" fill-opacity="0.82" stroke="rgb(80,150,235)" stroke-width="2"/>
<rect x="560" y="390" width="28" height="28" rx="4" fill="rgb(197,225,255)" fill-opacity="0.82" stroke="rgb(80,150,235)" stroke-width="2"/>
<rect x="594" y="390" width="28" height="28" rx="4" fill="rgb(255,205,205)" fill-opacity="0.82" stroke="rgb(244,124,124)" stroke-width="2"/>
<rect x="628" y="390" width="28" height="28" rx="4" fill="rgb(255,205,205)" fill-opacity="0.82" stroke="rgb(244,124,124)" stroke-width="2"/>
<rect x="662" y="390" width="28" height="28" rx="4" fill="rgb(255,205,205)" fill-opacity="0.82" stroke="rgb(244,124,124)" stroke-width="2"/>
<rect x="696" y="390" width="28" height="28" rx="4" fill="rgb(255,205,205)" fill-opacity="0.82" stroke="rgb(244,124,124)" stroke-width="2"/>
<rect x="424" y="424" width="28" height="28" rx="4" fill="rgb(197,225,255)" fill-opacity="0.82" stroke="rgb(80,150,235)" stroke-width="2"/>
<rect x="458" y="424" width="28" height="28" rx="4" fill="rgb(197,225,255)" fill-opacity="0.82" stroke="rgb(80,150,235)" stroke-width="2"/>
<rect x="492" y="424" width="28" height="28" rx="4" fill="rgb(197,225,255)" fill-opacity="0.82" stroke="rgb(80,150,235)" stroke-width="2"/>
<rect x="526" y="424" width="28" height="28" rx="4" fill="rgb(197,225,255)" fill-opacity="0.82" stroke="rgb(80,150,235)" stroke-width="2"/>
<rect x="560" y="424" width="28" height="28" rx="4" fill="rgb(197,225,255)" fill-opacity="0.82" stroke="rgb(80,150,235)" stroke-width="2"/>
<rect x="594" y="424" width="28" height="28" rx="4" fill="rgb(255,205,205)" fill-opacity="0.82" stroke="rgb(244,124,124)" stroke-width="2"/>
<rect x="628" y="424" width="28" height="28" rx="4" fill="rgb(255,205,205)" fill-opacity="0.82" stroke="rgb(244,124,124)" stroke-width="2"/>
<rect x="662" y="424" width="28" height="28" rx="4" fill="rgb(255,205,205)" fill-opacity="0.82" stroke="rgb(244,124,124)" stroke-width="2"/>
<rect x="696" y="424" width="28" height="28" rx="4" fill="rgb(255,205,205)" fill-opacity="0.82" stroke="rgb(244,124,124)" stroke-width="2"/>
<rect x="424" y="458" width="28" height="28" rx="4" fill="rgb(197,225,255)" fill-opacity="0.82" stroke="rgb(80,150,235)" stroke-width="2"/>
<rect x="458" y="458" width="28" height="28" rx="4" fill="rgb(197,225,255)" fill-opacity="0.82" stroke="rgb(80,150,235)" stroke-width="2"/>
<rect x="492" y="458" width="28" height="28" rx="4" fill="rgb(197,225,255)" fill-opacity="0.82" stroke="rgb(80,150,235)" stroke-width="2"/>
<rect x="594" y="458" width="28" height="28" rx="4" fill="rgb(255,205,205)" fill-opacity="0.82" stroke="rgb(244,124,124)" stroke-width="2"/>
<rect x="628" y="458" width="28" height="28" rx="4" fill="rgb(255,205,205)" fill-opacity="0.82" stroke="rgb(244,124,124)" stroke-width="2"/>
<rect x="662" y="458" width="28" height="28" rx="4" fill="rgb(255,205,205)" fill-opacity="0.82" stroke="rgb(244,124,124)" stroke-width="2"/>
<rect x="696" y="458" width="28" height="28" rx="4" fill="rgb(255,205,205)" fill-opacity="0.82" stroke="rgb(244,124,124)" stroke-width="2"/>
<rect x="730" y="458" width="28" height="28" rx="4" fill="rgb(255,205,205)" fill-opacity="0.82" stroke="rgb(244,124,124)" stroke-width="2"/>
<rect x="424" y="492" width="28" height="28" rx="4" fill="rgb(197,225,255)" fill-opacity="0.82" stroke="rgb(80,150,235)" stroke-width="2"/>
<rect x="458" y="492" width="28" height="28" rx="4" fill="rgb(197,225,255)" fill-opacity="0.82" stroke="rgb(80,150,235)" stroke-width="2"/>
<rect x="492" y="492" width="28" height="28" rx="4" fill="rgb(197,225,255)" fill-opacity="0.82" stroke="rgb(80,150,235)" stroke-width="2"/>
<rect x="594" y="492" width="28" height="28" rx="4" fill="rgb(255,205,205)" fill-opacity="0.82" stroke="rgb(244,124,124)" stroke-width="2"/>
<rect x="628" y="492" width="28" height="28" rx="4" fill="rgb(255,205,205)" fill-opacity="0.82" stroke="rgb(244,124,124)" stroke-width="2"/>
<rect x="662" y="492" width="28" height="28" rx="4" fill="rgb(255,205,205)" fill-opacity="0.82" stroke="rgb(244,124,124)" stroke-width="2"/>
<rect x="696" y="492" width="28" height="28" rx="4" fill="rgb(255,205,205)" fill-opacity="0.82" stroke="rgb(244,124,124)" stroke-width="2"/>
<rect x="730" y="492" width="28" height="28" rx="4" fill="rgb(255,205,205)" fill-opacity="0.82" stroke="rgb(244,124,124)" stroke-width="2"/>
<rect x="424" y="526" width="28" height="28" rx="4" fill="rgb(197,225,255)" fill-opacity="0.82" stroke="rgb(80,150,235)" stroke-width="2"/>
<rect x="458" y="526" width="28" height="28" rx="4" fill="rgb(197,225,255)" fill-opacity="0.82" stroke="rgb(80,150,235)" stroke-width="2"/>
<rect x="492" y="526" width="28" height="28" rx="4" fill="rgb(197,225,255)" fill-opacity="0.82" stroke="rgb(80,150,235)" stroke-width="2"/>
<rect x="594" y="526" width="28" height="28" rx="4" fill="rgb(255,205,205)" fill-opacity="0.82" stroke="rgb(244,124,124)" stroke-width="2"/>
<rect x="628" y="526" width="28" height="28" rx="4" fill="rgb(255,205,205)" fill-opacity="0.82" stroke="rgb(244,124,124)" stroke-width="2"/>
<rect x="662" y="526" width="28" height="28" rx="4" fill="rgb(255,205,205)" fill-opacity="0.82" stroke="rgb(244,124,124)" stroke-width="2"/>
<rect x="696" y="526" width="28" height="28" rx="4" fill="rgb(255,205,205)" fill-opacity="0.82" stroke="rgb(244,124,124)" stroke-width="2"/>
<rect x="424" y="560" width="28" height="28" rx="4" fill="rgb(197,225,255)" fill-opacity="0.82" stroke="rgb(80,150,235)" stroke-width="2"/>
<rect x="458" y="560" width="28" height="28" rx="4" fill="rgb(197,225,255)" fill-opacity="0.82" stroke="rgb(80,150,235)" stroke-width="2"/>
<rect x="492" y="560" width="28" height="28" rx="4" fill="rgb(197,225,255)" fill-opacity="0.82" stroke="rgb(80,150,235)" stroke-width="2"/>
<rect x="594" y="560" width="28" height="28" rx="4" fill="rgb(255,205,205)" fill-opacity="0.82" stroke="rgb(244,124,124)" stroke-width="2"/>
<rect x="628" y="560" width="28" height="28" rx="4" fill="rgb(255,205,205)" fill-opacity="0.82" stroke="rgb(244,124,124)" stroke-width="2"/>
<rect x="662" y="560" width="28" height="28" rx="4" fill="rgb(255,205,205)" fill-opacity="0.82" stroke="rgb(244,124,124)" stroke-width="2"/>
<rect x="696" y="560" width="28" height="28" rx="4" fill="rgb(255,205,205)" fill-opacity="0.82" stroke="rgb(244,124,124)" stroke-width="2"/>
<rect x="424" y="594" width="28" height="28" rx="4" fill="rgb(197,225,255)" fill-opacity="0.82" stroke="rgb(80,150,235)" stroke-width="2"/>
<rect x="458" y="594" width="28" height="28" rx="4" fill="rgb(197,225,255)" fill-opacity="0.82" stroke="rgb(80,150,235)" stroke-width="2"/>
<rect x="492" y="594" width="28" height="28" rx="4" fill="rgb(197,225,255)" fill-opacity="0.82" stroke="rgb(80,150,235)" stroke-width="2"/>
<rect x="594" y="594" width="28" height="28" rx="4" fill="rgb(255,205,205)" fill-opacity="0.82" stroke="rgb(244,124,124)" stroke-width="2"/>
<rect x="628" y="594" width="28" height="28" rx="4" fill="rgb(255,205,205)" fill-opacity="0.82" stroke="rgb(244,124,124)" stroke-width="2"/>
<rect x="662" y="594" width="28" height="28" rx="4" fill="rgb(255,205,205)" fill-opacity="0.82" stroke="rgb(244,124,124)" stroke-width="2"/>
<rect x="696" y="594" width="28" height="28" rx="4" fill="rgb(255,205,205)" fill-opacity="0.82" stroke="rgb(244,124,124)" stroke-width="2"/>
<rect x="424" y="628" width="28" height="28" rx="4" fill="rgb(197,225,255)" fill-opacity="0.82" stroke="rgb(80,150,235)" stroke-width="2"/>
<rect x="458" y="628" width="28" height="28" rx="4" fill="rgb(197,225,255)" fill-opacity="0.82" stroke="rgb(80,150,235)" stroke-width="2"/>
<rect x="492" y="628" width="28" height="28" rx="4" fill="rgb(197,225,255)" fill-opacity="0.82" stroke="rgb(80,150,235)" stroke-width="2"/>
<rect x="594" y="628" width="28" height="28" rx="4" fill="rgb(255,205,205)" fill-opacity="0.82" stroke="rgb(244,124,124)" stroke-width="2"/>
<rect x="628" y="628" width="28" height="28" rx="4" fill="rgb(255,205,205)" fill-opacity="0.82" stroke="rgb(244,124,124)" stroke-width="2"/>
<rect x="662" y="628" width="28" height="28" rx="4" fill="rgb(255,205,205)" fill-opacity="0.82" stroke="rgb(244,124,124)" stroke-width="2"/>
<rect x="696" y="628" width="28" height="28" rx="4" fill="rgb(255,205,205)" fill-opacity="0.82" stroke="rgb(244,124,124)" stroke-width="2"/>
<rect x="424" y="662" width="28" height="28" rx="4" fill="rgb(197,225,255)" fill-opacity="0.82" stroke="rgb(80,150,235)" stroke-width="2"/>
<rect x="458" y="662" width="28" height="28" rx="4" fill="rgb(197,225,255)" fill-opacity="0.82" stroke="rgb(80,150,235)" stroke-width="2"/>
<rect x="492" y="662" width="28" height="28" rx="4" fill="rgb(197,225,255)" fill-opacity="0.82" stroke="rgb(80,150,235)" stroke-width="2"/>
<rect x="594" y="662" width="28" height="28" rx="4" fill="rgb(255,205,205)" fill-opacity="0.82" stroke="rgb(244,124,124)" stroke-width="2"/>
<rect x="662" y="662" width="28" height="28" rx="4" fill="rgb(255,205,205)" fill-opacity="0.82" stroke="rgb(244,124,124)" stroke-width="2"/>
<rect x="696" y="662" width="28" height="28" rx="4" fill="rgb(255,205,205)" fill-opacity="0.82" stroke="rgb(244,124,124)" stroke-width="2"/>
<rect x="424" y="696" width="28" height="28" rx="4" fill="rgb(197,225,255)" fill-opacity="0.82" stroke="rgb(80,150,235)" stroke-width="2"/>
<rect x="458" y="696" width="28" height="28" rx="4" fill="rgb(197,225,255)" fill-opacity="0.82" stroke="rgb(80,150,235)" stroke-width="2"/>
<rect x="492" y="696" width="28" height="28" rx="4" fill="rgb(197,225,255)" fill-opacity="0.82" stroke="rgb(80,150,235)" stroke-width="2"/>
<rect x="594" y="696" width="28" height="28" rx="4" fill="rgb(255,205,205)" fill-opacity="0.82" stroke="rgb(244,124,124)" stroke-width="2"/>
<rect x="662" y="696" width="28" height="28" rx="4" fill="rgb(255,205,205)" fill-opacity="0.82" stroke="rgb(244,124,124)" stroke-width="2"/>
<rect x="696" y="696" width="28" height="28" rx="4" fill="rgb(255,205,205)" fill-opacity="0.82" stroke="rgb(244,124,124)" stroke-width="2"/>
<rect x="424" y="730" width="28" height="28" rx="4" fill="rgb(197,225,255)" fill-opacity="0.82" stroke="rgb(80,150,235)" stroke-width="2"/>
<rect x="492" y="730" width="28" height="28" rx="4" fill="rgb(197,225,255)" fill-opacity="0.82" stroke="rgb(80,150,235)" stroke-width="2"/>
<rect x="526" y="730" width="28" height="28" rx="4" fill="rgb(197,225,255)" fill-opacity="0.82" stroke="rgb(80,150,235)" stroke-width="2"/>
<rect x="594" y="730" width="28" height="28" rx="4" fill="rgb(255,205,205)" fill-opacity="0.82" stroke="rgb(244,124,124)" stroke-width="2"/>
<rect x="628" y="730" width="28" height="28" rx="4" fill="rgb(255,205,205)" fill-opacity="0.82" stroke="rgb(244,124,124)" stroke-width="2"/>
<rect x="662" y="730" width="28" height="28" rx="4" fill="rgb(255,205,205)" fill-opacity="0.82" stroke="rgb(244,124,124)" stroke-width="2"/>
<rect x="696" y="730" width="28" height="28" rx="4" fill="rgb(255,205,205)" fill-opacity="0.82" stroke="rgb(244,124,124)" stroke-width="2"/>
<rect x="730" y="730" width="28" height="28" rx="4" fill="rgb(255,205,205)" fill-opacity="0.82" stroke="rgb(244,124,124)" stroke-width="2"/>
<rect x="662" y="764" width="28" height="28" rx="4" fill="rgb(255,205,205)" fill-opacity="0.82" stroke="rgb(244,124,124)" stroke-width="2"/>
<rect x="696" y="764" width="28" height="28" rx="4" fill="rgb(255,205,205)" fill-opacity="0.82" stroke="rgb(244,124,124)" stroke-width="2"/>
</svg>