<svg xmlns="http://www.w3.org/2000/svg" width="706" height="502" viewBox="0 0 706 502">
<rect width="706" height="502" fill="rgb(248,250,252)"/>
<rect x="16" y="16" width="28" height="28" rx="4" fill="rgb(255,255,255)" stroke="rgb(203,213,225)" stroke-width="2"/>
<rect x="50" y="16" width="28" height="28" rx="4" fill="rgb(255,255,255)" stroke="rgb(203,213,225)" stroke-width="2"/>
<rect x="84" y="16" width="28" height="28" rx="4" fill="rgb(255,255,255)" stroke="rgb(203,213,225)" stroke-width="2"/>
<rect x="118" y="16" width="28" height="28" rx="4" fill="rgb(255,255,255)" stroke="rgb(203,213,225)" stroke-width="2"/>
<rect x="152" y="16" width="28" height="28" rx="4" fill="rgb(255,255,255)" stroke="rgb(203,213,225)" stroke-width="2"/>
<rect x="186" y="16" width="28" height="28" rx="4" fill="rgb(255,255,255)" stroke="rgb(203,213,225)" stroke-width="2"/>
<rect x="220" y="16" width="28" height="28" rx="4" fill="rgb(255,255,255)" stroke="rgb(203,213,225)" stroke-width="2"/>
<rect x="254" y="16" width="28" height="28" rx="4" fill="rgb(255,255,255)" stroke="rgb(203,213,225)" stroke-width="2"/>
<rect x="288" y="16" width="28" height="28" rx="4" fill="rgb(255,255,255)" stroke="rgb(203,213,225)" stroke-width="2"/>
<rect x="322" y="16" width="28" height="28" rx="4" fill="rgb(255,255,255)" stroke="rgb(203,213,225)" stroke-width="2"/>
<rect x="356" y="16" width="28" height="28" rx="4" fill="rgb(255,255,255)" stroke="rgb(203,213,225)" stroke-width="2"/>
<rect x="390" y="16" width="28" height="28" rx="4" fill="rgb(255,255,255)" stroke="rgb(203,213,225)" stroke-width="2"/>
<rect x="424" y="16" width="28" height="28" rx="4" fill="rgb(255,255,255)" stroke="rgb(203,213,225)" stroke-width="2"/>
<rect x="458" y="16" width="28" height="28" rx="4" fill="rgb(255,255,255)" stroke="rgb(203,213,225)" stroke-width="2"/>
<rect x="492" y="16" width="28" height="28" rx="4" fill="rgb(255,255,255)" stroke="rgb(203,213,225)" stroke-width="2"/>
<rect x="526" y="16" width="28" height="28" rx="4" fill="rgb(255,255,255)" stroke="rgb(203,213,225)" stroke-width="2"/>
<rect x="560" y="16" width="28" height="28" rx="4" fill="rgb(255,255,255)" stroke="rgb(203,213,225)" stroke-width="2"/>
<rect x="594" y="16" width="28" height="28" rx="4" fill="rgb(255,255,255)" stroke="rgb(203,213,225)" stroke-width="2"/>
<rect x="628" y="16" width="28" height="28" rx="4" fill="rgb(255,255,255)" stroke="rgb(203,213,225)" stroke-width="2"/>
<rect x="662" y="16" width="28" height="28" rx="4" fill="rgb(255,255,255)" stroke="rgb(203,213,225)" stroke-width="2"/>
<rect x="16" y="50" width="28" height="28" rx="4" fill="rgb(255,255,255)" stroke="rgb(203,213,225)" stroke-width="2"/>
<rect x="50" y="50" width="28" height="28" rx="4" fill="rgb(255,255,255)" stroke="rgb(203,213,225)" stroke-width="2"/>
<rect x="84" y="50" width="28" height="28" rx="4" fill="rgb(255,255,255)" stroke="rgb(203,213,225)" stroke-width="2"/>
<rect x="118" y="50" width="28" height="28" rx="4" fill="rgb(255,255,255)" stroke="rgb(203,213,225)" stroke-width="2"/>
<rect x="152" y="50" width="28" height="28" rx="4" fill="rgb(255,255,255)" stroke="rgb(203,213,225)" stroke-width="2"/>
<rect x="186" y="50" width="28" height="28" rx="4" fill="rgb(255,255,255)" stroke="rgb(203,213,225)" stroke-width="2"/>
<rect x="220" y="50" width="28" height="28" rx="4" fill="rgb(255,255,255)" stroke="rgb(203,213,225)" stroke-width="2"/>
<rect x="254" y="50" width="28" height="28" rx="4" fill="rgb(255,255,255)" stroke="rgb(203,213,225)" stroke-width="2"/>
<rect x="288" y="50" width="28" height="28" rx="4" fill="rgb(255,255,255)" stroke="rgb(203,213,225)" stroke-width="2"/>
<rect x="322" y="50" width="28" height="28" rx="4" fill="rgb(255,255,255)" stroke="rgb(203,213,225)" stroke-width="2"/>
<rect x="356" y="50" width="28" height="28" rx="4" fill="rgb(255,255,255)" stroke="rgb(203,213,225)" stroke-width="2"/>
<rect x="390" y="50" width="28" height="28" rx="4" fill="rgb(255,255,255)" stroke="rgb(203,213,225)" stroke-width="2"/>
<rect x="424" y="50" width="28" height="28" rx="4" fill="rgb(255,255,255)" stroke="rgb(203,213,225)" stroke-width="2"/>
<rect x="458" y="50" width="28" height="28" rx="4" fill="rgb(255,255,255)" stroke="rgb(203,213,225)" stroke-width="2"/>
<rect x="492" y="50" width="28" height="28" rx="4" fill="rgb(255,255,255)" stroke="rgb(203,213,225)" stroke-width="2"/>
<rect x="526" y="50" width="28" height="28" rx="4" fill="rgb(255,255,255)" stroke="rgb(203,213,225)" stroke-width="2"/>
<rect x="560" y="50" width="28" height="28" rx="4" fill="rgb(255,255,255)" stroke="rgb(203,213,225)" stroke-width="2"/>
<rect x="594" y="50" width="28" height="28" rx="4" fill="rgb(255,255,255)" stroke="rgb(203,213,225)" stroke-width="2"/>
<rect x="628" y="50" width="28" height="28" rx="4" fill="rgb(255,255,255)" stroke="rgb(203,213,225)" stroke-width="2"/>
<rect x="662" y="50" width="28" height="28" rx="4" fill="rgb(255,255,255)" stroke="rgb(203,213,225)" stroke-width="2"/>
<rect x="16" y="84" width="28" height="28" rx="4" fill="rgb(255,255,255)" stroke="rgb(203,213,225)" stroke-width="2"/>
<rect x="50" y="84" width="28" height="28" rx="4" fill="rgb(255,255,255)" stroke="rgb(203,213,225)" stroke-width="2"/>
<rect x="84" y="84" width="28" height="28" rx="4" fill="rgb(255,255,255)" stroke="rgb(203,213,225)" stroke-width="2"/>
<rect x="118" y="84" width="28" height="28" rx="4" fill="rgb(255,255,255)" stroke="rgb(203,213,225)" stroke-width="2"/>
<rect x="152" y="84" width="28" height="28" rx="4" fill="rgb(255,255,255)" stroke="rgb(203,213,225)" stroke-width="2"/>
<rect x="186" y="84" width="28" height="28" rx="4" fill="rgb(255,205,205)" stroke="rgb(244,124,124)" stroke-width="2"/>
<rect x="220" y="84" width="28" height="28" rx="4" fill="rgb(255,205,205)" stroke="rgb(244,124,124)" stroke-width="2"/>
<rect x="254" y="84" width="28" height="28" rx="4" fill="rgb(255,205,205)" stroke="rgb(244,124,124)" stroke-width="2"/>
<rect x="288" y="84" width="28" height="28" rx="4" fill="rgb(255,205,205)" stroke="rgb(244,124,124)" stroke-width="2"/>
<rect x="322" y="84" width="28" height="28" rx="4" fill="rgb(255,205,205)" stroke="rgb(244,124,124)" stroke-width="2"/>
<rect x="356" y="84" width="28" height="28" rx="4" fill="rgb(255,205,205)" stroke="rgb(244,124,124)" stroke-width="2"/>
<rect x="390" y="84" width="28" height="28" rx="4" fill="rgb(255,205,205)" stroke="rgb(244,124,124)" stroke-width="2"/>
<rect x="424" y="84" width="28" height="28" rx="4" fill="rgb(255,205,205)" stroke="rgb(244,124,124)" stroke-width="2"/>
<rect x="458" y="84" width="28" height="28" rx="4" fill="rgb(255,205,205)" stroke="rgb(244,124,124)" stroke-width="2"/>
<rect x="492" y="84" width="28" height="28" rx="4" fill="rgb(255,255,255)" stroke="rgb(203,213,225)" stroke-width="2"/>
<rect x="526" y="84" width="28" height="28" rx="4" fill="rgb(255,255,255)" stroke="rgb(203,213,225)" stroke-width="2"/>
<rect x="560" y="84" width="28" height="28" rx="4" fill="rgb(255,255,255)" stroke="rgb(203,213,225)" stroke-width="2"/>
<rect x="594" y="84" width="28" height="28" rx="4" fill="rgb(255,255,255)" stroke="rgb(203,213,225)" stroke-width="2"/>
<rect x="628" y="84" width="28" height="28" rx="4" fill="rgb(255,255,255)" stroke="rgb(203,213,225)" stroke-width="2"/>
<rect x="662" y="84" width="28" height="28" rx="4" fill="rgb(255,255,255)" stroke="rgb(203,213,225)" stroke-width="2"/>
<rect x="16" y="118" width="28" height="28" rx="4" fill="rgb(255,255,255)" stroke="rgb(203,213,225)" stroke-width="2"/>
<rect x="50" y="118" width="28" height="28" rx="4" fill="rgb(255,255,255)" stroke="rgb(203,213,225)" stroke-width="2"/>
<rect x="84" y="118" width="28" height="28" rx="4" fill="rgb(255,255,255)" stroke="rgb(203,213,225)" stroke-width="2"/>
<rect x="118" y="118" width="28" height="28" rx="4" fill="rgb(255,255,255)" stroke="rgb(203,213,225)" stroke-width="2"/>
<rect x="152" y="118" width="28" height="28" rx="4" fill="rgb(255,255,255)" stroke="rgb(203,213,225)" stroke-width="2"/>
<rect x="186" y="118" width="28" height="28" rx="4" fill="rgb(255,205,205)" stroke="rgb(244,124,124)" stroke-width="2"/>
<rect x="220" y="118" width="28" height="28" rx="4" fill="rgb(255,205,205)" stroke="rgb(244,124,124)" stroke-width="2"/>
<rect x="254" y="118" width="28" height="28" rx="4" fill="rgb(255,205,205)" stroke="rgb(244,124,124)" stroke-width="2"/>
<rect x="288" y="118" width="28" height="28" rx="4" fill="rgb(255,205,205)" stroke="rgb(244,124,124)" stroke-width="2"/>
<rect x="322" y="118" width="28" height="28" rx="4" fill="rgb(255,205,205)" stroke="rgb(244,124,124)" stroke-width="2"/>
<rect x="356" y="118" width="28" height="28" rx="4" fill="rgb(255,205,205)" stroke="rgb(244,124,124)" stroke-width="2"/>
<rect x="390" y="118" width="28" height="28" rx="4" fill="rgb(255,205,205)" stroke="rgb(244,124,124)" stroke-width="2"/>
<rect x="424" y="118" width="28" height="28" rx="4" fill="rgb(255,205,205)" stroke="rgb(244,124,124)" stroke-width="2"/>
<rect x="458" y="118" width="28" height="28" rx="4" fill="rgb(255,205,205)" stroke="rgb(244,124,124)" stroke-width="2"/>
<rect x="492" y="118" width="28" height="28" rx="4" fill="rgb(255,255,255)" stroke="rgb(203,213,225)" stroke-width="2"/>
<rect x="526" y="118" width="28" height="28" rx="4" fill="rgb(255,255,255)" stroke="rgb(203,213,225)" stroke-width="2"/>
<rect x="560" y="118" width="28" height="28" rx="4" fill="rgb(255,255,255)" stroke="rgb(203,213,225)" stroke-width="2"/>
<rect x="594" y="118" width="28" height="28" rx="4" fill="rgb(255,255,255)" stroke="rgb(203,213,225)" stroke-width="2"/>
<rect x="628" y="118" width="28" height="28" rx="4" fill="rgb(255,255,255)" stroke="rgb(203,213,225)" stroke-width="2"/>
<rect x="662" y="118" width="28" height="28" rx="4" fill="rgb(255,255,255)" stroke="rgb(203,213,225)" stroke-width="2"/>
<rect x="16" y="152" width="28" height="28" rx="4" fill="rgb(255,255,255)" stroke="rgb(203,213,225)" stroke-width="2"/>
<rect x="50" y="152" width="28" height="28" rx="4" fill="rgb(255,255,255)" stroke="rgb(203,213,225)" stroke-width="2"/>
<rect x="84" y="152" width="28" height="28" rx="4" fill="rgb(255,255,255)" stroke="rgb(203,213,225)" stroke-width="2"/>
<rect x="118" y="152" width="28" height="28" rx="4" fill="rgb(255,255,255)" stroke="rgb(203,213,225)" stroke-width="2"/>
<rect x="152" y="152" width="28" height="28" rx="4" fill="rgb(255,255,255)" stroke="rgb(203,213,225)" stroke-width="2"/>
<rect x="186" y="152" width="28" height="28" rx="4" fill="rgb(255,205,205)" stroke="rgb(244,124,124)" stroke-width="2"/>
<rect x="220" y="152" width="28" height="28" rx="4" fill="rgb(255,205,205)" stroke="rgb(244,124,124)" stroke-width="2"/>
<rect x="254" y="152" width="28" height="28" rx="4" fill="rgb(255,205,205)" stroke="rgb(244,124,124)" stroke-width="2"/>
<rect x="288" y="152" width="28" height="28" rx="4" fill="rgb(255,205,205)" stroke="rgb(244,124,124)" stroke-width="2"/>
<rect x="322" y="152" width="28" height="28" rx="4" fill="rgb(255,205,205)" stroke="rgb(244,124,124)" stroke-width="2"/>
<rect x="356" y="152" width="28" height="28" rx="4" fill="rgb(255,205,205)" stroke="rgb(244,124,124)" stroke-width="2"/>
<rect x="390" y="152" width="28" height="28" rx="4" fill="rgb(255,205,205)" stroke="rgb(244,124,124)" stroke-width="2"/>
<rect x="424" y="152" width="28" height="28" rx="4" fill="rgb(255,205,205)" stroke="rgb(244,124,124)" stroke-width="2"/>
<rect x="458" y="152" width="28" height="28" rx="4" fill="rgb(255,205,205)" stroke="rgb(244,124,124)" stroke-width="2"/>
<rect x="492" y="152" width="28" height="28" rx="4" fill="rgb(255,255,255)" stroke="rgb(203,213,225)" stroke-width="2"/>
<rect x="526" y="152" width="28" height="28" rx="4" fill="rgb(255,255,255)" stroke="rgb(203,213,225)" stroke-width="2"/>
<rect x="560" y="152" width="28" height="28" rx="4" fill="rgb(255,255,255)" stroke="rgb(203,213,225)" stroke-width="2"/>
<rect x="594" y="152" width="28" height="28" rx="4" fill="rgb(255,255,255)" stroke="rgb(203,213,225)" stroke-width="2"/>
<rect x="628" y="152" width="28" height="28" rx="4" fill="rgb(255,255,255)" stroke="rgb(203,213,225)" stroke-width="2"/>
<rect x="662" y="152" width="28" height="28" rx="4" fill="rgb(255,255,255)" stroke="rgb(203,213,225)" stroke-width="2"/>
<rect x="16" y="186" width="28" height="28" rx="4" fill="rgb(255,255,255)" stroke="rgb(203,213,225)" stroke-width="2"/>
<rect x="50" y="186" width="28" height="28" rx="4" fill="rgb(255,255,255)" stroke="rgb(203,213,225)" stroke-width="2"/>
<rect x="84" y="186" width="28" height="28" rx="4" fill="rgb(255,255,255)" stroke="rgb(203,213,225)" stroke-width="2"/>
<rect x="118" y="186" width="28" height="28" rx="4" fill="rgb(255,255,255)" stroke="rgb(203,213,225)" stroke-width="2"/>
<rect x="152" y="186" width="28" height="28" rx="4" fill="rgb(255,255,255)" stroke="rgb(203,213,225)" stroke-width="2"/>
<rect x="186" y="186" width="28" height="28" rx="4" fill="rgb(255,205,205)" stroke="rgb(244,124,124)" stroke-width="2"/>
<rect x="220" y="186" width="28" height="28" rx="4" fill="rgb(255,205,205)" stroke="rgb(244,124,124)" stroke-width="2"/>
<rect x="254" y="186" width="28" height="28" rx="4" fill="rgb(255,205,205)" stroke="rgb(244,124,124)" stroke-width="2"/>
<rect x="288" y="186" width="28" height="28" rx="4" fill="rgb(255,205,205)" stroke="rgb(244,124,124)" stroke-width="2"/>
<rect x="322" y="186" width="28" height="28" rx="4" fill="rgb(255,205,205)" stroke="rgb(244,124,124)" stroke-width="2"/>
<rect x="356" y="186" width="28" height="28" rx="4" fill="rgb(255,205,205)" stroke="rgb(244,124,124)" stroke-width="2"/>
<rect x="390" y="186" width="28" height="28" rx="4" fill="rgb(255,205,205)" stroke="rgb(244,124,124)" stroke-width="2"/>
<rect x="424" y="186" width="28" height="28" rx="4" fill="rgb(255,205,205)" stroke="rgb(244,124,124)" stroke-width="2"/>
<rect x="458" y="186" width="28" height="28" rx="4" fill="rgb(255,205,205)" stroke="rgb(244,124,124)" stroke-width="2"/>
<rect x="492" y="186" width="28" height="28" rx="4" fill="rgb(255,255,255)" stroke="rgb(203,213,225)" stroke-width="2"/>
<rect x="526" y="186" width="28" height="28" rx="4" fill="rgb(255,255,255)" stroke="rgb(203,213,225)" stroke-width="2"/>
<rect x="560" y="186" width="28" height="28" rx="4" fill="rgb(255,255,255)" stroke="rgb(203,213,225)" stroke-width="2"/>
<rect x="594" y="186" width="28" height="28" rx="4" fill="rgb(255,255,255)" stroke="rgb(203,213,225)" stroke-width="2"/>
<rect x="628" y="186" width="28" height="28" rx="4" fill="rgb(255,255,255)" stroke="rgb(203,213,225)" stroke-width="2"/>
<rect x="662" y="186" width="28" height="28" rx="4" fill="rgb(255,255,255)" stroke="rgb(203,213,225)" stroke-width="2"/>
<rect x="16" y="220" width="28" height="28" rx="4" fill="rgb(255,255,255)" stroke="rgb(203,213,225)" stroke-width="2"/>
<rect x="50" y="220" width="28" height="28" rx="4" fill="rgb(255,255,255)" stroke="rgb(203,213,225)" stroke-width="2"/>
<rect x="84" y="220" width="28" height="28" rx="4" fill="rgb(255,255,255)" stroke="rgb(203,213,225)" stroke-width="2"/>
<rect x="118" y="220" width="28" height="28" rx="4" fill="rgb(255,255,255)" stroke="rgb(203,213,225)" stroke-width="2"/>
<rect x="152" y="220" width="28" height="28" rx="4" fill="rgb(255,255,255)" stroke="rgb(203,213,225)" stroke-width="2"/>
<rect x="186" y="220" width="28" height="28" rx="4" fill="rgb(255,205,205)" stroke="rgb(244,124,124)" stroke-width="2"/>
<rect x="220" y="220" width="28" height="28" rx="4" fill="rgb(255,205,205)" stroke="rgb(244,124,124)" stroke-width="2"/>
<rect x="254" y="220" width="28" height="28" rx="4" fill="rgb(255,205,205)" stroke="rgb(244,124,124)" stroke-width="2"/>
<rect x="288" y="220" width="28" height="28" rx="4" fill="rgb(255,205,205)" stroke="rgb(244,124,124)" stroke-width="2"/>
<rect x="322" y="220" width="28" height="28" rx="4" fill="rgb(255,205,205)" stroke="rgb(244,124,124)" stroke-width="2"/>
<rect x="356" y="220" width="28" height="28" rx="4" fill="rgb(255,205,205)" stroke="rgb(244,124,124)" stroke-width="2"/>
<rect x="390" y="220" width="28" height="28" rx="4" fill="rgb(255,205,205)" stroke="rgb(244,124,124)" stroke-width="2"/>
<rect x="424" y="220" width="28" height="28" rx="4" fill="rgb(255,205,205)" stroke="rgb(244,124,124)" stroke-width="2"/>
<rect x="458" y="220" width="28" height="28" rx="4" fill="rgb(255,205,205)" stroke="rgb(244,124,124)" stroke-width="2"/>
<rect x="492" y="220" width="28" height="28" rx="4" fill="rgb(255,255,255)" stroke="rgb(203,213,225)" stroke-width="2"/>
<rect x="526" y="220" width="28" height="28" rx="4" fill="rgb(255,255,255)" stroke="rgb(203,213,225)" stroke-width="2"/>
<rect x="560" y="220" width="28" height="28" rx="4" fill="rgb(255,255,255)" stroke="rgb(203,213,225)" stroke-width="2"/>
<rect x="594" y="220" width="28" height="28" rx="4" fill="rgb(255,255,255)" stroke="rgb(203,213,225)" stroke-width="2"/>
<rect x="628" y="220" width="28" height="28" rx="4" fill="rgb(255,255,255)" stroke="rgb(203,213,225)" stroke-width="2"/>
<rect x="662" y="220" width="28" height="28" rx="4" fill="rgb(255,255,255)" stroke="rgb(203,213,225)" stroke-width="2"/>
<rect x="16" y="254" width="28" height="28" rx="4" fill="rgb(255,255,255)" stroke="rgb(203,213,225)" stroke-width="2"/>
<rect x="50" y="254" width="28" height="28" rx="4" fill="rgb(255,255,255)" stroke="rgb(203,213,225)" stroke-width="2"/>
<rect x="84" y="254" width="28" height="28" rx="4" fill="rgb(255,255,255)" stroke="rgb(203,213,225)" stroke-width="2"/>
<rect x="118" y="254" width="28" height="28" rx="4" fill="rgb(255,255,255)" stroke="rgb(203,213,225)" stroke-width="2"/>
<rect x="152" y="254" width="28" height="28" rx="4" fill="rgb(255,255,255)" stroke="rgb(203,213,225)" stroke-width="2"/>
<rect x="186" y="254" width="28" height="28" rx="4" fill="rgb(255,205,205)" stroke="rgb(244,124,124)" stroke-width="2"/>
<rect x="220" y="254" width="28" height="28" rx="4" fill="rgb(255,205,205)" stroke="rgb(244,124,124)" stroke-width="2"/>
<rect x="254" y="254" width="28" height="28" rx="4" fill="rgb(255,205,205)" stroke="rgb(244,124,124)" stroke-width="2"/>
<rect x="288" y="254" width="28" height="28" rx="4" fill="rgb(255,205,205)" stroke="rgb(244,124,124)" stroke-width="2"/>
<rect x="322" y="254" width="28" height="28" rx="4" fill="rgb(255,205,205)" stroke="rgb(244,124,124)" stroke-width="2"/>
<rect x="356" y="254" width="28" height="28" rx="4" fill="rgb(255,205,205)" stroke="rgb(244,124,124)" stroke-width="2"/>
<rect x="390" y="254" width="28" height="28" rx="4" fill="rgb(255,205,205)" stroke="rgb(244,124,124)" stroke-width="2"/>
<rect x="424" y="254" width="28" height="28" rx="4" fill="rgb(255,205,205)" stroke="rgb(244,124,124)" stroke-width="2"/>
<rect x="458" y="254" width="28" height="28" rx="4" fill="rgb(255,205,205)" stroke="rgb(244,124,124)" stroke-width="2"/>
<rect x="492" y="254" width="28" height="28" rx="4" fill="rgb(255,255,255)" stroke="rgb(203,213,225)" stroke-width="2"/>
<rect x="526" y="254" width="28" height="28" rx="4" fill="rgb(255,255,255)" stroke="rgb(203,213,225)" stroke-width="2"/>
<rect x="560" y="254" width="28" height="28" rx="4" fill="rgb(255,255,255)" stroke="rgb(203,213,225)" stroke-width="2"/>
<rect x="594" y="254" width="28" height="28" rx="4" fill="rgb(255,255,255)" stroke="rgb(203,213,225)" stroke-width="2"/>
<rect x="628" y="254" width="28" height="28" rx="4" fill="rgb(255,255,255)" stroke="rgb(203,213,225)" stroke-width="2"/>
<rect x="662" y="254" width="28" height="28" rx="4" fill="rgb(255,255,255)" stroke="rgb(203,213,225)" stroke-width="2"/>
<rect x="16" y="288" width="28" height="28" rx="4" fill="rgb(255,255,255)" stroke="rgb(203,213,225)" stroke-width="2"/>
<rect x="50" y="288" width="28" height="28" rx="4" fill="rgb(255,255,255)" stroke="rgb(203,213,225)" stroke-width="2"/>
<rect x="84" y="288" width="28" height="28" rx="4" fill="rgb(255,255,255)" stroke="rgb(203,213,225)" stroke-width="2"/>
<rect x="118" y="288" width="28" height="28" rx="4" fill="rgb(255,255,255)" stroke="rgb(203,213,225)" stroke-width="2"/>
<rect x="152" y="288" width="28" height="28" rx="4" fill="rgb(255,255,255)" stroke="rgb(203,213,225)" stroke-width="2"/>
<rect x="186" y="288" width="28" height="28" rx="4" fill="rgb(255,205,205)" stroke="rgb(244,124,124)" stroke-width="2"/>
<rect x="220" y="288" width="28" height="28" rx="4" fill="rgb(255,205,205)" stroke="rgb(244,124,124)" stroke-width="2"/>
<rect x="254" y="288" width="28" height="28" rx="4" fill="rgb(255,205,205)" stroke="rgb(244,124,124)" stroke-width="2"/>
<rect x="288" y="288" width="28" height="28" rx="4" fill="rgb(255,205,205)" stroke="rgb(244,124,124)" stroke-width="2"/>
<rect x="322" y="288" width="28" height="28" rx="4" fill="rgb(255,205,205)" stroke="rgb(244,124,124)" stroke-width="2"/>
<rect x="356" y="288" width="28" height="28" rx="4" fill="rgb(255,205,205)" stroke="rgb(244,124,124)" stroke-width="2"/>
<rect x="390" y="288" width="28" height="28" rx="4" fill="rgb(255,205,205)" stroke="rgb(244,124,124)" stroke-width="2"/>
<rect x="424" y="288" width="28" height="28" rx="4" fill="rgb(255,205,205)" stroke="rgb(244,124,124)" stroke-width="2"/>
<rect x="458" y="288" width="28" height="28" rx="4" fill="rgb(255,205,205)" stroke="rgb(244,124,124)" stroke-width="2"/>
<rect x="492" y="288" width="28" height="28" rx="4" fill="rgb(255,255,255)" stroke="rgb(203,213,225)" stroke-width="2"/>
<rect x="526" y="288" width="28" height="28" rx="4" fill="rgb(255,255,255)" stroke="rgb(203,213,225)" stroke-width="2"/>
<rect x="560" y="288" width="28" height="28" rx="4" fill="rgb(255,255,255)" stroke="rgb(203,213,225)" stroke-width="2"/>
<rect x="594" y="288" width="28" height="28" rx="4" fill="rgb(255,255,255)" stroke="rgb(203,213,225)" stroke-width="2"/>
<rect x="628" y="288" width="28" height="28" rx="4" fill="rgb(255,255,255)" stroke="rgb(203,213,225)" stroke-width="2"/>
<rect x="662" y="288" width="28" height="28" rx="4" fill="rgb(255,255,255)" stroke="rgb(203,213,225)" stroke-width="2"/>
<rect x="16" y="322" width="28" height="28" rx="4" fill="rgb(255,255,255)" stroke="rgb(203,213,225)" stroke-width="2"/>
<rect x="50" y="322" width="28" height="28" rx="4" fill="rgb(255,255,255)" stroke="rgb(203,213,225)" stroke-width="2"/>
<rect x="84" y="322" width="28" height="28" rx="4" fill="rgb(255,255,255)" stroke="rgb(203,213,225)" stroke-width="2"/>
<rect x="118" y="322" width="28" height="28" rx="4" fill="rgb(255,255,255)" stroke="rgb(203,213,225)" stroke-width="2"/>
<rect x="152" y="322" width="28" height="28" rx="4" fill="rgb(255,255,255)" stroke="rgb(203,213,225)" stroke-width="2"/>
<rect x="186" y="322" width="28" height="28" rx="4" fill="rgb(255,205,205)" stroke="rgb(244,124,124)" stroke-width="2"/>
<rect x="220" y="322" width="28" height="28" rx="4" fill="rgb(255,205,205)" stroke="rgb(244,124,124)" stroke-width="2"/>
<rect x="254" y="322" width="28" height="28" rx="4" fill="rgb(255,205,205)" stroke="rgb(244,124,124)" stroke-width="2"/>
<rect x="288" y="322" width="28" height="28" rx="4" fill="rgb(255,205,205)" stroke="rgb(244,124,124)" stroke-width="2"/>
<rect x="322" y="322" width="28" height="28" rx="4" fill="rgb(255,205,205)" stroke="rgb(244,124,124)" stroke-width="2"/>
<rect x="356" y="322" width="28" height="28" rx="4" fill="rgb(255,205,205)" stroke="rgb(244,124,124)" stroke-width="2"/>
<rect x="390" y="322" width="28" height="28" rx="4" fill="rgb(255,205,205)" stroke="rgb(244,124,124)" stroke-width="2"/>
<rect x="424" y="322" width="28" height="28" rx="4" fill="rgb(255,205,205)" stroke="rgb(244,124,124)" stroke-width="2"/>
<rect x="458" y="322" width="28" height="28" rx="4" fill="rgb(255,205,205)" stroke="rgb(244,124,124)" stroke-width="2"/>
<rect x="492" y="322" width="28" height="28" rx="4" fill="rgb(255,255,255)" stroke="rgb(203,213,225)" stroke-width="2"/>
<rect x="526" y="322" width="28" height="28" rx="4" fill="rgb(255,255,255)" stroke="rgb(203,213,225)" stroke-width="2"/>
<rect x="560" y="322" width="28" height="28" rx="4" fill="rgb(255,255,255)" stroke="rgb(203,213,225)" stroke-width="2"/>
<rect x="594" y="322" width="28" height="28" rx="4" fill="rgb(255,255,255)" stroke="rgb(203,213,225)" stroke-width="2"/>
<rect x="628" y="322" width="28" height="28" rx="4" fill="rgb(255,255,255)" stroke="rgb(203,213,225)" stroke-width="2"/>
<rect x="662" y="322" width="28" height="28" rx="4" fill="rgb(255,255,255)" stroke="rgb(203,213,225)" stroke-width="2"/>
<rect x="16" y="356" width="28" height="28" rx="4" fill="rgb(255,255,255)" stroke="rgb(203,213,225)" stroke-width="2"/>
<rect x="50" y="356" width="28" height="28" rx="4" fill="rgb(255,255,255)" stroke="rgb(203,213,225)" stroke-width="2"/>
<rect x="84" y="356" width="28" height="28" rx="4" fill="rgb(255,255,255)" stroke="rgb(203,213,225)" stroke-width="2"/>
<rect x="118" y="356" width="28" height="28" rx="4" fill="rgb(255,255,255)" stroke="rgb(203,213,225)" stroke-width="2"/>
<rect x="152" y="356" width="28" height="28" rx="4" fill="rgb(255,255,255)" stroke="rgb(203,213,225)" stroke-width="2"/>
<rect x="186" y="356" width="28" height="28" rx="4" fill="rgb(255,205,205)" stroke="rgb(244,124,124)" stroke-width="2"/>
<rect x="220" y="356" width="28" height="28" rx="4" fill="rgb(255,205,205)" stroke="rgb(244,124,124)" stroke-width="2"/>
<rect x="254" y="356" width="28" height="28" rx="4" fill="rgb(255,205,205)" stroke="rgb(244,124,124)" stroke-width="2"/>
<rect x="288" y="356" width="28" height="28" rx="4" fill="rgb(255,205,205)" stroke="rgb(244,124,124)" stroke-width="2"/>
<rect x="322" y="356" width="28" height="28" rx="4" fill="rgb(255,205,205)" stroke="rgb(244,124,124)" stroke-width="2"/>
<rect x="356" y="356" width="28" height="28" rx="4" fill="rgb(255,205,205)" stroke="rgb(244,124,124)" stroke-width="2"/>
<rect x="390" y="356" width="28" height="28" rx="4" fill="rgb(255,205,205)" stroke="rgb(244,124,124)" stroke-width="2"/>
<rect x="424" y="356" width="28" height="28" rx="4" fill="rgb(255,205,205)" stroke="rgb(244,124,124)" stroke-width="2"/>
<rect x="458" y="356" width="28" height="28" rx="4" fill="rgb(255,205,205)" stroke="rgb(244,124,124)" stroke-width="2"/>
<rect x="492" y="356" width="28" height="28" rx="4" fill="rgb(255,255,255)" stroke="rgb(203,213,225)" stroke-width="2"/>
<rect x="526" y="356" width="28" height="28" rx="4" fill="rgb(255,255,255)" stroke="rgb(203,213,225)" stroke-width="2"/>
<rect x="560" y="356" width="28" height="28" rx="4" fill="rgb(255,255,255)" stroke="rgb(203,213,225)" stroke-width="2"/>
<rect x="594" y="356" width="28" height="28" rx="4" fill="rgb(255,255,255)" stroke="rgb(203,213,225)" stroke-width="2"/>
<rect x="628" y="356" width="28" height="28" rx="4" fill="rgb(255,255,255)" stroke="rgb(203,213,225)" stroke-width="2"/>
<rect x="662" y="356" width="28" height="28" rx="4" fill="rgb(255,255,255)" stroke="rgb(203,213,225)" stroke-width="2"/>
<rect x="16" y="390" width="28" height="28" rx="4" fill="rgb(255,255,255)" stroke="rgb(203,213,225)" stroke-width="2"/>
<rect x="50" y="390" width="28" height="28" rx="4" fill="rgb(255,255,255)" stroke="rgb(203,213,225)" stroke-width="2"/>
<rect x="84" y="390" width="28" height="28" rx="4" fill="rgb(255,255,255)" stroke="rgb(203,213,225)" stroke-width="2"/>
<rect x="118" y="390" width="28" height="28" rx="4" fill="rgb(255,255,255)" stroke="rgb(203,213,225)" stroke-width="2"/>
<rect x="152" y="390" width="28" height="28" rx="4" fill="rgb(255,255,255)" stroke="rgb(203,213,225)" stroke-width="2"/>
<rect x="186" y="390" width="28" height="28" rx="4" fill="rgb(255,205,205)" stroke="rgb(244,124,124)" stroke-width="2"/>
<rect x="220" y="390" width="28" height="28" rx="4" fill="rgb(255,205,205)" stroke="rgb(244,124,124)" stroke-width="2"/>
<rect x="254" y="390" width="28" height="28" rx="4" fill="rgb(255,205,205)" stroke="rgb(244,124,124)" stroke-width="2"/>
<rect x="288" y="390" width="28" height="28" rx="4" fill="rgb(255,205,205)" stroke="rgb(244,124,124)" stroke-width="2"/>
<rect x="322" y="390" width="28" height="28" rx="4" fill="rgb(255,205,205)" stroke="rgb(244,124,124)" stroke-width="2"/>
<rect x="356" y="390" width="28" height="28" rx="4" fill="rgb(255,205,205)" stroke="rgb(244,124,124)" stroke-width="2"/>
<rect x="390" y="390" width="28" height="28" rx="4" fill="rgb(255,205,205)" stroke="rgb(244,124,124)" stroke-width="2"/>
<rect x="424" y="390" width="28" height="28" rx="4" fill="rgb(255,205,205)" stroke="rgb(244,124,124)" stroke-width="2"/>
<rect x="458" y="390" width="28" height="28" rx="4" fill="rgb(255,205,205)" stroke="rgb(244,124,124)" stroke-width="2"/>
<rect x="492" y="390" width="28" height="28" rx="4" fill="rgb(255,255,255)" stroke="rgb(203,213,225)" stroke-width="2"/>
<rect x="526" y="390" width="28" height="28" rx="4" fill="rgb(255,255,255)" stroke="rgb(203,213,225)" stroke-width="2"/>
<rect x="560" y="390" width="28" height="28" rx="4" fill="rgb(255,255,255)" stroke="rgb(203,213,225)" stroke-width="2"/>
<rect x="594" y="390" width="28" height="28" rx="4" fill="rgb(255,255,255)" stroke="rgb(203,213,225)" stroke-width="2"/>
<rect x="628" y="390" width="28" height="28" rx="4" fill="rgb(255,255,255)" stroke="rgb(203,213,225)" stroke-width="2"/>
<rect x="662" y="390" width="28" height="28" rx="4" fill="rgb(255,255,255)" stroke="rgb(203,213,225)" stroke-width="2"/>
<rect x="16" y="424" width="28" height="28" rx="4" fill="rgb(255,255,255)" stroke="rgb(203,213,225)" stroke-width="2"/>
<rect x="50" y="424" width="28" height="28" rx="4" fill="rgb(255,255,255)" stroke="rgb(203,213,225)" stroke-width="2"/>
<rect x="84" y="424" width="28" height="28" rx="4" fill="rgb(255,255,255)" stroke="rgb(203,213,225)" stroke-width="2"/>
<rect x="118" y="424" width="28" height="28" rx="4" fill="rgb(255,255,255)" stroke="rgb(203,213,225)" stroke-width="2"/>
<rect x="152" y="424" width="28" height="28" rx="4" fill="rgb(255,255,255)" stroke="rgb(203,213,225)" stroke-width="2"/>
<rect x="186" y="424" width="28" height="28" rx="4" fill="rgb(255,205,205)" stroke="rgb(244,124,124)" stroke-width="2"/>
<rect x="220" y="424" width="28" height="28" rx="4" fill="rgb(255,205,205)" stroke="rgb(244,124,124)" stroke-width="2"/>
<rect x="254" y="424" width="28" height="28" rx="4" fill="rgb(255,205,205)" stroke="rgb(244,124,124)" stroke-width="2"/>
<rect x="288" y="424" width="28" height="28" rx="4" fill="rgb(255,205,205)" stroke="rgb(244,124,124)" stroke-width="2"/>
<rect x="322" y="424" width="28" height="28" rx="4" fill="rgb(255,205,205)" stroke="rgb(244,124,124)" stroke-width="2"/>
<rect x="356" y="424" width="28" height="28" rx="4" fill="rgb(255,205,205)" stroke="rgb(244,124,124)" stroke-width="2"/>
<rect x="390" y="424" width="28" height="28" rx="4" fill="rgb(255,205,205)" stroke="rgb(244,124,124)" stroke-width="2"/>
<rect x="424" y="424" width="28" height="28" rx="4" fill="rgb(255,205,205)" stroke="rgb(244,124,124)" stroke-width="2"/>
<rect x="458" y="424" width="28" height="28" rx="4" fill="rgb(255,205,205)" stroke="rgb(244,124,124)" stroke-width="2"/>
<rect x="492" y="424" width="28" height="28" rx="4" fill="rgb(255,255,255)" stroke="rgb(203,213,225)" stroke-width="2"/>
<rect x="526" y="424" width="28" height="28" rx="4" fill="rgb(255,255,255)" stroke="rgb(203,213,225)" stroke-width="2"/>
<rect x="560" y="424" width="28" height="28" rx="4" fill="rgb(255,255,255)" stroke="rgb(203,213,225)" stroke-width="2"/>
<rect x="594" y="424" width="28" height="28" rx="4" fill="rgb(255,255,255)" stroke="rgb(203,213,225)" stroke-width="2"/>
<rect x="628" y="424" width="28" height="28" rx="4" fill="rgb(255,255,255)" stroke="rgb(203,213,225)" stroke-width="2"/>
<rect x="662" y="424" width="28" height="28" rx="4" fill="rgb(255,255,255)" stroke="rgb(203,213,225)" stroke-width="2"/>
<rect x="16" y="458" width="28" height="28" rx="4" fill="rgb(255,255,255)" stroke="rgb(203,213,225)" stroke-width="2"/>
<rect x="50" y="458" width="28" height="28" rx="4" fill="rgb(255,255,255)" stroke="rgb(203,213,225)" stroke-width="2"/>
<rect x="84" y="458" width="28" height="28" rx="4" fill="rgb(255,255,255)" stroke="rgb(203,213,225)" stroke-width="2"/>
<rect x="118" y="458" width="28" height="28" rx="4" fill="rgb(255,255,255)" stroke="rgb(203,213,225)" stroke-width="2"/>
<rect x="152" y="458" width="28" height="28" rx="4" fill="rgb(255,255,255)" stroke="rgb(203,213,225)" stroke-width="2"/>
<rect x="186" y="458" width="28" height="28" rx="4" fill="rgb(255,255,255)" stroke="rgb(203,213,225)" stroke-width="2"/>
<rect x="220" y="458" width="28" height="28" rx="4" fill="rgb(255,255,255)" stroke="rgb(203,213,225)" stroke-width="2"/>
<rect x="254" y="458" width="28" height="28" rx="4" fill="rgb(255,255,255)" stroke="rgb(203,213,225)" stroke-width="2"/>
<rect x="288" y="458" width="28" height="28" rx="4" fill="rgb(255,255,255)" stroke="rgb(203,213,225)" stroke-width="2"/>
<rect x="322" y="458" width="28" height="28" rx="4" fill="rgb(255,255,255)" stroke="rgb(203,213,225)" stroke-width="2"/>
<rect x="356" y="458" width="28" height="28" rx="4" fill="rgb(255,255,255)" stroke="rgb(203,213,225)" stroke-width="2"/>
<rect x="390" y="458" width="28" height="28" rx="4" fill="rgb(255,255,255)" stroke="rgb(203,213,225)" stroke-width="2"/>
<rect x="424" y="458" width="28" height="28" rx="4" fill="rgb(255,255,255)" stroke="rgb(203,213,225)" stroke-width="2"/>
<rect x="458" y="458" width="28" height="28" rx="4" fill="rgb(255,255,255)" stroke="rgb(203,213,225)" stroke-width="2"/>
<rect x="492" y="458" width="28" height="28" rx="4" fill="rgb(255,255,255)" stroke="rgb(203,213,225)" stroke-width="2"/>
<rect x="526" y="458" width="28" height="28" rx="4" fill="rgb(255,255,255)" stroke="rgb(203,213,225)" stroke-width="2"/>
<rect x="560" y="458" width="28" height="28" rx="4" fill="rgb(255,255,255)" stroke="rgb(203,213,225)" stroke-width="2"/>
<rect x="594" y="458" width="28" height="28" rx="4" fill="rgb(255,255,255)" stroke="rgb(203,213,225)" stroke-width="2"/>
<rect x="628" y="458" width="28" height="28" rx="4" fill="rgb(255,255,255)" stroke="rgb(203,213,225)" stroke-width="2"/>
<rect x="662" y="458" width="28" height="28" rx="4" fill="rgb(255,255,255)" stroke="rgb(203,213,225)" stroke-width="2"/>
</svg>