<svg xmlns="http://www.w3.org/2000/svg" width="808" height="502" viewBox="0 0 808 502">
<rect x="186" y="84" width="28" height="28" rx="4" fill="rgb(255,205,205)" fill-opacity="0.82" stroke="rgb(244,124,124)" stroke-width="2"/>
<rect x="220" y="84" width="28" height="28" rx="4" fill="rgb(255,205,205)" fill-opacity="0.82" stroke="rgb(244,124,124)" stroke-width="2"/>
<rect x="254" y="84" width="28" height="28" rx="4" fill="rgb(255,205,205)" fill-opacity="0.82" stroke="rgb(244,124,124)" stroke-width="2"/>
<rect x="492" y="84" width="28" height="28" rx="4" fill="rgb(197,225,255)" fill-opacity="0.82" stroke="rgb(80,150,235)" stroke-width="2"/>
<rect x="526" y="84" width="28" height="28" rx="4" fill="rgb(197,225,255)" fill-opacity="0.82" stroke="rgb(80,150,235)" stroke-width="2"/>
<rect x="186" y="118" width="28" height="28" rx="4" fill="rgb(255,205,205)" fill-opacity="0.82" stroke="rgb(244,124,124)" stroke-width="2"/>
<rect x="220" y="118" width="28" height="28" rx="4" fill="rgb(255,205,205)" fill-opacity="0.82" stroke="rgb(244,124,124)" stroke-width="2"/>
<rect x="254" y="118" width="28" height="28" rx="4" fill="rgb(255,205,205)" fill-opacity="0.82" stroke="rgb(244,124,124)" stroke-width="2"/>
<rect x="492" y="118" width="28" height="28" rx="4" fill="rgb(197,225,255)" fill-opacity="0.82" stroke="rgb(80,150,235)" stroke-width="2"/>
<rect x="526" y="118" width="28" height="28" rx="4" fill="rgb(197,225,255)" fill-opacity="0.82" stroke="rgb(80,150,235)" stroke-width="2"/>
<rect x="560" y="118" width="28" height="28" rx="4" fill="rgb(197,225,255)" fill-opacity="0.82" stroke="rgb(80,150,235)" stroke-width="2"/>
<rect x="186" y="152" width="28" height="28" rx="4" fill="rgb(255,205,205)" fill-opacity="0.82" stroke="rgb(244,124,124)" stroke-width="2"/>
<rect x="220" y="152" width="28" height="28" rx="4" fill="rgb(255,205,205)" fill-opacity="0.82" stroke="rgb(244,124,124)" stroke-width="2"/>
<rect x="254" y="152" width="28" height="28" rx="4" fill="rgb(255,205,205)" fill-opacity="0.82" stroke="rgb(244,124,124)" stroke-width="2"/>
<rect x="492" y="152" width="28" height="28" rx="4" fill="rgb(197,225,255)" fill-opacity="0.82" stroke="rgb(80,150,235)" stroke-width="2"/>
<rect x="526" y="152" width="28" height="28" rx="4" fill="rgb(197,225,255)" fill-opacity="0.82" stroke="rgb(80,150,235)" stroke-width="2"/>
<rect x="560" y="152" width="28" height="28" rx="4" fill="rgb(197,225,255)" fill-opacity="0.82" stroke="rgb(80,150,235)" stroke-width="2"/>
<rect x="152" y="186" width="28" height="28" rx="4" fill="rgb(255,205,205)" fill-opacity="0.82" stroke="rgb(244,124,124)" stroke-width="2"/>
<rect x="186" y="186" width="28" height="28" rx="4" fill="rgb(255,205,205)" fill-opacity="0.82" stroke="rgb(244,124,124)" stroke-width="2"/>
<rect x="220" y="186" width="28" height="28" rx="4" fill="rgb(255,205,205)" fill-opacity="0.82" stroke="rgb(244,124,124)" stroke-width="2"/>
<rect x="254" y="186" width="28" height="28" rx="4" fill="rgb(255,205,205)" fill-opacity="0.82" stroke="rgb(244,124,124)" stroke-width="2"/>
<rect x="288" y="186" width="28" height="28" rx="4" fill="rgb(255,205,205)" fill-opacity="0.82" stroke="rgb(244,124,124)" stroke-width="2"/>
<rect x="458" y="186" width="28" height="28" rx="4" fill="rgb(197,225,255)" fill-opacity="0.82" stroke="rgb(80,150,235)" stroke-width="2"/>
<rect x="492" y="186" width="28" height="28" rx="4" fill="rgb(197,225,255)" fill-opacity="0.82" stroke="rgb(80,150,235)" stroke-width="2"/>
<rect x="526" y="186" width="28" height="28" rx="4" fill="rgb(197,225,255)" fill-opacity="0.82" stroke="rgb(80,150,235)" stroke-width="2"/>
<rect x="560" y="186" width="28" height="28" rx="4" fill="rgb(197,225,255)" fill-opacity="0.82" stroke="rgb(80,150,235)" stroke-width="2"/>
<rect x="594" y="186" width="28" height="28" rx="4" fill="rgb(197,225,255)" fill-opacity="0.82" stroke="rgb(80,150,235)" stroke-width="2"/>
<rect x="152" y="220" width="28" height="28" rx="4" fill="rgb(255,205,205)" fill-opacity="0.82" stroke="rgb(244,124,124)" stroke-width="2"/>
<rect x="186" y="220" width="28" height="28" rx="4" fill="rgb(255,205,205)" fill-opacity="0.82" stroke="rgb(244,124,124)" stroke-width="2"/>
<rect x="220" y="220" width="28" height="28" rx="4" fill="rgb(255,205,205)" fill-opacity="0.82" stroke="rgb(244,124,124)" stroke-width="2"/>
<rect x="254" y="220" width="28" height="28" rx="4" fill="rgb(255,205,205)" fill-opacity="0.82" stroke="rgb(244,124,124)" stroke-width="2"/>
<rect x="288" y="220" width="28" height="28" rx="4" fill="rgb(255,205,205)" fill-opacity="0.82" stroke="rgb(244,124,124)" stroke-width="2"/>
<rect x="322" y="220" width="28" height="28" rx="4" fill="rgb(255,205,205)" fill-opacity="0.82" stroke="rgb(244,124,124)" stroke-width="2"/>
<rect x="424" y="220" width="28" height="28" rx="4" fill="rgb(197,225,255)" fill-opacity="0.82" stroke="rgb(80,150,235)" stroke-width="2"/>
<rect x="458" y="220" width="28" height="28" rx="4" fill="rgb(197,225,255)" fill-opacity="0.82" stroke="rgb(80,150,235)" stroke-width="2"/>
<rect x="492" y="220" width="28" height="28" rx="4" fill="rgb(197,225,255)" fill-opacity="0.82" stroke="rgb(80,150,235)" stroke-width="2"/>
<rect x="526" y="220" width="28" height="28" rx="4" fill="rgb(197,225,255)" fill-opacity="0.82" stroke="rgb(80,150,235)" stroke-width="2"/>
<rect x="560" y="220" width="28" height="28" rx="4" fill="rgb(197,225,255)" fill-opacity="0.82" stroke="rgb(80,150,235)" stroke-width="2"/>
<rect x="594" y="220" width="28" height="28" rx="4" fill="rgb(197,225,255)" fill-opacity="0.82" stroke="rgb(80,150,235)" stroke-width="2"/>
<rect x="628" y="220" width="28" height="28" rx="4" fill="rgb(197,225,255)" fill-opacity="0.82" stroke="rgb(80,150,235)" stroke-width="2"/>
<rect x="118" y="254" width="28" height="28" rx="4" fill="rgb(255,205,205)" fill-opacity="0.82" stroke="rgb(244,124,124)" stroke-width="2"/>
<rect x="152" y="254" width="28" height="28" rx="4" fill="rgb(255,205,205)" fill-opacity="0.82" stroke="rgb(244,124,124)" stroke-width="2"/>
<rect x="186" y="254" width="28" height="28" rx="4" fill="rgb(255,205,205)" fill-opacity="0.82" stroke="rgb(244,124,124)" stroke-width="2"/>
<rect x="220" y="254" width="28" height="28" rx="4" fill="rgb(255,205,205)" fill-opacity="0.82" stroke="rgb(244,124,124)" stroke-width="2"/>
<rect x="254" y="254" width="28" height="28" rx="4" fill="rgb(255,205,205)" fill-opacity="0.82" stroke="rgb(244,124,124)" stroke-width="2"/>
<rect x="288" y="254" width="28" height="28" rx="4" fill="rgb(255,205,205)" fill-opacity="0.82" stroke="rgb(244,124,124)" stroke-width="2"/>
<rect x="322" y="254" width="28" height="28" rx="4" fill="rgb(255,205,205)" fill-opacity="0.82" stroke="rgb(244,124,124)" stroke-width="2"/>
<rect x="424" y="254" width="28" height="28" rx="4" fill="rgb(197,225,255)" fill-opacity="0.82" stroke="rgb(80,150,235)" stroke-width="2"/>
<rect x="458" y="254" width="28" height="28" rx="4" fill="rgb(197,225,255)" fill-opacity="0.82" stroke="rgb(80,150,235)" stroke-width="2"/>
<rect x="492" y="254" width="28" height="28" rx="4" fill="rgb(197,225,255)" fill-opacity="0.82" stroke="rgb(80,150,235)" stroke-width="2"/>
<rect x="526" y="254" width="28" height="28" rx="4" fill="rgb(197,225,255)" fill-opacity="0.82" stroke="rgb(80,150,235)" stroke-width="2"/>
<rect x="560" y="254" width="28" height="28" rx="4" fill="rgb(197,225,255)" fill-opacity="0.82" stroke="rgb(80,150,235)" stroke-width="2"/>
<rect x="594" y="254" width="28" height="28" rx="4" fill="rgb(197,225,255)" fill-opacity="0.82" stroke="rgb(80,150,235)" stroke-width="2"/>
<rect x="628" y="254" width="28" height="28" rx="4" fill="rgb(197,225,255)" fill-opacity="0.82" stroke="rgb(80,150,235)" stroke-width="2"/>
<rect x="662" y="254" width="28" height="28" rx="4" fill="rgb(197,225,255)" fill-opacity="0.82" stroke="rgb(80,150,235)" stroke-width="2"/>
<rect x="118" y="288" width="28" height="28" rx="4" fill="rgb(255,205,205)" fill-opacity="0.82" stroke="rgb(244,124,124)" stroke-width="2"/>
<rect x="152" y="288" width="28" height="28" rx="4" fill="rgb(255,205,205)" fill-opacity="0.82" stroke="rgb(244,124,124)" stroke-width="2"/>
<rect x="186" y="288" width="28" height="28" rx="4" fill="rgb(255,205,205)" fill-opacity="0.82" stroke="rgb(244,124,124)" stroke-width="2"/>
<rect x="220" y="288" width="28" height="28" rx="4" fill="rgb(255,205,205)" fill-opacity="0.82" stroke="rgb(244,124,124)" stroke-width="2"/>
<rect x="254" y="288" width="28" height="28" rx="4" fill="rgb(255,205,205)" fill-opacity="0.82" stroke="rgb(244,124,124)" stroke-width="2"/>
<rect x="288" y="288" width="28" height="28" rx="4" fill="rgb(255,205,205)" fill-opacity="0.82" stroke="rgb(244,124,124)" stroke-width="2"/>
<rect x="458" y="288" width="28" height="28" rx="4" fill="rgb(197,225,255)" fill-opacity="0.82" stroke="rgb(80,150,235)" stroke-width="2"/>
<rect x="492" y="288" width="28" height="28" rx="4" fill="rgb(197,225,255)" fill-opacity="0.82" stroke="rgb(80,150,235)" stroke-width="2"/>
<rect x="526" y="288" width="28" height="28" rx="4" fill="rgb(197,225,255)" fill-opacity="0.82" stroke="rgb(80,150,235)" stroke-width="2"/>
<rect x="560" y="288" width="28" height="28" rx="4" fill="rgb(197,225,255)" fill-opacity="0.82" stroke="rgb(80,150,235)" stroke-width="2"/>
<rect x="594" y="288" width="28" height="28" rx="4" fill="rgb(197,225,255)" fill-opacity="0.82" stroke="rgb(80,150,235)" stroke-width="2"/>
<rect x="186" y="322" width="28" height="28" rx="4" fill="rgb(255,205,205)" fill-opacity="0.82" stroke="rgb(244,124,124)" stroke-width="2"/>
<rect x="220" y="322" width="28" height="28" rx="4" fill="rgb(255,205,205)" fill-opacity="0.82" stroke="rgb(244,124,124)" stroke-width="2"/>
<rect x="254" y="322" width="28" height="28" rx="4" fill="rgb(255,205,205)" fill-opacity="0.82" stroke="rgb(244,124,124)" stroke-width="2"/>
<rect x="288" y="322" width="28" height="28" rx="4" fill="rgb(255,205,205)" fill-opacity="0.82" stroke="rgb(244,124,124)" stroke-width="2"/>
<rect x="458" y="322" width="28" height="28" rx="4" fill="rgb(197,225,255)" fill-opacity="0.82" stroke="rgb(80,150,235)" stroke-width="2"/>
<rect x="492" y="322" width="28" height="28" rx="4" fill="rgb(197,225,255)" fill-opacity="0.82" stroke="rgb(80,150,235)" stroke-width="2"/>
<rect x="526" y="322" width="28" height="28" rx="4" fill="rgb(197,225,255)" fill-opacity="0.82" stroke="rgb(80,150,235)" stroke-width="2"/>
<rect x="560" y="322" width="28" height="28" rx="4" fill="rgb(197,225,255)" fill-opacity="0.82" stroke="rgb(80,150,235)" stroke-width="2"/>
<rect x="594" y="322" width="28" height="28" rx="4" fill="rgb(197,225,255)" fill-opacity="0.82" stroke="rgb(80,150,235)" stroke-width="2"/>
<rect x="152" y="356" width="28" height="28" rx="4" fill="rgb(255,205,205)" fill-opacity="0.82" stroke="rgb(244,124,124)" stroke-width="2"/>
<rect x="186" y="356" width="28" height="28" rx="4" fill="rgb(255,205,205)" fill-opacity="0.82" stroke="rgb(244,124,124)" stroke-width="2"/>
<rect x="254" y="356" width="28" height="28" rx="4" fill="rgb(255,205,205)" fill-opacity="0.82" stroke="rgb(244,124,124)" stroke-width="2"/>
<rect x="288" y="356" width="28" height="28" rx="4" fill="rgb(255,205,205)" fill-opacity="0.82" stroke="rgb(244,124,124)" stroke-width="2"/>
<rect x="458" y="356" width="28" height="28" rx="4" fill="rgb(197,225,255)" fill-opacity="0.82" stroke="rgb(80,150,235)" stroke-width="2"/>
<rect x="492" y="356" width="28" height="28" rx="4" fill="rgb(197,225,255)" fill-opacity="0.82" stroke="rgb(80,150,235)" stroke-width="2"/>
<rect x="560" y="356" width="28" height="28" rx="4" fill="rgb(197,225,255)" fill-opacity="0.82" stroke="rgb(80,150,235)" stroke-width="2"/>
<rect x="594" y="356" width="28" height="28" rx="4" fill="rgb(197,225,255)" fill-opacity="0.82" stroke="rgb(80,150,235)" stroke-width="2"/>
<rect x="152" y="390" width="28" height="28" rx="4" fill="rgb(255,205,205)" fill-opacity="0.82" stroke="rgb(244,124,124)" stroke-width="2"/>
<rect x="186" y="390" width="28" height="28" rx="4" fill="rgb(255,205,205)" fill-opacity="0.82" stroke="rgb(244,124,124)" stroke-width="2"/>
<rect x="288" y="390" width="28" height="28" rx="4" fill="rgb(255,205,205)" fill-opacity="0.82" stroke="rgb(244,124,124)" stroke-width="2"/>
<rect x="458" y="390" width="28" height="28" rx="4" fill="rgb(197,225,255)" fill-opacity="0.82" stroke="rgb(80,150,235)" stroke-width="2"/>
<rect x="492" y="390" width="28" height="28" rx="4" fill="rgb(197,225,255)" fill-opacity="0.82" stroke="rgb(80,150,235)" stroke-width="2"/>
<rect x="594" y="390" width="28" height="28" rx="4" fill="rgb(197,225,255)" fill-opacity="0.82" stroke="rgb(80,150,235)" stroke-width="2"/>
<rect x="152" y="424" width="28" height="28" rx="4" fill="rgb(255,205,205)" fill-opacity="0.82" stroke="rgb(244,124,124)" stroke-width="2"/>
<rect x="288" y="424" width="28" height="28" rx="4" fill="rgb(255,205,205)" fill-opacity="0.82" stroke="rgb(244,124,124)" stroke-width="2"/>
<rect x="322" y="424" width="28" height="28" rx="4" fill="rgb(255,205,205)" fill-opacity="0.82" stroke="rgb(244,124,124)" stroke-width="2"/>
<rect x="458" y="424" width="28" height="28" rx="4" fill="rgb(197,225,255)" fill-opacity="0.82" stroke="rgb(80,150,235)" stroke-width="2"/>
<rect x="594" y="424" width="28" height="28" rx="4" fill="rgb(197,225,255)" fill-opacity="0.82" stroke="rgb(80,150,235)" stroke-width="2"/>
<rect x="628" y="424" width="28" height="28" rx="4" fill="rgb(197,225,255)" fill-opacity="0.82" stroke="rgb(80,150,235)" stroke-width="2"/>
</svg>