ply
format ascii 1.0
element vertex 90
property float x
property float y
property float z
property uchar red
property uchar green
property uchar blue
end_header
-0.0889844 0.1898793 2.0388334 255 64 64
-0.0937959 0.2687708 2.1231303 255 64 64
-0.0810502 0.2954676 1.9983455 255 64 64
-0.1287518 0.0801009 2.0073211 255 64 64
-0.0814805 0.6333714 2.3017218 255 64 64
-0.1007951 0.7060452 2.0558527 255 64 64
-0.1104730 -0.0732196 1.9956120 255 64 64
-0.1298766 1.0491353 2.4088678 255 64 64
-0.2299912 1.0924218 2.2007480 255 64 64
-0.1000690 -0.1350935 1.9890033 255 64 64
-0.0212327 1.1032957 2.4858875 255 64 64
-0.1184888 1.1685525 2.1465468 255 64 64
-0.1271511 -0.3594216 1.9614661 255 64 64
-0.1221637 -0.2721880 2.0589888 255 64 64
-0.1296628 -0.2500071 1.8889306 255 64 64
-0.0650937 -0.4205383 1.9584097 255 64 64
-0.0905001 -0.3464477 2.1239860 255 64 64
-0.0810873 -0.2991352 1.8015676 255 64 64
0.0828474 -0.5459452 2.2153924 255 64 64
0.1094218 -0.4337836 1.6619114 255 64 64
0.0418290 -0.7430613 2.0375903 255 64 64
0.1035557 -0.7040224 1.7085562 255 64 64
0.0093021 -0.8278329 2.0261722 255 64 64
0.0995383 -0.7879339 1.6741052 255 64 64
0.0343079 -0.4824561 1.9360751 255 64 64
-0.0082814 -0.5010669 1.8895013 255 64 64
-0.0108401 -0.5262986 1.9525996 255 64 64
-0.0971188 -0.4530613 1.8574705 255 64 64
-0.1017991 -0.5088910 1.9995878 255 64 64
0.0602967 1.0913286 2.4793203 255 64 64
-0.0095160 1.0907485 2.5319383 255 64 64
-0.1967870 1.0878137 2.4144232 255 64 64
-0.0354022 1.1824771 2.1634548 255 64 64
-0.1121984 1.1973305 2.1104372 255 64 64
-0.2924763 1.1309479 2.2294915 255 64 64
-0.0216519 -0.8118117 1.9213978 255 64 64
-0.0469707 -0.9014945 1.9644994 255 64 64
-0.0474330 -0.9212927 1.9937763 255 64 64
-0.0313207 -0.9168789 2.0216231 255 64 64
-0.0009845 -0.8998759 2.0526395 255 64 64
0.0279146 -0.8243413 1.7532146 255 64 64
0.0604941 -0.8858778 1.6635863 255 64 64
0.0807577 -0.8878465 1.6338985 255 64 64
0.1062312 -0.8700130 1.6222224 255 64 64
0.1380579 -0.8355875 1.6213689 255 64 64
-0.1146324 0.1850681 2.1046076 64 255 128
-0.1130978 0.2622027 2.1896315 64 255 128
-0.1134683 0.2911074 2.0666232 64 255 128
-0.1537915 0.0756499 2.0751529 64 255 128
-0.0826109 0.6126195 2.3884935 64 255 128
-0.1406570 0.6957592 2.1445854 64 255 128
-0.1148290 -0.0725371 2.0548296 64 255 128
-0.1146118 1.0210701 2.5167756 64 255 128
-0.2426933 1.0854414 2.2938440 64 255 128
-0.1069211 -0.1334939 2.0429738 64 255 128
0.0012626 1.0802745 2.5749152 64 255 128
-0.1311193 1.1467390 2.2263410 64 255 128
-0.1360279 -0.3514471 1.9929228 64 255 128
-0.1214362 -0.2767435 2.0977151 64 255 128
-0.1453617 -0.2358408 1.9348952 64 255 128
-0.0869023 -0.4211995 1.9812623 64 255 128
-0.0713592 -0.3613915 2.1257105 64 255 128
-0.1036260 -0.3028111 1.8584759 64 255 128
0.1037141 -0.5737813 2.0893447 64 255 128
0.0691594 -0.4795900 1.7509394 64 255 128
0.0733623 -0.7200959 1.8692319 64 255 128
0.0957592 -0.7417794 1.8181291 64 255 128
0.0634174 -0.8039850 1.8371954 64 255 128
0.1240512 -0.8249149 1.7998787 64 255 128
0.0043151 -0.4802528 1.9355581 64 255 128
-0.0449326 -0.4891104 1.8929580 64 255 128
-0.0402639 -0.5247002 1.9500930 64 255 128
-0.1342334 -0.4346624 1.8822757 64 255 128
-0.1223839 -0.5120944 2.0113873 64 255 128
0.0804944 1.0689961 2.5579665 64 255 128
0.0199922 1.0703154 2.6181169 64 255 128
-0.1803870 1.0614550 2.5303736 64 255 128
-0.0464200 1.1513381 2.2355366 64 255 128
-0.1245646 1.1744936 2.1896005 64 255 128
-0.2966362 1.1313303 2.3275251 64 255 128
-0.0072633 -0.7758819 1.7575128 64 255 128
0.0102823 -0.8762668 1.7708201 64 255 128
0.0261264 -0.9013654 1.7894211 64 255 128
0.0502005 -0.8986884 1.8114331 64 255 128
0.0832108 -0.8796467 1.8360085 64 255 128
0.0336813 -0.8737651 1.8460455 64 255 128
0.1147928 -0.9299248 1.7896832 64 255 128
0.1455225 -0.9287921 1.7714530 64 255 128
0.1699464 -0.9059426 1.7697688 64 255 128
0.1906608 -0.8651532 1.7769276 64 255 128
