ply
format ascii 1.0
element vertex 45
property float x
property float y
property float z
property uchar red
property uchar green
property uchar blue
end_header
-1.3326120 -0.0533601 3.0335827 64 255 128
-1.2791755 -0.0038393 3.1198411 64 255 128
-1.4056673 -0.0118592 3.1052601 64 255 128
-1.3224705 -0.1283870 2.9603069 64 255 128
-1.2426264 0.3990738 3.1701818 64 255 128
-1.4943554 0.3894166 3.1587868 64 255 128
-1.3122783 -0.0812503 2.8329110 64 255 128
-1.2246413 0.8267739 3.2105970 64 255 128
-1.5506836 0.8107095 3.2210670 64 255 128
-1.3114151 -0.0532214 2.7840836 64 255 128
-1.1777805 0.9124320 3.1144662 64 255 128
-1.5890769 0.8854445 3.1131916 64 255 128
-1.3369409 -0.0699043 2.5672879 64 255 128
-1.2503955 -0.0637157 2.6541033 64 255 128
-1.3947654 -0.0894842 2.6724246 64 255 128
-1.3277447 -0.0198889 2.4939260 64 255 128
-1.1919378 0.0044778 2.6541641 64 255 128
-1.4784632 -0.0508609 2.6915774 64 255 128
-1.2267711 0.1657893 2.8786879 64 255 128
-1.5779141 0.0079112 2.9344592 64 255 128
-1.4174832 0.3355761 2.9160409 64 255 128
-1.6188457 0.2705459 2.9627531 64 255 128
-1.4631391 0.4007225 2.9427664 64 255 128
-1.6437424 0.3494650 2.9756343 64 255 128
-1.3711064 0.0402455 2.4103730 64 255 128
-1.3971102 -0.0140314 2.4012778 64 255 128
-1.3340628 -0.0016418 2.3821819 64 255 128
-1.3995692 -0.0899721 2.4647887 64 255 128
-1.2666608 -0.0584618 2.4303527 64 255 128
-1.2047476 0.9154085 3.0418773 64 255 128
-1.1391394 0.9133264 3.0868084 64 255 128
-1.2308252 0.8563040 3.2742851 64 255 128
-1.5595514 0.8968365 3.0402136 64 255 128
-1.6268004 0.9060249 3.0946612 64 255 128
-1.5473344 0.8445386 3.2853799 64 255 128
-1.5510292 0.3801505 2.9014010 64 255 128
-1.5479895 0.4679476 2.9333737 64 255 128
-1.5281137 0.4915720 2.9521224 64 255 128
-1.5002240 0.4853707 2.9678397 64 255 128
-1.4673569 0.4620430 2.9848866 64 255 128
-1.5697064 0.3923727 2.9258893 64 255 128
-1.6477766 0.4498550 2.9563684 64 255 128
-1.6760573 0.4505643 2.9744956 64 255 128
-1.6885618 0.4281844 2.9938126 64 255 128
-1.6941454 0.3896788 3.0155447 64 255 128
