ply
format ascii 1.0
element vertex 45
property float x
property float y
property float z
property uchar red
property uchar green
property uchar blue
end_header
-0.2318499 0.1750253 2.1113379 255 64 64
-0.2330467 0.2544380 2.1947956 255 64 64
-0.2286516 0.2797012 2.0688000 255 64 64
-0.2703496 0.0655935 2.0842223 255 64 64
-0.2218770 0.6211941 2.3681383 255 64 64
-0.2398191 0.6901349 2.1266398 255 64 64
-0.2543204 -0.0858467 2.0715466 255 64 64
-0.2833211 1.0338645 2.4784918 255 64 64
-0.3373830 1.0821455 2.2793133 255 64 64
-0.2387822 -0.1459833 2.0639174 255 64 64
-0.1753036 1.0922775 2.5518138 255 64 64
-0.2256029 1.1568402 2.2264385 255 64 64
-0.2557954 -0.3713886 2.0389240 255 64 64
-0.2486264 -0.2827238 2.1350505 255 64 64
-0.2712344 -0.2623649 1.9680870 255 64 64
-0.1814158 -0.4199101 2.0323067 255 64 64
-0.2113977 -0.3393044 2.2121866 255 64 64
-0.2442696 -0.2888175 1.8651557 255 64 64
-0.0082073 -0.4665118 2.3563843 255 64 64
-0.0824029 -0.3232692 1.6502229 255 64 64
0.0125773 -0.6996405 2.2267857 255 64 64
-0.0342412 -0.5917996 1.6610615 255 64 64
-0.0076079 -0.7880222 2.2228918 255 64 64
-0.0408823 -0.6757773 1.6299090 255 64 64
-0.0756542 -0.4697524 2.0040972 255 64 64
-0.1177228 -0.4947128 1.9613806 255 64 64
-0.1128621 -0.5181610 2.0252099 255 64 64
-0.2145818 -0.4599813 1.9354392 255 64 64
-0.2027020 -0.5113126 2.0776770 255 64 64
-0.0941117 1.0860264 2.5426211 255 64 64
-0.1617970 1.0794713 2.5968843 255 64 64
-0.3501189 1.0701439 2.4837830 255 64 64
-0.1425376 1.1643848 2.2419276 255 64 64
-0.2177316 1.1855986 2.1910555 255 64 64
-0.3974224 1.1210639 2.3107369 255 64 64
-0.0036210 -0.7943957 2.1147332 255 64 64
-0.0353328 -0.8769174 2.1639817 255 64 64
-0.0438224 -0.8911878 2.1949117 255 64 64
-0.0381498 -0.8798011 2.2243471 255 64 64
-0.0207866 -0.8539940 2.2587216 255 64 64
-0.0674030 -0.7172795 1.7292833 255 64 64
-0.0680570 -0.7759882 1.6346540 255 64 64
-0.0611692 -0.7765725 1.5996013 255 64 64
-0.0457689 -0.7561634 1.5790203 255 64 64
-0.0219355 -0.7182170 1.5656011 255 64 64
