ply
format ascii 1.0
element vertex 45
property float x
property float y
property float z
property uchar red
property uchar green
property uchar blue
end_header
-0.2661392 0.1613267 2.1838679 64 255 128
-0.2613714 0.2387708 2.2684896 64 255 128
-0.2741407 0.2671170 2.1460147 64 255 128
-0.3016716 0.0498115 2.1578846 64 255 128
-0.2380025 0.6041023 2.4395280 64 255 128
-0.3212426 0.6725711 2.2088532 64 255 128
-0.2629274 -0.0975587 2.1319730 64 255 128
-0.2668729 1.0181156 2.5493984 64 255 128
-0.4138801 1.0704333 2.3417649 64 255 128
-0.2521040 -0.1579938 2.1197548 64 255 128
-0.1411266 1.0738362 2.5867524 64 255 128
-0.3128506 1.1360043 2.2626684 64 255 128
-0.2866495 -0.3772831 2.0800734 64 255 128
-0.2704144 -0.2980421 2.1812277 64 255 128
-0.2928787 -0.2643884 2.0165508 64 255 128
-0.2229496 -0.4313750 2.0593109 64 255 128
-0.2532440 -0.3428259 2.2715402 64 255 128
-0.2769255 -0.2743863 1.9083272 64 255 128
-0.1471050 -0.4873034 2.4835382 64 255 128
-0.1863597 -0.2912364 1.6549826 64 255 128
-0.0693288 -0.7229812 2.3876970 64 255 128
-0.1029417 -0.5175650 1.5293561 64 255 128
-0.1011646 -0.8069056 2.3979826 64 255 128
-0.1341242 -0.5699215 1.4635422 64 255 128
-0.1403410 -0.5032271 2.0109334 64 255 128
-0.1949527 -0.5142121 1.9761568 64 255 128
-0.1846303 -0.5427603 2.0370264 64 255 128
-0.2812380 -0.4556604 1.9692850 64 255 128
-0.2574313 -0.5176594 2.1057713 64 255 128
-0.0643644 1.0674227 2.5581298 64 255 128
-0.1175670 1.0621269 2.6268930 64 255 128
-0.3283141 1.0583256 2.5707703 64 255 128
-0.2282284 1.1360978 2.2582760 64 255 128
-0.3112354 1.1601434 2.2235780 64 255 128
-0.4669350 1.1144804 2.3792491 64 255 128
-0.0738439 -0.8397002 2.3003843 64 255 128
-0.1263241 -0.9042023 2.3544195 64 255 128
-0.1434457 -0.9096712 2.3841653 64 255 128
-0.1437168 -0.8920604 2.4114704 64 255 128
-0.1323518 -0.8600342 2.4427311 64 255 128
-0.0975658 -0.6623104 1.5095612 64 255 128
-0.1606482 -0.6605965 1.4184659 64 255 128
-0.1773315 -0.6413491 1.3945212 64 255 128
-0.1756432 -0.6096556 1.3865914 64 255 128
-0.1633101 -0.5653081 1.3893409 64 255 128
