ply
format ascii 1.0
element vertex 45
property float x
property float y
property float z
property uchar red
property uchar green
property uchar blue
end_header
-1.3476509 -0.0478513 3.1932008 255 64 64
-1.2891821 -0.0042078 3.2788768 255 64 64
-1.4139433 0.0074397 3.2615020 255 64 64
-1.3483727 -0.1268598 3.1227777 255 64 64
-1.1697593 0.3827869 3.2362776 255 64 64
-1.4405093 0.4206125 3.2514160 255 64 64
-1.3248650 -0.0696070 2.9997656 255 64 64
-1.0838220 0.7974610 3.3064327 255 64 64
-1.4679651 0.8364124 3.3526552 255 64 64
-1.3132055 -0.0335153 2.9579129 255 64 64
-1.0226958 0.8973272 3.2352388 255 64 64
-1.5041612 0.9313924 3.2611086 255 64 64
-1.3006825 0.0027571 2.7429605 255 64 64
-1.2318044 -0.0287949 2.8394935 255 64 64
-1.3798093 -0.0253215 2.8308079 255 64 64
-1.2595559 0.0629825 2.6918211 255 64 64
-1.1804125 0.0441191 2.8531320 255 64 64
-1.4336444 0.0513990 2.8443410 255 64 64
-1.1570920 0.2879518 2.9844685 255 64 64
-1.5483882 0.2520267 2.9802630 255 64 64
-1.2882262 0.5035787 2.9307799 255 64 64
-1.4366887 0.4903879 2.9361470 255 64 64
-1.2876627 0.5801780 2.8963847 255 64 64
-1.4189694 0.5678837 2.9100056 255 64 64
-1.2447897 0.1554111 2.6345239 255 64 64
-1.2804799 0.1225521 2.5965228 255 64 64
-1.2145928 0.1113741 2.6025696 255 64 64
-1.3335994 0.0407504 2.6190708 255 64 64
-1.1938214 0.0199200 2.6370721 255 64 64
-1.0474188 0.9128585 3.1628528 255 64 64
-0.9846714 0.9011097 3.2102649 255 64 64
-1.0843493 0.8133737 3.3768086 255 64 64
-1.4736261 0.9678472 3.1955919 255 64 64
-1.5410588 0.9583324 3.2518740 255 64 64
-1.4663284 0.8564193 3.4224646 255 64 64
-1.3839726 0.6023684 2.8902364 255 64 64
-1.3358116 0.6628752 2.8397799 255 64 64
-1.3041635 0.6732477 2.8307056 255 64 64
-1.2763573 0.6620049 2.8435607 255 64 64
-1.2488799 0.6405616 2.8711698 255 64 64
-1.3219857 0.5603486 2.9085031 255 64 64
-1.3603134 0.6419263 2.8671360 255 64 64
-1.3888259 0.6597685 2.8628812 255 64 64
-1.4170882 0.6551708 2.8751073 255 64 64
-1.4505656 0.6363655 2.8963146 255 64 64
