ply
format ascii 1.0
element vertex 45
property float x
property float y
property float z
property uchar red
property uchar green
property uchar blue
end_header
0.7427236 -0.0953156 3.7096703 255 64 64
0.8072400 -0.0094934 3.7403188 255 64 64
0.6791768 -0.0162408 3.7507789 255 64 64
0.7442349 -0.1979574 3.6954815 255 64 64
0.8589551 0.3694251 3.7197318 255 64 64
0.5515130 0.3486048 3.6991560 255 64 64
0.7311806 -0.2970977 3.6065164 255 64 64
0.8352531 0.7217196 3.9095571 255 64 64
0.5602802 0.7271318 3.8300090 255 64 64
0.7218080 -0.3074716 3.5522852 255 64 64
0.8972881 0.8080702 3.8347950 255 64 64
0.4765069 0.7985146 3.7622027 255 64 64
0.6733683 -0.4711362 3.4290512 255 64 64
0.7658668 -0.4192291 3.4813473 255 64 64
0.6252981 -0.3972096 3.5057542 255 64 64
0.6787978 -0.4554327 3.3441656 255 64 64
0.8413783 -0.3952112 3.4455576 255 64 64
0.5538442 -0.3450442 3.4866951 255 64 64
0.9367096 -0.1551055 3.4273660 255 64 64
0.5015353 -0.1017329 3.4754009 255 64 64
0.8976645 -0.0230949 3.2301564 255 64 64
0.5024750 -0.0182992 3.2415051 255 64 64
0.9088253 0.0305169 3.1725483 255 64 64
0.5003992 0.0283758 3.1779513 255 64 64
0.6514518 -0.4473234 3.2346826 255 64 64
0.6177980 -0.4924520 3.2521772 255 64 64
0.6822550 -0.4986198 3.2382004 255 64 64
0.5993860 -0.5194463 3.3470502 255 64 64
0.7354807 -0.5288043 3.3183482 255 64 64
0.8934809 0.8246368 3.7645948 255 64 64
0.9414606 0.8123389 3.8244102 255 64 64
0.8215847 0.7354603 3.9703674 255 64 64
0.4704928 0.8197570 3.6922946 255 64 64
0.4357232 0.8120278 3.7637227 255 64 64
0.5867816 0.7524837 3.8870637 255 64 64
0.8250068 0.0728989 3.1753585 255 64 64
0.8724372 0.0924218 3.1016667 255 64 64
0.9036935 0.0886157 3.0868857 255 64 64
0.9292351 0.0743003 3.0982370 255 64 64
0.9551657 0.0576513 3.1295905 255 64 64
0.5934482 0.0329673 3.1662271 255 64 64
0.5385134 0.0662042 3.0983887 255 64 64
0.5056779 0.0746146 3.0914645 255 64 64
0.4797601 0.0738920 3.1074383 255 64 64
0.4514367 0.0676908 3.1422524 255 64 64
