ply
format ascii 1.0
element vertex 90
property float x
property float y
property float z
property uchar red
property uchar green
property uchar blue
end_header
0.7434457 -0.1178005 3.7000341 255 64 64
0.8076035 -0.0332300 3.7352979 255 64 64
0.6784957 -0.0375569 3.7371066 255 64 64
0.7440014 -0.2209777 3.6856716 255 64 64
0.8728305 0.3428165 3.7229650 255 64 64
0.5636461 0.3311380 3.6908631 255 64 64
0.7373565 -0.3242519 3.6003611 255 64 64
0.8522484 0.6886991 3.9225838 255 64 64
0.5699093 0.6999067 3.8449416 255 64 64
0.7312359 -0.3360610 3.5456998 255 64 64
0.9225536 0.7718513 3.8516479 255 64 64
0.4919776 0.7747816 3.7740049 255 64 64
0.6929469 -0.5062656 3.4265914 255 64 64
0.7816705 -0.4501580 3.4819655 255 64 64
0.6387287 -0.4298667 3.4972548 255 64 64
0.6995389 -0.4949787 3.3411016 255 64 64
0.8611685 -0.4249062 3.4563367 255 64 64
0.5658376 -0.3786033 3.4794080 255 64 64
0.9533995 -0.1839842 3.4521770 255 64 64
0.5012984 -0.1388990 3.4748509 255 64 64
0.9255766 -0.0569787 3.2506373 255 64 64
0.5060236 -0.0594284 3.2404747 255 64 64
0.9365674 -0.0019599 3.1943152 255 64 64
0.5035976 -0.0140567 3.1759953 255 64 64
0.6741893 -0.4925600 3.2304175 255 64 64
0.6424105 -0.5386187 3.2488308 255 64 64
0.7073181 -0.5421144 3.2364273 255 64 64
0.6232991 -0.5629011 3.3442674 255 64 64
0.7604606 -0.5665793 3.3187809 255 64 64
0.9228734 0.7897860 3.7814500 255 64 64
0.9674450 0.7738370 3.8433907 255 64 64
0.8363910 0.7023525 3.9827104 255 64 64
0.4925027 0.7996376 3.7049165 255 64 64
0.4509514 0.7874746 3.7723398 255 64 64
0.5919420 0.7226725 3.9049871 255 64 64
0.8513466 0.0376517 3.1962705 255 64 64
0.9000063 0.0600932 3.1243401 255 64 64
0.9317078 0.0576421 3.1103537 255 64 64
0.9572439 0.0436866 3.1218100 255 64 64
0.9831130 0.0268681 3.1532288 255 64 64
0.5960315 0.0032822 3.1734135 255 64 64
0.5434341 0.0279492 3.0998466 255 64 64
0.5106832 0.0316796 3.0897369 255 64 64
0.4837367 0.0273179 3.1030874 255 64 64
0.4533156 0.0175463 3.1351924 255 64 64
0.6919519 -0.1109924 3.7073817 64 255 128
0.7573918 -0.0225585 3.7317331 64 255 128
0.6281901 -0.0215598 3.7187405 64 255 128
0.6875703 -0.2154706 3.7153111 64 255 128
0.8346828 0.3529498 3.7397501 64 255 128
0.5304462 0.3551273 3.6855385 64 255 128
0.6854472 -0.3370635 3.6553288 64 255 128
0.7867382 0.7070848 3.9225507 64 255 128
0.5361886 0.7208936 3.8503692 64 255 128
0.6839584 -0.3419050 3.5987616 64 255 128
0.8532341 0.7895416 3.8463373 64 255 128
0.4690172 0.7921020 3.7649968 64 255 128
0.6621318 -0.4898262 3.4478858 64 255 128
0.7448547 -0.4372247 3.5154264 64 255 128
0.6008710 -0.4331825 3.5311375 64 255 128
0.6737764 -0.4474567 3.3726733 64 255 128
0.8174508 -0.3972343 3.4889808 64 255 128
0.5250494 -0.3859723 3.5147195 64 255 128
0.9023526 -0.1564344 3.4467542 64 255 128
0.4642952 -0.1462993 3.4832973 64 255 128
0.8642486 -0.0161405 3.2551844 64 255 128
0.4926760 -0.0159066 3.2736876 64 255 128
0.8640546 0.0484168 3.2083378 64 255 128
0.4837625 0.0426496 3.2210732 64 255 128
0.6605951 -0.3967930 3.2715335 64 255 128
0.6304879 -0.4466928 3.2638540 64 255 128
0.6964569 -0.4428152 3.2597697 64 255 128
0.6025082 -0.5118829 3.3356738 64 255 128
0.7416139 -0.5005202 3.3293071 64 255 128
0.8552392 0.7993944 3.7748199 64 255 128
0.8977072 0.7941256 3.8396094 64 255 128
0.7689400 0.7242690 3.9810147 64 255 128
0.4781258 0.8138973 3.6953819 64 255 128
0.4288056 0.8050755 3.7576375 64 255 128
0.5505103 0.7468184 3.9120424 64 255 128
0.7727821 0.0718823 3.2178566 64 255 128
0.8145480 0.1144865 3.1494694 64 255 128
0.8460518 0.1202740 3.1352880 64 255 128
0.8749295 0.1090379 3.1433129 64 255 128
0.9045824 0.0920858 3.1714137 64 255 128
0.5552872 0.0956900 3.2527752 64 255 128
0.5154532 0.1192636 3.1715589 64 255 128
0.4873035 0.1121304 3.1509480 64 255 128
0.4636635 0.0941143 3.1536064 64 255 128
0.4351155 0.0632633 3.1715705 64 255 128
