ply
format ascii 1.0
element vertex 90
property float x
property float y
property float z
property uchar red
property uchar green
property uchar blue
end_header
0.0689339 0.1776421 2.0654867 255 64 64
0.0654742 0.2553570 2.1506815 255 64 64
0.0781385 0.2833573 2.0262032 255 64 64
0.0278947 0.0693042 2.0329566 255 64 64
0.0884683 0.6149818 2.3387833 255 64 64
0.0554763 0.6931731 2.0885587 255 64 64
0.0422581 -0.0832760 2.0156336 255 64 64
0.0334416 1.0281452 2.4518855 255 64 64
-0.0883135 1.0745214 2.2324114 255 64 64
0.0465717 -0.1454341 2.0071366 255 64 64
0.1323794 1.0843146 2.5395727 255 64 64
0.0179079 1.1585510 2.1798592 255 64 64
0.0049336 -0.3663427 1.9727259 255 64 64
0.0159830 -0.2825932 2.0724907 255 64 64
0.0083002 -0.2545582 1.9043015 255 64 64
0.0634232 -0.4319069 1.9712938 255 64 64
0.0317998 -0.3656921 2.1314371 255 64 64
0.0374638 -0.3118234 1.8140633 255 64 64
0.1471572 -0.5962705 2.2392170 255 64 64
0.1678714 -0.4637716 1.6304921 255 64 64
0.1155551 -0.8139042 2.0857546 255 64 64
0.1772292 -0.7376098 1.6275995 255 64 64
0.0752758 -0.8955141 2.0782769 255 64 64
0.1620258 -0.8145555 1.5822514 255 64 64
0.1567819 -0.5021169 1.9452920 255 64 64
0.1113188 -0.5161052 1.8995918 255 64 64
0.1082736 -0.5419967 1.9623213 255 64 64
0.0258233 -0.4597478 1.8708704 255 64 64
0.0205932 -0.5169921 2.0118873 255 64 64
0.2145110 1.0724791 2.5417902 255 64 64
0.1391906 1.0710683 2.5849912 255 64 64
-0.0349453 1.0686698 2.4514496 255 64 64
0.1009521 1.1750081 2.1961548 255 64 64
0.0227185 1.1876600 2.1446762 255 64 64
-0.1529348 1.1107221 2.2629516 255 64 64
0.0640713 -0.8896537 1.9684756 255 64 64
0.0208626 -0.9702393 2.0157824 255 64 64
0.0134795 -0.9864206 2.0466897 255 64 64
0.0254128 -0.9803964 2.0767088 255 64 64
0.0523670 -0.9628093 2.1107056 255 64 64
0.1134775 -0.8649604 1.6709981 255 64 64
0.1186828 -0.9103655 1.5673125 255 64 64
0.1304203 -0.9070897 1.5327396 255 64 64
0.1525401 -0.8869542 1.5175254 255 64 64
0.1845152 -0.8518235 1.5132239 255 64 64
-0.0222152 0.1860607 2.0913930 64 255 128
-0.0279597 0.2624639 2.1768956 64 255 128
-0.0240864 0.2923652 2.0541863 64 255 128
-0.0550761 0.0752659 2.0594869 64 255 128
-0.0200147 0.6159170 2.3725362 64 255 128
-0.0660263 0.6948934 2.1364808 64 255 128
-0.0131699 -0.0722630 2.0402622 64 255 128
-0.0544320 1.0241582 2.5008581 64 255 128
-0.1539862 1.0899726 2.2804146 64 255 128
-0.0047625 -0.1332610 2.0289752 64 255 128
0.0572147 1.0823781 2.5676241 64 255 128
-0.0379182 1.1506506 2.2203383 64 255 128
-0.0353553 -0.3512950 1.9801782 64 255 128
-0.0228288 -0.2757510 2.0846345 64 255 128
-0.0414056 -0.2361591 1.9207958 64 255 128
0.0151484 -0.4201450 1.9690537 64 255 128
0.0134035 -0.3581216 2.1332045 64 255 128
-0.0045725 -0.2827055 1.8283646 64 255 128
0.1109404 -0.6142915 2.1773179 64 255 128
0.1080212 -0.4233464 1.6278341 64 255 128
0.1536741 -0.7565248 1.9565866 64 255 128
0.1750509 -0.6855234 1.6549542 64 255 128
0.1394402 -0.8319218 1.9088864 64 255 128
0.1909940 -0.7675502 1.6223592 64 255 128
0.0995618 -0.4885757 1.9219612 64 255 128
0.0486456 -0.4929195 1.8803618 64 255 128
0.0510048 -0.5284878 1.9379469 64 255 128
-0.0348086 -0.4302267 1.8709667 64 255 128
-0.0280988 -0.5073301 2.0008953 64 255 128
0.1382051 1.0700690 2.5594685 64 255 128
0.0703640 1.0706362 2.6120749 64 255 128
-0.1206274 1.0659872 2.5089326 64 255 128
0.0468945 1.1529291 2.2323120 64 255 128
-0.0295135 1.1785804 2.1849670 64 255 128
-0.2092033 1.1363106 2.3110728 64 255 128
0.1517721 -0.7847716 1.8106908 64 255 128
0.1221710 -0.8823733 1.8104073 64 255 128
0.1125558 -0.9101896 1.8290975 64 255 128
0.1152380 -0.9153589 1.8612317 64 255 128
0.1276118 -0.9092926 1.9051640 64 255 128
0.1558637 -0.8189915 1.7145747 64 255 128
0.1846825 -0.8726127 1.6202203 64 255 128
0.1966224 -0.8704599 1.5866362 64 255 128
0.2119679 -0.8464879 1.5699713 64 255 128
0.2293129 -0.8043903 1.5618540 64 255 128
