ply
format ascii 1.0
element vertex 45
property float x
property float y
property float z
property uchar red
property uchar green
property uchar blue
end_header
0.7389082 -0.0918034 3.6035056 255 64 64
0.8027845 -0.0081250 3.6395247 255 64 64
0.6750277 -0.0131734 3.6438794 255 64 64
0.7395840 -0.1936623 3.5864112 255 64 64
0.8547214 0.3721181 3.6380997 255 64 64
0.5575868 0.3571332 3.6015656 255 64 64
0.7338645 -0.2931588 3.4969172 255 64 64
0.8305513 0.7274778 3.8234472 255 64 64
0.5466058 0.7336755 3.7394948 255 64 64
0.7283457 -0.3038597 3.4424751 255 64 64
0.8919449 0.8155611 3.7502360 255 64 64
0.4687505 0.8072857 3.6672947 255 64 64
0.6928939 -0.4671845 3.3157983 255 64 64
0.7800889 -0.4131659 3.3740983 255 64 64
0.6380880 -0.3955414 3.3894875 255 64 64
0.7087428 -0.4505001 3.2324708 255 64 64
0.8584633 -0.3915399 3.3434038 255 64 64
0.5620571 -0.3496808 3.3727021 255 64 64
0.9341098 -0.1435670 3.3470826 255 64 64
0.5106508 -0.1081913 3.4067111 255 64 64
0.8997835 0.0001123 3.1567616 255 64 64
0.5253881 0.0185388 3.1933770 255 64 64
0.9129180 0.0545478 3.1004734 255 64 64
0.5332126 0.0759279 3.1400869 255 64 64
0.6970804 -0.4283062 3.1229634 255 64 64
0.6609870 -0.4743547 3.1299233 255 64 64
0.7265764 -0.4804019 3.1241419 255 64 64
0.6295268 -0.5121000 3.2169316 255 64 64
0.7675120 -0.5214452 3.2057071 255 64 64
0.8880985 0.8314812 3.6795919 255 64 64
0.9357318 0.8186950 3.7391260 255 64 64
0.8163339 0.7417259 3.8847466 255 64 64
0.4684090 0.8300217 3.5970252 255 64 64
0.4281914 0.8210085 3.6658316 255 64 64
0.5687072 0.7587156 3.7993231 255 64 64
0.8279518 0.0938005 3.0971544 255 64 64
0.8800436 0.1153620 3.0277619 255 64 64
0.9117393 0.1128820 3.0152721 255 64 64
0.9364178 0.0997183 3.0283716 255 64 64
0.9603037 0.0836120 3.0606084 255 64 64
0.6264454 0.0679304 3.1323380 255 64 64
0.5795704 0.1215515 3.0709074 255 64 64
0.5490850 0.1357235 3.0650244 255 64 64
0.5227807 0.1355998 3.0796628 255 64 64
0.4929555 0.1275768 3.1117110 255 64 64
