ply
format ascii 1.0
element vertex 45
property float x
property float y
property float z
property uchar red
property uchar green
property uchar blue
end_header
0.7095694 -0.0953995 3.6351471 64 255 128
0.7748702 -0.0051805 3.6522427 64 255 128
0.6450688 -0.0079653 3.6548374 64 255 128
0.7091995 -0.2000010 3.6426420 64 255 128
0.8399602 0.3727140 3.6541731 64 255 128
0.5319747 0.3654211 3.6363480 64 255 128
0.7035986 -0.3213158 3.5823214 64 255 128
0.8051124 0.7276052 3.8384666 64 255 128
0.5468515 0.7339723 3.7942581 64 255 128
0.6955485 -0.3261463 3.5263093 64 255 128
0.8594650 0.8105773 3.7536685 64 255 128
0.4673818 0.8000705 3.7156026 64 255 128
0.6608344 -0.4746731 3.3784740 64 255 128
0.7492169 -0.4194146 3.4359784 64 255 128
0.6080457 -0.4200721 3.4686091 64 255 128
0.6620858 -0.4313336 3.3029239 64 255 128
0.8172468 -0.3772474 3.4018807 64 255 128
0.5293241 -0.3753323 3.4616446 64 255 128
0.8904141 -0.1341573 3.3515840 64 255 128
0.4572457 -0.1380016 3.4371405 64 255 128
0.8304347 0.0078321 3.1669903 64 255 128
0.4545418 -0.0069870 3.2260199 64 255 128
0.8242399 0.0727784 3.1211004 64 255 128
0.4366984 0.0509076 3.1749671 64 255 128
0.6362597 -0.3806489 3.2040601 64 255 128
0.6064512 -0.4311732 3.1997619 64 255 128
0.6714304 -0.4259448 3.1880176 64 255 128
0.5881923 -0.4970741 3.2741745 64 255 128
0.7254367 -0.4829614 3.2515998 64 255 128
0.8533905 0.8201202 3.6824439 64 255 128
0.9029636 0.8168012 3.7423894 64 255 128
0.7940745 0.7443910 3.8981133 64 255 128
0.4665633 0.8178481 3.6445699 64 255 128
0.4265871 0.8125670 3.7130225 64 255 128
0.5679572 0.7617900 3.8525400 64 255 128
0.7340778 0.0943949 3.1403751 64 255 128
0.7676056 0.1384456 3.0685341 64 255 128
0.7974688 0.1448398 3.0510685 64 255 128
0.8273095 0.1340740 3.0559049 64 255 128
0.8600336 0.1174982 3.0807226 64 255 128
0.5095184 0.1067166 3.1972389 64 255 128
0.4589396 0.1283794 3.1218596 64 255 128
0.4285973 0.1200496 3.1050649 64 255 128
0.4061070 0.1011559 3.1107347 64 255 128
0.3811507 0.0691881 3.1322198 64 255 128
