ply
format ascii 1.0
element vertex 45
property float x
property float y
property float z
property uchar red
property uchar green
property uchar blue
end_header
-1.3063298 -0.0143765 3.0869524 255 64 64
-1.2370880 0.0494682 3.1478996 255 64 64
-1.3630538 0.0554462 3.1496818 255 64 64
-1.3146372 -0.1080095 3.0394032 255 64 64
-1.1358745 0.4366935 3.0959458 255 64 64
-1.3921957 0.4648394 3.1450748 255 64 64
-1.3174950 -0.1130013 2.9012766 255 64 64
-1.0535518 0.8498225 3.1485181 255 64 64
-1.3934447 0.8786110 3.2378483 255 64 64
-1.3189273 -0.0955819 2.8474405 255 64 64
-0.9988364 0.9419640 3.0644577 255 64 64
-1.4526147 0.9622439 3.1485562 255 64 64
-1.3509866 -0.1428339 2.6371143 255 64 64
-1.2626920 -0.1335371 2.7214987 255 64 64
-1.4080687 -0.1384912 2.7441235 255 64 64
-1.3333644 -0.0936071 2.5639777 255 64 64
-1.1967245 -0.0727607 2.7181988 255 64 64
-1.4815586 -0.0838345 2.7660396 255 64 64
-1.1483401 0.1441450 2.8809595 255 64 64
-1.5705914 0.0651489 2.9671831 255 64 64
-1.2782310 0.3632622 2.8588648 255 64 64
-1.5307961 0.3258657 2.9472420 255 64 64
-1.2859786 0.4445019 2.8412809 255 64 64
-1.5410396 0.4075775 2.9357407 255 64 64
-1.3425082 -0.0106733 2.4907289 255 64 64
-1.3814188 -0.0518919 2.4678276 255 64 64
-1.3154007 -0.0564180 2.4591401 255 64 64
-1.4169974 -0.1325783 2.5142426 255 64 64
-1.2769561 -0.1384251 2.5003037 255 64 64
-1.0223719 0.9542960 2.9915485 255 64 64
-0.9598733 0.9439156 3.0395892 255 64 64
-1.0539992 0.8712867 3.2152290 255 64 64
-1.4402369 0.9892254 3.0740685 255 64 64
-1.4914721 0.9857062 3.1444468 255 64 64
-1.3769690 0.9044116 3.3024845 255 64 64
-1.3825365 0.4541526 2.8344851 255 64 64
-1.3399940 0.5282868 2.8014684 255 64 64
-1.3098636 0.5435735 2.7970629 255 64 64
-1.2825549 0.5332931 2.8085814 255 64 64
-1.2542343 0.5099536 2.8315473 255 64 64
-1.4513834 0.4261829 2.9035959 255 64 64
-1.5197277 0.4982907 2.8967686 255 64 64
-1.5506408 0.5073738 2.9053185 255 64 64
-1.5708939 0.4931083 2.9233875 255 64 64
-1.5892522 0.4630184 2.9488060 255 64 64
