ply
format ascii 1.0
element vertex 90
property float x
property float y
property float z
property uchar red
property uchar green
property uchar blue
end_header
-1.3299521 0.0074454 2.9942880 255 64 64
-1.2619059 0.0652855 3.0626216 255 64 64
-1.3884124 0.0736146 3.0598230 255 64 64
-1.3377240 -0.0819167 2.9394979 255 64 64
-1.1489667 0.4491591 3.0061181 255 64 64
-1.4118212 0.4832559 3.0355453 255 64 64
-1.3371143 -0.0707552 2.8028629 255 64 64
-1.0524395 0.8604160 3.0590274 255 64 64
-1.4213204 0.9022274 3.1079347 255 64 64
-1.3372631 -0.0502468 2.7503605 255 64 64
-0.9866368 0.9492782 2.9795444 255 64 64
-1.4741759 0.9822147 3.0116894 255 64 64
-1.3743221 -0.0873124 2.5385695 255 64 64
-1.2840800 -0.0821830 2.6211505 255 64 64
-1.4289696 -0.0876074 2.6467571 255 64 64
-1.3513743 -0.0440565 2.4640784 255 64 64
-1.2387972 -0.0060688 2.6070957 255 64 64
-1.4890199 -0.0165468 2.6597309 255 64 64
-1.2402091 0.2539865 2.7003644 255 64 64
-1.5582517 0.1932932 2.8087697 255 64 64
-1.3552257 0.4791465 2.6597192 255 64 64
-1.5452772 0.4551288 2.7700059 255 64 64
-1.3529050 0.5584753 2.6340332 255 64 64
-1.5667485 0.5341878 2.7557294 255 64 64
-1.3543773 0.0299857 2.3823862 255 64 64
-1.3949698 -0.0113157 2.3628583 255 64 64
-1.3290631 -0.0204853 2.3571835 255 64 64
-1.4365871 -0.0844069 2.4169164 255 64 64
-1.2967347 -0.0991548 2.4088111 255 64 64
-1.0050256 0.9602289 2.9052777 255 64 64
-0.9465834 0.9484105 2.9570827 255 64 64
-1.0542040 0.8826139 3.1268311 255 64 64
-1.4566571 1.0081316 2.9381104 255 64 64
-1.5122056 1.0071790 3.0050075 255 64 64
-1.4089274 0.9307690 3.1725702 255 64 64
-1.4476497 0.5839851 2.6352625 255 64 64
-1.3991178 0.6476614 2.5893166 255 64 64
-1.3673315 0.6575148 2.5799899 255 64 64
-1.3394904 0.6440220 2.5899348 255 64 64
-1.3125777 0.6189674 2.6142678 255 64 64
-1.4820050 0.5651076 2.7210982 255 64 64
-1.5583782 0.6272401 2.7120655 255 64 64
-1.5908248 0.6323751 2.7208993 255 64 64
-1.6088922 0.6162877 2.7405863 255 64 64
-1.6230302 0.5844517 2.7677746 255 64 64
-1.2878404 -0.0347716 2.9710703 64 255 128
-1.2259505 0.0186959 3.0489106 64 255 128
-1.3533300 0.0118333 3.0468075 64 255 128
-1.2854680 -0.1139577 2.9016068 64 255 128
-1.1961879 0.4244014 3.0758598 64 255 128
-1.4507996 0.4138231 3.0724361 64 255 128
-1.2941897 -0.0703242 2.7728612 64 255 128
-1.1906585 0.8501732 3.1356263 64 255 128
-1.5218937 0.8336004 3.1296372 64 255 128
-1.3015090 -0.0467021 2.7222753 64 255 128
-1.1405206 0.9345443 3.0400121 64 255 128
-1.5555052 0.9009658 3.0154943 64 255 128
-1.3712575 -0.0781106 2.5171437 64 255 128
-1.2686450 -0.0677691 2.5836949 64 255 128
-1.4063456 -0.0888670 2.6330485 64 255 128
-1.3763664 -0.0475097 2.4334447 64 255 128
-1.2288932 0.0082251 2.5570056 64 255 128
-1.4835668 -0.0424190 2.6603138 64 255 128
-1.2845211 0.2226284 2.7260695 64 255 128
-1.5774388 0.1080037 2.8625443 64 255 128
-1.4497896 0.4004895 2.8135087 64 255 128
-1.6597887 0.3605023 2.8928075 64 255 128
-1.4842442 0.4743990 2.8333340 64 255 128
-1.7044951 0.4303567 2.9044564 64 255 128
-1.4215490 0.0050799 2.3463531 64 255 128
-1.4482279 -0.0498463 2.3426092 64 255 128
-1.3857436 -0.0395283 2.3210089 64 255 128
-1.4495748 -0.1194780 2.4130442 64 255 128
-1.3183594 -0.0922345 2.3722680 64 255 128
-1.1650373 0.9308167 2.9669402 64 255 128
-1.1015352 0.9334984 3.0141184 64 255 128
-1.1946967 0.8801892 3.2008162 64 255 128
-1.5239841 0.9132872 2.9429667 64 255 128
-1.5919137 0.9241232 2.9977951 64 255 128
-1.5185187 0.8723248 3.1918416 64 255 128
-1.5756506 0.4454930 2.8603549 64 255 128
-1.5710089 0.5386169 2.8479242 64 255 128
-1.5492789 0.5658375 2.8413205 64 255 128
-1.5161072 0.5647223 2.8394880 64 255 128
-1.4758393 0.5481219 2.8431509 64 255 128
-1.6472921 0.4900697 2.8503418 64 255 128
-1.7368398 0.5259822 2.8828797 64 255 128
-1.7640619 0.5196950 2.9017134 64 255 128
-1.7690061 0.4960729 2.9227469 64 255 128
-1.7630862 0.4586239 2.9455385 64 255 128
