ply
format ascii 1.0
element vertex 45
property float x
property float y
property float z
property uchar red
property uchar green
property uchar blue
end_header
0.6813240 -0.1169840 3.7427747 64 255 128
0.7467089 -0.0293168 3.7698894 64 255 128
0.6184270 -0.0265091 3.7499201 64 255 128
0.6749125 -0.2213079 3.7513287 64 255 128
0.8309550 0.3446505 3.7796667 64 255 128
0.5256804 0.3505495 3.7077985 64 255 128
0.6743678 -0.3430472 3.6916089 64 255 128
0.7740435 0.6968874 3.9635592 64 255 128
0.5279770 0.7142760 3.8771641 64 255 128
0.6759883 -0.3480882 3.6350627 64 255 128
0.8460865 0.7791879 3.8923852 64 255 128
0.4665234 0.7862889 3.7882338 64 255 128
0.6613109 -0.4967088 3.4840097 64 255 128
0.7405825 -0.4444698 3.5558345 64 255 128
0.5959861 -0.4389980 3.5633469 64 255 128
0.6779591 -0.4555025 3.4090927 64 255 128
0.8152134 -0.4054193 3.5340610 64 255 128
0.5217414 -0.3907983 3.5430546 64 255 128
0.9073849 -0.1665616 3.4962804 64 255 128
0.4646814 -0.1504673 3.5097873 64 255 128
0.8806037 -0.0266799 3.3025045 64 255 128
0.5082594 -0.0222893 3.3014238 64 255 128
0.8835514 0.0373564 3.2550392 64 255 128
0.5037110 0.0357633 3.2477045 64 255 128
0.6718048 -0.4057632 3.3067846 64 255 128
0.6415257 -0.4553302 3.2977223 64 255 128
0.7076637 -0.4523869 3.2977188 64 255 128
0.6082284 -0.5193567 3.3683519 64 255 128
0.7475891 -0.5099267 3.3704560 64 255 128
0.8524603 0.7897295 3.8211977 64 255 128
0.8908741 0.7832435 3.8883536 64 255 128
0.7530311 0.7136724 4.0211315 64 255 128
0.4799067 0.8082732 3.7193706 64 255 128
0.4269206 0.7995700 3.7786012 64 255 128
0.5389442 0.7398621 3.9396853 64 255 128
0.7922614 0.0621781 3.2599661 64 255 128
0.8378452 0.1034304 3.1932096 64 255 128
0.8700568 0.1086458 3.1804616 64 255 128
0.8983340 0.0971253 3.1899900 64 255 128
0.9263652 0.0800594 3.2196178 64 255 128
0.5738340 0.0881411 3.2835188 64 255 128
0.5397463 0.1112483 3.1995633 64 255 128
0.5129163 0.1042999 3.1772194 64 255 128
0.4888790 0.0866768 3.1785169 64 255 128
0.4587605 0.0564668 3.1948798 64 255 128
