ply
format ascii 1.0
element vertex 45
property float x
property float y
property float z
property uchar red
property uchar green
property uchar blue
end_header
0.6919519 -0.1109924 3.7073817 64 255 128
0.7573918 -0.0225585 3.7317331 64 255 128
0.6281901 -0.0215598 3.7187405 64 255 128
0.6875703 -0.2154706 3.7153111 64 255 128
0.8346828 0.3529498 3.7397501 64 255 128
0.5304462 0.3551273 3.6855385 64 255 128
0.6854472 -0.3370635 3.6553288 64 255 128
0.7867382 0.7070848 3.9225507 64 255 128
0.5361886 0.7208936 3.8503692 64 255 128
0.6839584 -0.3419050 3.5987616 64 255 128
0.8532341 0.7895416 3.8463373 64 255 128
0.4690172 0.7921020 3.7649968 64 255 128
0.6621318 -0.4898262 3.4478858 64 255 128
0.7448547 -0.4372247 3.5154264 64 255 128
0.6008710 -0.4331825 3.5311375 64 255 128
0.6737764 -0.4474567 3.3726733 64 255 128
0.8174508 -0.3972343 3.4889808 64 255 128
0.5250494 -0.3859723 3.5147195 64 255 128
0.9023526 -0.1564344 3.4467542 64 255 128
0.4642952 -0.1462993 3.4832973 64 255 128
0.8642486 -0.0161405 3.2551844 64 255 128
0.4926760 -0.0159066 3.2736876 64 255 128
0.8640546 0.0484168 3.2083378 64 255 128
0.4837625 0.0426496 3.2210732 64 255 128
0.6605951 -0.3967930 3.2715335 64 255 128
0.6304879 -0.4466928 3.2638540 64 255 128
0.6964569 -0.4428152 3.2597697 64 255 128
0.6025082 -0.5118829 3.3356738 64 255 128
0.7416139 -0.5005202 3.3293071 64 255 128
0.8552392 0.7993944 3.7748199 64 255 128
0.8977072 0.7941256 3.8396094 64 255 128
0.7689400 0.7242690 3.9810147 64 255 128
0.4781258 0.8138973 3.6953819 64 255 128
0.4288056 0.8050755 3.7576375 64 255 128
0.5505103 0.7468184 3.9120424 64 255 128
0.7727821 0.0718823 3.2178566 64 255 128
0.8145480 0.1144865 3.1494694 64 255 128
0.8460518 0.1202740 3.1352880 64 255 128
0.8749295 0.1090379 3.1433129 64 255 128
0.9045824 0.0920858 3.1714137 64 255 128
0.5552872 0.0956900 3.2527752 64 255 128
0.5154532 0.1192636 3.1715589 64 255 128
0.4873035 0.1121304 3.1509480 64 255 128
0.4636635 0.0941143 3.1536064 64 255 128
0.4351155 0.0632633 3.1715705 64 255 128
