ply
format ascii 1.0
element vertex 90
property float x
property float y
property float z
property uchar red
property uchar green
property uchar blue
end_header
0.7427236 -0.0953156 3.7096703 255 64 64
0.8072400 -0.0094934 3.7403188 255 64 64
0.6791768 -0.0162408 3.7507789 255 64 64
0.7442349 -0.1979574 3.6954815 255 64 64
0.8589551 0.3694251 3.7197318 255 64 64
0.5515130 0.3486048 3.6991560 255 64 64
0.7311806 -0.2970977 3.6065164 255 64 64
0.8352531 0.7217196 3.9095571 255 64 64
0.5602802 0.7271318 3.8300090 255 64 64
0.7218080 -0.3074716 3.5522852 255 64 64
0.8972881 0.8080702 3.8347950 255 64 64
0.4765069 0.7985146 3.7622027 255 64 64
0.6733683 -0.4711362 3.4290512 255 64 64
0.7658668 -0.4192291 3.4813473 255 64 64
0.6252981 -0.3972096 3.5057542 255 64 64
0.6787978 -0.4554327 3.3441656 255 64 64
0.8413783 -0.3952112 3.4455576 255 64 64
0.5538442 -0.3450442 3.4866951 255 64 64
0.9367096 -0.1551055 3.4273660 255 64 64
0.5015353 -0.1017329 3.4754009 255 64 64
0.8976645 -0.0230949 3.2301564 255 64 64
0.5024750 -0.0182992 3.2415051 255 64 64
0.9088253 0.0305169 3.1725483 255 64 64
0.5003992 0.0283758 3.1779513 255 64 64
0.6514518 -0.4473234 3.2346826 255 64 64
0.6177980 -0.4924520 3.2521772 255 64 64
0.6822550 -0.4986198 3.2382004 255 64 64
0.5993860 -0.5194463 3.3470502 255 64 64
0.7354807 -0.5288043 3.3183482 255 64 64
0.8934809 0.8246368 3.7645948 255 64 64
0.9414606 0.8123389 3.8244102 255 64 64
0.8215847 0.7354603 3.9703674 255 64 64
0.4704928 0.8197570 3.6922946 255 64 64
0.4357232 0.8120278 3.7637227 255 64 64
0.5867816 0.7524837 3.8870637 255 64 64
0.8250068 0.0728989 3.1753585 255 64 64
0.8724372 0.0924218 3.1016667 255 64 64
0.9036935 0.0886157 3.0868857 255 64 64
0.9292351 0.0743003 3.0982370 255 64 64
0.9551657 0.0576513 3.1295905 255 64 64
0.5934482 0.0329673 3.1662271 255 64 64
0.5385134 0.0662042 3.0983887 255 64 64
0.5056779 0.0746146 3.0914645 255 64 64
0.4797601 0.0738920 3.1074383 255 64 64
0.4514367 0.0676908 3.1422524 255 64 64
0.7004477 -0.1020006 3.6707573 64 255 128
0.7658880 -0.0125603 3.6911025 64 255 128
0.6361400 -0.0135189 3.6858668 64 255 128
0.6981228 -0.2065215 3.6789882 64 255 128
0.8386328 0.3639217 3.6948462 64 255 128
0.5288663 0.3610626 3.6588402 64 255 128
0.6946386 -0.3283020 3.6194518 64 255 128
0.7967808 0.7172910 3.8806007 64 255 128
0.5421623 0.7273308 3.8221123 64 255 128
0.6899590 -0.3330666 3.5630522 64 255 128
0.8573905 0.7992180 3.7990916 64 255 128
0.4685915 0.7956279 3.7396872 64 255 128
0.6622031 -0.4815809 3.4137416 64 255 128
0.7476939 -0.4274036 3.4764142 64 255 128
0.6047950 -0.4259201 3.5003352 64 255 128
0.6682998 -0.4392150 3.3378756 64 255 128
0.8182803 -0.3865239 3.4461620 64 255 128
0.5272480 -0.3800787 3.4888349 64 255 128
0.8972417 -0.1445935 3.3991435 64 255 128
0.4608932 -0.1414826 3.4607189 64 255 128
0.8476975 -0.0046836 3.2099245 64 255 128
0.4737681 -0.0110831 3.2495928 64 255 128
0.8442802 0.0598247 3.1631346 64 255 128
0.4603558 0.0471838 3.1976156 64 255 128
0.6486837 -0.3886324 3.2375741 64 255 128
0.6187322 -0.4389063 3.2316661 64 255 128
0.6843109 -0.4342628 3.2236896 64 255 128
0.5956590 -0.5043720 3.3050537 64 255 128
0.7340414 -0.4915454 3.2903948 64 255 128
0.8557154 0.8084921 3.7275901 64 255 128
0.9015532 0.8047489 3.7904179 64 255 128
0.7825041 0.7342616 3.9395185 64 255 128
0.4725051 0.8149340 3.6691284 64 255 128
0.4281958 0.8086123 3.7348011 64 255 128
0.5599253 0.7539659 3.8820546 64 255 128
0.7534734 0.0824045 3.1779187 64 255 128
0.7908341 0.1253512 3.1072843 64 255 128
0.8215463 0.1313162 3.0912080 64 255 128
0.8509932 0.1203632 3.0975728 64 255 128
0.8823353 0.1037628 3.1240668 64 255 128
0.5328311 0.1014655 3.2245843 64 255 128
0.4874423 0.1241521 3.1461575 64 255 128
0.4580795 0.1164495 3.1274648 64 255 128
0.4349052 0.0980191 3.1316638 64 255 128
0.4080026 0.0666081 3.1515183 64 255 128
