ply
format ascii 1.0
element vertex 45
property float x
property float y
property float z
property uchar red
property uchar green
property uchar blue
end_header
-0.0889844 0.1898793 2.0388334 255 64 64
-0.0937959 0.2687708 2.1231303 255 64 64
-0.0810502 0.2954676 1.9983455 255 64 64
-0.1287518 0.0801009 2.0073211 255 64 64
-0.0814805 0.6333714 2.3017218 255 64 64
-0.1007951 0.7060452 2.0558527 255 64 64
-0.1104730 -0.0732196 1.9956120 255 64 64
-0.1298766 1.0491353 2.4088678 255 64 64
-0.2299912 1.0924218 2.2007480 255 64 64
-0.1000690 -0.1350935 1.9890033 255 64 64
-0.0212327 1.1032957 2.4858875 255 64 64
-0.1184888 1.1685525 2.1465468 255 64 64
-0.1271511 -0.3594216 1.9614661 255 64 64
-0.1221637 -0.2721880 2.0589888 255 64 64
-0.1296628 -0.2500071 1.8889306 255 64 64
-0.0650937 -0.4205383 1.9584097 255 64 64
-0.0905001 -0.3464477 2.1239860 255 64 64
-0.0810873 -0.2991352 1.8015676 255 64 64
0.0828474 -0.5459452 2.2153924 255 64 64
0.1094218 -0.4337836 1.6619114 255 64 64
0.0418290 -0.7430613 2.0375903 255 64 64
0.1035557 -0.7040224 1.7085562 255 64 64
0.0093021 -0.8278329 2.0261722 255 64 64
0.0995383 -0.7879339 1.6741052 255 64 64
0.0343079 -0.4824561 1.9360751 255 64 64
-0.0082814 -0.5010669 1.8895013 255 64 64
-0.0108401 -0.5262986 1.9525996 255 64 64
-0.0971188 -0.4530613 1.8574705 255 64 64
-0.1017991 -0.5088910 1.9995878 255 64 64
0.0602967 1.0913286 2.4793203 255 64 64
-0.0095160 1.0907485 2.5319383 255 64 64
-0.1967870 1.0878137 2.4144232 255 64 64
-0.0354022 1.1824771 2.1634548 255 64 64
-0.1121984 1.1973305 2.1104372 255 64 64
-0.2924763 1.1309479 2.2294915 255 64 64
-0.0216519 -0.8118117 1.9213978 255 64 64
-0.0469707 -0.9014945 1.9644994 255 64 64
-0.0474330 -0.9212927 1.9937763 255 64 64
-0.0313207 -0.9168789 2.0216231 255 64 64
-0.0009845 -0.8998759 2.0526395 255 64 64
0.0279146 -0.8243413 1.7532146 255 64 64
0.0604941 -0.8858778 1.6635863 255 64 64
0.0807577 -0.8878465 1.6338985 255 64 64
0.1062312 -0.8700130 1.6222224 255 64 64
0.1380579 -0.8355875 1.6213689 255 64 64
