ply
format ascii 1.0
element vertex 45
property float x
property float y
property float z
property uchar red
property uchar green
property uchar blue
end_header
-0.2842163 0.1671689 2.1696920 255 64 64
-0.2765440 0.2449839 2.2534757 255 64 64
-0.2940080 0.2717054 2.1295459 255 64 64
-0.3195837 0.0570277 2.1470525 255 64 64
-0.2347231 0.6046133 2.4331489 255 64 64
-0.2915152 0.6802349 2.1893699 255 64 64
-0.3040416 -0.0929640 2.1289573 255 64 64
-0.3295165 0.9989388 2.5740016 255 64 64
-0.3761171 1.0693882 2.3503530 255 64 64
-0.2862363 -0.1512354 2.1164067 255 64 64
-0.2191736 1.0709667 2.6276803 255 64 64
-0.2720288 1.1447955 2.2864962 255 64 64
-0.2980344 -0.3751563 2.0834863 255 64 64
-0.2803202 -0.2901668 2.1808655 255 64 64
-0.3291630 -0.2642703 2.0225277 255 64 64
-0.2236858 -0.4211933 2.0613570 255 64 64
-0.2330089 -0.3273096 2.2627833 255 64 64
-0.3270758 -0.2644509 1.9142284 255 64 64
-0.0082863 -0.3476226 2.4260986 255 64 64
-0.2247388 -0.1827734 1.6783721 255 64 64
0.0871832 -0.5477394 2.2792416 255 64 64
-0.0808535 -0.4128826 1.6736768 255 64 64
0.0951758 -0.6340388 2.2546024 255 64 64
-0.0566923 -0.4970665 1.6572667 255 64 64
-0.1233167 -0.4637296 2.0096214 255 64 64
-0.1715466 -0.4910077 1.9764653 255 64 64
-0.1515621 -0.5147488 2.0369585 255 64 64
-0.2732379 -0.4631470 1.9736799 255 64 64
-0.2281042 -0.5144120 2.1074891 255 64 64
-0.1418495 1.0779223 2.6024268 255 64 64
-0.1953294 1.0592362 2.6681428 255 64 64
-0.3974610 1.0243181 2.5919242 255 64 64
-0.1880753 1.1498201 2.2907939 255 64 64
-0.2680705 1.1719383 2.2497122 255 64 64
-0.4315710 1.1071819 2.3887758 255 64 64
0.1130685 -0.6136051 2.1511140 255 64 64
0.1018432 -0.7090920 2.1764684 255 64 64
0.0947370 -0.7320231 2.2018785 255 64 64
0.0932427 -0.7267423 2.2330122 255 64 64
0.0978234 -0.7062877 2.2742872 255 64 64
-0.0373046 -0.5179986 1.7632179 255 64 64
-0.0351356 -0.5934572 1.6830965 255 64 64
-0.0368579 -0.6002994 1.6484251 255 64 64
-0.0379857 -0.5816313 1.6216536 255 64 64
-0.0376377 -0.5424134 1.5964923 255 64 64
