ply
format ascii 1.0
element vertex 90
property float x
property float y
property float z
property uchar red
property uchar green
property uchar blue
end_header
0.7351277 -0.1221253 3.7800841 255 64 64
0.7968755 -0.0403300 3.8232946 255 64 64
0.6693472 -0.0415516 3.8128476 255 64 64
0.7348033 -0.2240248 3.7629533 255 64 64
0.8774034 0.3326095 3.8553865 255 64 64
0.5644134 0.3319462 3.7753165 255 64 64
0.7356268 -0.3264869 3.6778650 255 64 64
0.8571420 0.6715919 4.0680809 255 64 64
0.5497155 0.7059092 3.9177320 255 64 64
0.7346235 -0.3393841 3.6237042 255 64 64
0.9379914 0.7545969 4.0096397 255 64 64
0.4847291 0.7807124 3.8351455 255 64 64
0.7056019 -0.5073888 3.5014794 255 64 64
0.7892139 -0.4520562 3.5631781 255 64 64
0.6469482 -0.4326552 3.5686355 255 64 64
0.7182652 -0.4922107 3.4174800 255 64 64
0.8704768 -0.4325378 3.5410256 255 64 64
0.5739555 -0.3867487 3.5427859 255 64 64
0.9865375 -0.2017801 3.5456965 255 64 64
0.4970360 -0.1514095 3.5218754 255 64 64
0.9810307 -0.0574307 3.3541250 255 64 64
0.5137099 -0.0681882 3.2889953 255 64 64
0.9978070 0.0025644 3.3051744 255 64 64
0.5171347 -0.0190940 3.2276330 255 64 64
0.6991110 -0.4830836 3.3062592 255 64 64
0.6651337 -0.5291203 3.3206677 255 64 64
0.7303454 -0.5338759 3.3112833 255 64 64
0.6406683 -0.5577255 3.4133368 255 64 64
0.7778729 -0.5637897 3.3947854 255 64 64
0.9499801 0.7725711 3.9407692 255 64 64
0.9834569 0.7543231 4.0081701 255 64 64
0.8348536 0.6844969 4.1264830 255 64 64
0.4937278 0.8024939 3.7657759 255 64 64
0.4454169 0.7957333 3.8287399 255 64 64
0.5644951 0.7302693 3.9794736 255 64 64
0.9139807 0.0446420 3.3052449 255 64 64
0.9686965 0.0725872 3.2398639 255 64 64
1.0010973 0.0704262 3.2280202 255 64 64
1.0253489 0.0545075 3.2397828 255 64 64
1.0479931 0.0338184 3.2709022 255 64 64
0.6103844 -0.0091499 3.2288179 255 64 64
0.5626954 0.0239538 3.1557512 255 64 64
0.5307753 0.0307984 3.1447678 255 64 64
0.5031842 0.0278976 3.1569810 255 64 64
0.4709903 0.0187550 3.1874306 255 64 64
0.6813240 -0.1169840 3.7427747 64 255 128
0.7467089 -0.0293168 3.7698894 64 255 128
0.6184270 -0.0265091 3.7499201 64 255 128
0.6749125 -0.2213079 3.7513287 64 255 128
0.8309550 0.3446505 3.7796667 64 255 128
0.5256804 0.3505495 3.7077985 64 255 128
0.6743678 -0.3430472 3.6916089 64 255 128
0.7740435 0.6968874 3.9635592 64 255 128
0.5279770 0.7142760 3.8771641 64 255 128
0.6759883 -0.3480882 3.6350627 64 255 128
0.8460865 0.7791879 3.8923852 64 255 128
0.4665234 0.7862889 3.7882338 64 255 128
0.6613109 -0.4967088 3.4840097 64 255 128
0.7405825 -0.4444698 3.5558345 64 255 128
0.5959861 -0.4389980 3.5633469 64 255 128
0.6779591 -0.4555025 3.4090927 64 255 128
0.8152134 -0.4054193 3.5340610 64 255 128
0.5217414 -0.3907983 3.5430546 64 255 128
0.9073849 -0.1665616 3.4962804 64 255 128
0.4646814 -0.1504673 3.5097873 64 255 128
0.8806037 -0.0266799 3.3025045 64 255 128
0.5082594 -0.0222893 3.3014238 64 255 128
0.8835514 0.0373564 3.2550392 64 255 128
0.5037110 0.0357633 3.2477045 64 255 128
0.6718048 -0.4057632 3.3067846 64 255 128
0.6415257 -0.4553302 3.2977223 64 255 128
0.7076637 -0.4523869 3.2977188 64 255 128
0.6082284 -0.5193567 3.3683519 64 255 128
0.7475891 -0.5099267 3.3704560 64 255 128
0.8524603 0.7897295 3.8211977 64 255 128
0.8908741 0.7832435 3.8883536 64 255 128
0.7530311 0.7136724 4.0211315 64 255 128
0.4799067 0.8082732 3.7193706 64 255 128
0.4269206 0.7995700 3.7786012 64 255 128
0.5389442 0.7398621 3.9396853 64 255 128
0.7922614 0.0621781 3.2599661 64 255 128
0.8378452 0.1034304 3.1932096 64 255 128
0.8700568 0.1086458 3.1804616 64 255 128
0.8983340 0.0971253 3.1899900 64 255 128
0.9263652 0.0800594 3.2196178 64 255 128
0.5738340 0.0881411 3.2835188 64 255 128
0.5397463 0.1112483 3.1995633 64 255 128
0.5129163 0.1042999 3.1772194 64 255 128
0.4888790 0.0866768 3.1785169 64 255 128
0.4587605 0.0564668 3.1948798 64 255 128
