ply
format ascii 1.0
element vertex 45
property float x
property float y
property float z
property uchar red
property uchar green
property uchar blue
end_header
0.7434457 -0.1178005 3.7000341 255 64 64
0.8076035 -0.0332300 3.7352979 255 64 64
0.6784957 -0.0375569 3.7371066 255 64 64
0.7440014 -0.2209777 3.6856716 255 64 64
0.8728305 0.3428165 3.7229650 255 64 64
0.5636461 0.3311380 3.6908631 255 64 64
0.7373565 -0.3242519 3.6003611 255 64 64
0.8522484 0.6886991 3.9225838 255 64 64
0.5699093 0.6999067 3.8449416 255 64 64
0.7312359 -0.3360610 3.5456998 255 64 64
0.9225536 0.7718513 3.8516479 255 64 64
0.4919776 0.7747816 3.7740049 255 64 64
0.6929469 -0.5062656 3.4265914 255 64 64
0.7816705 -0.4501580 3.4819655 255 64 64
0.6387287 -0.4298667 3.4972548 255 64 64
0.6995389 -0.4949787 3.3411016 255 64 64
0.8611685 -0.4249062 3.4563367 255 64 64
0.5658376 -0.3786033 3.4794080 255 64 64
0.9533995 -0.1839842 3.4521770 255 64 64
0.5012984 -0.1388990 3.4748509 255 64 64
0.9255766 -0.0569787 3.2506373 255 64 64
0.5060236 -0.0594284 3.2404747 255 64 64
0.9365674 -0.0019599 3.1943152 255 64 64
0.5035976 -0.0140567 3.1759953 255 64 64
0.6741893 -0.4925600 3.2304175 255 64 64
0.6424105 -0.5386187 3.2488308 255 64 64
0.7073181 -0.5421144 3.2364273 255 64 64
0.6232991 -0.5629011 3.3442674 255 64 64
0.7604606 -0.5665793 3.3187809 255 64 64
0.9228734 0.7897860 3.7814500 255 64 64
0.9674450 0.7738370 3.8433907 255 64 64
0.8363910 0.7023525 3.9827104 255 64 64
0.4925027 0.7996376 3.7049165 255 64 64
0.4509514 0.7874746 3.7723398 255 64 64
0.5919420 0.7226725 3.9049871 255 64 64
0.8513466 0.0376517 3.1962705 255 64 64
0.9000063 0.0600932 3.1243401 255 64 64
0.9317078 0.0576421 3.1103537 255 64 64
0.9572439 0.0436866 3.1218100 255 64 64
0.9831130 0.0268681 3.1532288 255 64 64
0.5960315 0.0032822 3.1734135 255 64 64
0.5434341 0.0279492 3.0998466 255 64 64
0.5106832 0.0316796 3.0897369 255 64 64
0.4837367 0.0273179 3.1030874 255 64 64
0.4533156 0.0175463 3.1351924 255 64 64
