ply
format ascii 1.0
element vertex 45
property float x
property float y
property float z
property uchar red
property uchar green
property uchar blue
end_header
-1.3673744 -0.0424264 3.3056707 255 64 64
-1.3155578 -0.0157504 3.4025257 255 64 64
-1.4405533 -0.0022111 3.3781710 255 64 64
-1.3609266 -0.1054612 3.2217515 255 64 64
-1.2044842 0.3741883 3.3963609 255 64 64
-1.4656976 0.4090375 3.3925529 255 64 64
-1.3361704 -0.0115435 3.1258802 255 64 64
-1.1342461 0.7841129 3.4925053 255 64 64
-1.4741511 0.8189495 3.5100424 255 64 64
-1.3229491 0.0355757 3.0977798 255 64 64
-1.0682940 0.8895893 3.4372318 255 64 64
-1.5063648 0.9188758 3.4239097 255 64 64
-1.3032329 0.1303615 2.9018829 255 64 64
-1.2386786 0.0695676 2.9866285 255 64 64
-1.3853574 0.0822848 2.9771924 255 64 64
-1.2595708 0.1928839 2.8556082 255 64 64
-1.1946576 0.1433648 3.0117543 255 64 64
-1.4188869 0.1664388 3.0010490 255 64 64
-1.1637554 0.3846260 3.1429632 255 64 64
-1.4983616 0.3932688 3.1161113 255 64 64
-1.2600648 0.6143731 3.0858908 255 64 64
-1.3938608 0.6230375 3.0366075 255 64 64
-1.2452171 0.6844330 3.0436404 255 64 64
-1.3822244 0.6962647 2.9996238 255 64 64
-1.2379411 0.2847145 2.7998371 255 64 64
-1.2741196 0.2547141 2.7602603 255 64 64
-1.2091180 0.2391999 2.7685442 255 64 64
-1.3329020 0.1755927 2.7803249 255 64 64
-1.1952975 0.1460479 2.8027091 255 64 64
-1.0832876 0.9052275 3.3631454 255 64 64
-1.0273863 0.8952383 3.4180615 255 64 64
-1.1447316 0.7970199 3.5635679 255 64 64
-1.4747866 0.9583787 3.3620105 255 64 64
-1.5417904 0.9496576 3.4185600 255 64 64
-1.4703110 0.8355839 3.5801933 255 64 64
-1.3346858 0.7241912 3.0329804 255 64 64
-1.2774096 0.7673407 2.9757781 255 64 64
-1.2436638 0.7706340 2.9667885 255 64 64
-1.2177535 0.7557573 2.9814932 255 64 64
-1.1951648 0.7336565 3.0135036 255 64 64
-1.2862996 0.6996726 3.0012791 255 64 64
-1.3278726 0.7682803 2.9466653 255 64 64
-1.3580469 0.7827051 2.9388797 255 64 64
-1.3864489 0.7776476 2.9512603 255 64 64
-1.4197698 0.7591641 2.9739275 255 64 64
