ply
format ascii 1.0
element vertex 45
property float x
property float y
property float z
property uchar red
property uchar green
property uchar blue
end_header
-0.3349810 0.1478650 2.2356641 64 255 128
-0.3299164 0.2241863 2.3212829 64 255 128
-0.3498571 0.2536877 2.2000446 64 255 128
-0.3663058 0.0351443 2.2094698 64 255 128
-0.3265600 0.5962183 2.4789166 64 255 128
-0.3953272 0.6614746 2.2469778 64 255 128
-0.3303296 -0.1129381 2.1836271 64 255 128
-0.3395932 1.0152340 2.5714812 64 255 128
-0.4955531 1.0603435 2.3710747 64 255 128
-0.3138420 -0.1719626 2.1708565 64 255 128
-0.2117289 1.0708122 2.6010447 64 255 128
-0.4030956 1.1315951 2.2865906 64 255 128
-0.3362912 -0.3925151 2.1295218 64 255 128
-0.3212641 -0.3135475 2.2310760 64 255 128
-0.3517545 -0.2795245 2.0677710 64 255 128
-0.2803682 -0.4543552 2.1080015 64 255 128
-0.3163506 -0.3471383 2.3275347 64 255 128
-0.3627192 -0.2642942 1.9595370 64 255 128
-0.2258292 -0.4091317 2.5825741 64 255 128
-0.3348077 -0.1671864 1.7096157 64 255 128
-0.0546184 -0.6112678 2.5579433 64 255 128
-0.2108843 -0.3317957 1.5320995 64 255 128
-0.0473210 -0.6992074 2.5773339 64 255 128
-0.2202016 -0.3874400 1.4623719 64 255 128
-0.2113445 -0.5393126 2.0584583 64 255 128
-0.2692013 -0.5445430 2.0277700 64 255 128
-0.2585338 -0.5715415 2.0893667 64 255 128
-0.3467195 -0.4755252 2.0235376 64 255 128
-0.3218547 -0.5341771 2.1612632 64 255 128
-0.1363013 1.0661064 2.5669713 64 255 128
-0.1852798 1.0587500 2.6398284 64 255 128
-0.3993382 1.0544065 2.5958381 64 255 128
-0.3182356 1.1348996 2.2774720 64 255 128
-0.4044339 1.1532903 2.2464831 64 255 128
-0.5496495 1.1023098 2.4101961 64 255 128
0.0074303 -0.7233356 2.4893901 64 255 128
-0.0193654 -0.7995952 2.5476680 64 255 128
-0.0369883 -0.8097811 2.5751586 64 255 128
-0.0494500 -0.7920030 2.5980864 64 255 128
-0.0600489 -0.7563936 2.6245396 64 255 128
-0.1474246 -0.4590718 1.5028336 64 255 128
-0.2096530 -0.4762087 1.4104130 64 255 128
-0.2329226 -0.4643892 1.3884339 64 255 128
-0.2447382 -0.4348851 1.3837862 64 255 128
-0.2507292 -0.3906913 1.3899381 64 255 128
