ply
format ascii 1.0
element vertex 90
property float x
property float y
property float z
property uchar red
property uchar green
property uchar blue
end_header
-0.2842163 0.1671689 2.1696920 255 64 64
-0.2765440 0.2449839 2.2534757 255 64 64
-0.2940080 0.2717054 2.1295459 255 64 64
-0.3195837 0.0570277 2.1470525 255 64 64
-0.2347231 0.6046133 2.4331489 255 64 64
-0.2915152 0.6802349 2.1893699 255 64 64
-0.3040416 -0.0929640 2.1289573 255 64 64
-0.3295165 0.9989388 2.5740016 255 64 64
-0.3761171 1.0693882 2.3503530 255 64 64
-0.2862363 -0.1512354 2.1164067 255 64 64
-0.2191736 1.0709667 2.6276803 255 64 64
-0.2720288 1.1447955 2.2864962 255 64 64
-0.2980344 -0.3751563 2.0834863 255 64 64
-0.2803202 -0.2901668 2.1808655 255 64 64
-0.3291630 -0.2642703 2.0225277 255 64 64
-0.2236858 -0.4211933 2.0613570 255 64 64
-0.2330089 -0.3273096 2.2627833 255 64 64
-0.3270758 -0.2644509 1.9142284 255 64 64
-0.0082863 -0.3476226 2.4260986 255 64 64
-0.2247388 -0.1827734 1.6783721 255 64 64
0.0871832 -0.5477394 2.2792416 255 64 64
-0.0808535 -0.4128826 1.6736768 255 64 64
0.0951758 -0.6340388 2.2546024 255 64 64
-0.0566923 -0.4970665 1.6572667 255 64 64
-0.1233167 -0.4637296 2.0096214 255 64 64
-0.1715466 -0.4910077 1.9764653 255 64 64
-0.1515621 -0.5147488 2.0369585 255 64 64
-0.2732379 -0.4631470 1.9736799 255 64 64
-0.2281042 -0.5144120 2.1074891 255 64 64
-0.1418495 1.0779223 2.6024268 255 64 64
-0.1953294 1.0592362 2.6681428 255 64 64
-0.3974610 1.0243181 2.5919242 255 64 64
-0.1880753 1.1498201 2.2907939 255 64 64
-0.2680705 1.1719383 2.2497122 255 64 64
-0.4315710 1.1071819 2.3887758 255 64 64
0.1130685 -0.6136051 2.1511140 255 64 64
0.1018432 -0.7090920 2.1764684 255 64 64
0.0947370 -0.7320231 2.2018785 255 64 64
0.0932427 -0.7267423 2.2330122 255 64 64
0.0978234 -0.7062877 2.2742872 255 64 64
-0.0373046 -0.5179986 1.7632179 255 64 64
-0.0351356 -0.5934572 1.6830965 255 64 64
-0.0368579 -0.6002994 1.6484251 255 64 64
-0.0379857 -0.5816313 1.6216536 255 64 64
-0.0376377 -0.5424134 1.5964923 255 64 64
-0.3349810 0.1478650 2.2356641 64 255 128
-0.3299164 0.2241863 2.3212829 64 255 128
-0.3498571 0.2536877 2.2000446 64 255 128
-0.3663058 0.0351443 2.2094698 64 255 128
-0.3265600 0.5962183 2.4789166 64 255 128
-0.3953272 0.6614746 2.2469778 64 255 128
-0.3303296 -0.1129381 2.1836271 64 255 128
-0.3395932 1.0152340 2.5714812 64 255 128
-0.4955531 1.0603435 2.3710747 64 255 128
-0.3138420 -0.1719626 2.1708565 64 255 128
-0.2117289 1.0708122 2.6010447 64 255 128
-0.4030956 1.1315951 2.2865906 64 255 128
-0.3362912 -0.3925151 2.1295218 64 255 128
-0.3212641 -0.3135475 2.2310760 64 255 128
-0.3517545 -0.2795245 2.0677710 64 255 128
-0.2803682 -0.4543552 2.1080015 64 255 128
-0.3163506 -0.3471383 2.3275347 64 255 128
-0.3627192 -0.2642942 1.9595370 64 255 128
-0.2258292 -0.4091317 2.5825741 64 255 128
-0.3348077 -0.1671864 1.7096157 64 255 128
-0.0546184 -0.6112678 2.5579433 64 255 128
-0.2108843 -0.3317957 1.5320995 64 255 128
-0.0473210 -0.6992074 2.5773339 64 255 128
-0.2202016 -0.3874400 1.4623719 64 255 128
-0.2113445 -0.5393126 2.0584583 64 255 128
-0.2692013 -0.5445430 2.0277700 64 255 128
-0.2585338 -0.5715415 2.0893667 64 255 128
-0.3467195 -0.4755252 2.0235376 64 255 128
-0.3218547 -0.5341771 2.1612632 64 255 128
-0.1363013 1.0661064 2.5669713 64 255 128
-0.1852798 1.0587500 2.6398284 64 255 128
-0.3993382 1.0544065 2.5958381 64 255 128
-0.3182356 1.1348996 2.2774720 64 255 128
-0.4044339 1.1532903 2.2464831 64 255 128
-0.5496495 1.1023098 2.4101961 64 255 128
0.0074303 -0.7233356 2.4893901 64 255 128
-0.0193654 -0.7995952 2.5476680 64 255 128
-0.0369883 -0.8097811 2.5751586 64 255 128
-0.0494500 -0.7920030 2.5980864 64 255 128
-0.0600489 -0.7563936 2.6245396 64 255 128
-0.1474246 -0.4590718 1.5028336 64 255 128
-0.2096530 -0.4762087 1.4104130 64 255 128
-0.2329226 -0.4643892 1.3884339 64 255 128
-0.2447382 -0.4348851 1.3837862 64 255 128
-0.2507292 -0.3906913 1.3899381 64 255 128
