ply
format ascii 1.0
element vertex 90
property float x
property float y
property float z
property uchar red
property uchar green
property uchar blue
end_header
-1.3970236 -0.0326184 3.2556577 255 64 64
-1.3424293 -0.0051740 3.3503535 255 64 64
-1.4675949 0.0076917 3.3301415 255 64 64
-1.3931191 -0.0959281 3.1721759 255 64 64
-1.2274184 0.3826837 3.3232930 255 64 64
-1.4989781 0.4185652 3.3330388 255 64 64
-1.3719343 -0.0003818 3.0774932 255 64 64
-1.1450975 0.7977260 3.3770845 255 64 64
-1.5082052 0.8330879 3.4312737 255 64 64
-1.3605044 0.0475019 3.0504391 255 64 64
-1.0769467 0.8958963 3.3121471 255 64 64
-1.5437117 0.9297296 3.3428650 255 64 64
-1.3466870 0.1475066 2.8576691 255 64 64
-1.2790391 0.0875791 2.9397860 255 64 64
-1.4258789 0.0947270 2.9321754 255 64 64
-1.3052433 0.2105695 2.8110919 255 64 64
-1.2384927 0.1604776 2.9719746 255 64 64
-1.4640766 0.1737074 2.9649718 255 64 64
-1.2233247 0.3929886 3.1205878 255 64 64
-1.5572516 0.3806154 3.1048400 255 64 64
-1.3465769 0.6114093 3.0711231 255 64 64
-1.4430056 0.6146830 3.0568345 255 64 64
-1.3396569 0.6837323 3.0307100 255 64 64
-1.4256376 0.6899089 3.0266058 255 64 64
-1.2877783 0.3044918 2.7582707 255 64 64
-1.3232917 0.2743041 2.7180924 255 64 64
-1.2577318 0.2609236 2.7250881 255 64 64
-1.3785795 0.1927982 2.7362585 255 64 64
-1.2398832 0.1679598 2.7564793 255 64 64
-1.0948013 0.9065959 3.2375531 255 64 64
-1.0368644 0.8987245 3.2905898 255 64 64
-1.1535648 0.8164884 3.4467027 255 64 64
-1.5137120 0.9660729 3.2779505 255 64 64
-1.5795937 0.9601843 3.3368487 255 64 64
-1.5013024 0.8523366 3.5003901 255 64 64
-1.4327894 0.7133193 3.0190778 255 64 64
-1.3805898 0.7640512 2.9642284 255 64 64
-1.3474340 0.7714919 2.9557729 255 64 64
-1.3203397 0.7594278 2.9706533 255 64 64
-1.2956336 0.7392532 3.0021896 255 64 64
-1.3300829 0.6882681 3.0340116 255 64 64
-1.3650825 0.7629339 2.9828212 255 64 64
-1.3937085 0.7794178 2.9745207 255 64 64
-1.4229376 0.7748484 2.9848566 255 64 64
-1.4580553 0.7563709 3.0038757 255 64 64
-1.3851751 -0.0727037 3.1897414 64 255 128
-1.3420514 -0.0485425 3.2912540 64 255 128
-1.4662179 -0.0552005 3.2626987 64 255 128
-1.3648571 -0.1234315 3.0996575 64 255 128
-1.2959732 0.3534056 3.3414891 64 255 128
-1.5493222 0.3424633 3.3446136 64 255 128
-1.3472694 -0.0192692 3.0136557 64 255 128
-1.2771035 0.7826848 3.3572199 64 255 128
-1.6007729 0.7632939 3.4138505 64 255 128
-1.3400087 0.0299513 2.9872906 64 255 128
-1.2423490 0.8744383 3.2615759 64 255 128
-1.6496919 0.8304079 3.3052268 64 255 128
-1.3344077 0.1330310 2.7942271 64 255 128
-1.2611500 0.0840772 2.8796799 64 255 128
-1.4071689 0.0663893 2.8652589 64 255 128
-1.3055800 0.2051694 2.7502606 64 255 128
-1.2298632 0.1655261 2.9010077 64 255 128
-1.4549031 0.1432645 2.8912501 64 255 128
-1.2196072 0.4220043 3.0094490 64 255 128
-1.5805142 0.3566473 2.9962537 64 255 128
-1.3390269 0.6469183 2.9676573 64 255 128
-1.6243998 0.6197433 2.9787185 64 255 128
-1.3468950 0.7303131 2.9625425 64 255 128
-1.6617866 0.6937446 2.9668858 64 255 128
-1.3193543 0.2945070 2.6845059 64 255 128
-1.3535745 0.2520034 2.6551025 64 255 128
-1.2862161 0.2531393 2.6502194 64 255 128
-1.3848264 0.1629102 2.6915212 64 255 128
-1.2429904 0.1701733 2.6880648 64 255 128
-1.2744226 0.8687993 3.1921501 64 255 128
-1.2073735 0.8765317 3.2323189 64 255 128
-1.2744107 0.8127900 3.4233873 64 255 128
-1.6247363 0.8495861 3.2318337 64 255 128
-1.6878202 0.8556599 3.2926710 64 255 128
-1.5996022 0.7961208 3.4779046 64 255 128
-1.4257944 0.7402222 2.9018750 64 255 128
-1.3833194 0.8229154 2.9088986 64 255 128
-1.3566543 0.8409058 2.9269588 64 255 128
-1.3361268 0.8292317 2.9531136 64 255 128
-1.3254125 0.8008866 2.9870112 64 255 128
-1.5859067 0.7451119 2.9347434 64 255 128
-1.6714175 0.7906151 2.9249647 64 255 128
-1.7058157 0.7888476 2.9339876 64 255 128
-1.7206770 0.7683135 2.9540067 64 255 128
-1.7296214 0.7318266 2.9804718 64 255 128
