ply
format ascii 1.0
element vertex 90
property float x
property float y
property float z
property uchar red
property uchar green
property uchar blue
end_header
0.7723062 -0.1166069 3.6358798 255 64 64
0.8375541 -0.0299572 3.6612134 255 64 64
0.7106091 -0.0370918 3.6782017 255 64 64
0.7736876 -0.2191451 3.6239979 255 64 64
0.8862528 0.3521469 3.6672337 255 64 64
0.5988312 0.3384660 3.6631761 255 64 64
0.7630362 -0.3288847 3.5484655 255 64 64
0.8761544 0.7131726 3.8461852 255 64 64
0.6114740 0.7202418 3.7908392 255 64 64
0.7530593 -0.3462739 3.4963872 255 64 64
0.9253163 0.7991775 3.7615216 255 64 64
0.5272941 0.7944039 3.7260597 255 64 64
0.7126003 -0.5252460 3.3930295 255 64 64
0.8026473 -0.4624756 3.4377682 255 64 64
0.6616159 -0.4460689 3.4625025 255 64 64
0.7190334 -0.5131893 3.3067882 255 64 64
0.8826777 -0.4473689 3.4071765 255 64 64
0.5796970 -0.4101242 3.4494007 255 64 64
0.9634477 -0.2006278 3.4246702 255 64 64
0.5236464 -0.1668355 3.4636967 255 64 64
0.9364714 -0.0368682 3.2492471 255 64 64
0.4948620 -0.0522710 3.2442362 255 64 64
0.9513635 0.0228716 3.1988602 255 64 64
0.4911770 0.0024544 3.1875954 255 64 64
0.6991615 -0.4922144 3.1980033 255 64 64
0.6653353 -0.5395546 3.2075751 255 64 64
0.7305579 -0.5432336 3.1972909 255 64 64
0.6416814 -0.5777314 3.2970171 255 64 64
0.7782729 -0.5824654 3.2759385 255 64 64
0.9125237 0.8127313 3.6911962 255 64 64
0.9674455 0.8026553 3.7450440 255 64 64
0.8697529 0.7294691 3.9081144 255 64 64
0.5194575 0.8152708 3.6554773 255 64 64
0.4870599 0.8086760 3.7285855 255 64 64
0.6404316 0.7461569 3.8475227 255 64 64
0.8689101 0.0668951 3.2040675 255 64 64
0.9202323 0.0929408 3.1352348 255 64 64
0.9513912 0.0899156 3.1214654 255 64 64
0.9754331 0.0739125 3.1319916 255 64 64
0.9992204 0.0525530 3.1609502 255 64 64
0.5811139 -0.0077872 3.1608145 255 64 64
0.5217790 0.0439511 3.1081300 255 64 64
0.4906296 0.0581979 3.1081824 255 64 64
0.4678671 0.0591986 3.1281486 255 64 64
0.4456671 0.0533246 3.1662927 255 64 64
0.7186073 -0.0874668 3.5981712 64 255 128
0.7833985 0.0036613 3.6120892 64 255 128
0.6540110 -0.0011461 3.6220222 64 255 128
0.7202491 -0.1920993 3.6050344 64 255 128
0.8405211 0.3828467 3.6116681 64 255 128
0.5355073 0.3708745 3.6116786 64 255 128
0.7129645 -0.3134189 3.5449035 64 255 128
0.8109002 0.7388757 3.7946768 64 255 128
0.5499299 0.7410586 3.7657652 64 255 128
0.7017561 -0.3185369 3.4894626 64 255 128
0.8590913 0.8234678 3.7077799 64 255 128
0.4654939 0.8068324 3.6921754 64 255 128
0.6597976 -0.4674298 3.3438914 64 255 128
0.7508806 -0.4111183 3.3958976 64 255 128
0.6120075 -0.4135020 3.4371662 64 255 128
0.6561913 -0.4220982 3.2695966 64 255 128
0.8153135 -0.3674791 3.3570027 64 255 128
0.5324863 -0.3697785 3.4337170 64 255 128
0.8799622 -0.1225438 3.3040571 64 255 128
0.4555813 -0.1336270 3.4127483 64 255 128
0.8085710 0.0215385 3.1252363 64 255 128
0.4378667 -0.0028598 3.2022011 64 255 128
0.7993993 0.0873551 3.0811191 64 255 128
0.4164473 0.0548401 3.1523163 64 255 128
0.6237663 -0.3712942 3.1729043 64 255 128
0.5944152 -0.4221125 3.1701188 64 255 128
0.6585088 -0.4160073 3.1545331 64 255 128
0.5815834 -0.4887313 3.2450063 64 255 128
0.7170855 -0.4725611 3.2144859 64 255 128
0.8481411 0.8329998 3.6370816 64 255 128
0.9015020 0.8300206 3.6934013 64 255 128
0.8025997 0.7559650 3.8551407 64 255 128
0.4606805 0.8249260 3.6212218 64 255 128
0.4241653 0.8185238 3.6919024 64 255 128
0.5745144 0.7698793 3.8226900 64 255 128
0.7100689 0.1075207 3.1051493 64 255 128
0.7395542 0.1534881 3.0326796 64 255 128
0.7683885 0.1606861 3.0140378 64 255 128
0.7985347 0.1501709 3.0171940 64 255 128
0.8326398 0.1334411 3.0399547 64 255 128
0.4899955 0.1113803 3.1699164 64 255 128
0.4347184 0.1325815 3.0978332 64 255 128
0.4034416 0.1240082 3.0829537 64 255 128
0.3815224 0.1049149 3.0900025 64 255 128
0.3582480 0.0727672 3.1129956 64 255 128
