ply
format ascii 1.0
element vertex 90
property float x
property float y
property float z
property uchar red
property uchar green
property uchar blue
end_header
0.7389082 -0.0918034 3.6035056 255 64 64
0.8027845 -0.0081250 3.6395247 255 64 64
0.6750277 -0.0131734 3.6438794 255 64 64
0.7395840 -0.1936623 3.5864112 255 64 64
0.8547214 0.3721181 3.6380997 255 64 64
0.5575868 0.3571332 3.6015656 255 64 64
0.7338645 -0.2931588 3.4969172 255 64 64
0.8305513 0.7274778 3.8234472 255 64 64
0.5466058 0.7336755 3.7394948 255 64 64
0.7283457 -0.3038597 3.4424751 255 64 64
0.8919449 0.8155611 3.7502360 255 64 64
0.4687505 0.8072857 3.6672947 255 64 64
0.6928939 -0.4671845 3.3157983 255 64 64
0.7800889 -0.4131659 3.3740983 255 64 64
0.6380880 -0.3955414 3.3894875 255 64 64
0.7087428 -0.4505001 3.2324708 255 64 64
0.8584633 -0.3915399 3.3434038 255 64 64
0.5620571 -0.3496808 3.3727021 255 64 64
0.9341098 -0.1435670 3.3470826 255 64 64
0.5106508 -0.1081913 3.4067111 255 64 64
0.8997835 0.0001123 3.1567616 255 64 64
0.5253881 0.0185388 3.1933770 255 64 64
0.9129180 0.0545478 3.1004734 255 64 64
0.5332126 0.0759279 3.1400869 255 64 64
0.6970804 -0.4283062 3.1229634 255 64 64
0.6609870 -0.4743547 3.1299233 255 64 64
0.7265764 -0.4804019 3.1241419 255 64 64
0.6295268 -0.5121000 3.2169316 255 64 64
0.7675120 -0.5214452 3.2057071 255 64 64
0.8880985 0.8314812 3.6795919 255 64 64
0.9357318 0.8186950 3.7391260 255 64 64
0.8163339 0.7417259 3.8847466 255 64 64
0.4684090 0.8300217 3.5970252 255 64 64
0.4281914 0.8210085 3.6658316 255 64 64
0.5687072 0.7587156 3.7993231 255 64 64
0.8279518 0.0938005 3.0971544 255 64 64
0.8800436 0.1153620 3.0277619 255 64 64
0.9117393 0.1128820 3.0152721 255 64 64
0.9364178 0.0997183 3.0283716 255 64 64
0.9603037 0.0836120 3.0606084 255 64 64
0.6264454 0.0679304 3.1323380 255 64 64
0.5795704 0.1215515 3.0709074 255 64 64
0.5490850 0.1357235 3.0650244 255 64 64
0.5227807 0.1355998 3.0796628 255 64 64
0.4929555 0.1275768 3.1117110 255 64 64
0.7095694 -0.0953995 3.6351471 64 255 128
0.7748702 -0.0051805 3.6522427 64 255 128
0.6450688 -0.0079653 3.6548374 64 255 128
0.7091995 -0.2000010 3.6426420 64 255 128
0.8399602 0.3727140 3.6541731 64 255 128
0.5319747 0.3654211 3.6363480 64 255 128
0.7035986 -0.3213158 3.5823214 64 255 128
0.8051124 0.7276052 3.8384666 64 255 128
0.5468515 0.7339723 3.7942581 64 255 128
0.6955485 -0.3261463 3.5263093 64 255 128
0.8594650 0.8105773 3.7536685 64 255 128
0.4673818 0.8000705 3.7156026 64 255 128
0.6608344 -0.4746731 3.3784740 64 255 128
0.7492169 -0.4194146 3.4359784 64 255 128
0.6080457 -0.4200721 3.4686091 64 255 128
0.6620858 -0.4313336 3.3029239 64 255 128
0.8172468 -0.3772474 3.4018807 64 255 128
0.5293241 -0.3753323 3.4616446 64 255 128
0.8904141 -0.1341573 3.3515840 64 255 128
0.4572457 -0.1380016 3.4371405 64 255 128
0.8304347 0.0078321 3.1669903 64 255 128
0.4545418 -0.0069870 3.2260199 64 255 128
0.8242399 0.0727784 3.1211004 64 255 128
0.4366984 0.0509076 3.1749671 64 255 128
0.6362597 -0.3806489 3.2040601 64 255 128
0.6064512 -0.4311732 3.1997619 64 255 128
0.6714304 -0.4259448 3.1880176 64 255 128
0.5881923 -0.4970741 3.2741745 64 255 128
0.7254367 -0.4829614 3.2515998 64 255 128
0.8533905 0.8201202 3.6824439 64 255 128
0.9029636 0.8168012 3.7423894 64 255 128
0.7940745 0.7443910 3.8981133 64 255 128
0.4665633 0.8178481 3.6445699 64 255 128
0.4265871 0.8125670 3.7130225 64 255 128
0.5679572 0.7617900 3.8525400 64 255 128
0.7340778 0.0943949 3.1403751 64 255 128
0.7676056 0.1384456 3.0685341 64 255 128
0.7974688 0.1448398 3.0510685 64 255 128
0.8273095 0.1340740 3.0559049 64 255 128
0.8600336 0.1174982 3.0807226 64 255 128
0.5095184 0.1067166 3.1972389 64 255 128
0.4589396 0.1283794 3.1218596 64 255 128
0.4285973 0.1200496 3.1050649 64 255 128
0.4061070 0.1011559 3.1107347 64 255 128
0.3811507 0.0691881 3.1322198 64 255 128
