ply
format ascii 1.0
element vertex 45
property float x
property float y
property float z
property uchar red
property uchar green
property uchar blue
end_header
0.7723062 -0.1166069 3.6358798 255 64 64
0.8375541 -0.0299572 3.6612134 255 64 64
0.7106091 -0.0370918 3.6782017 255 64 64
0.7736876 -0.2191451 3.6239979 255 64 64
0.8862528 0.3521469 3.6672337 255 64 64
0.5988312 0.3384660 3.6631761 255 64 64
0.7630362 -0.3288847 3.5484655 255 64 64
0.8761544 0.7131726 3.8461852 255 64 64
0.6114740 0.7202418 3.7908392 255 64 64
0.7530593 -0.3462739 3.4963872 255 64 64
0.9253163 0.7991775 3.7615216 255 64 64
0.5272941 0.7944039 3.7260597 255 64 64
0.7126003 -0.5252460 3.3930295 255 64 64
0.8026473 -0.4624756 3.4377682 255 64 64
0.6616159 -0.4460689 3.4625025 255 64 64
0.7190334 -0.5131893 3.3067882 255 64 64
0.8826777 -0.4473689 3.4071765 255 64 64
0.5796970 -0.4101242 3.4494007 255 64 64
0.9634477 -0.2006278 3.4246702 255 64 64
0.5236464 -0.1668355 3.4636967 255 64 64
0.9364714 -0.0368682 3.2492471 255 64 64
0.4948620 -0.0522710 3.2442362 255 64 64
0.9513635 0.0228716 3.1988602 255 64 64
0.4911770 0.0024544 3.1875954 255 64 64
0.6991615 -0.4922144 3.1980033 255 64 64
0.6653353 -0.5395546 3.2075751 255 64 64
0.7305579 -0.5432336 3.1972909 255 64 64
0.6416814 -0.5777314 3.2970171 255 64 64
0.7782729 -0.5824654 3.2759385 255 64 64
0.9125237 0.8127313 3.6911962 255 64 64
0.9674455 0.8026553 3.7450440 255 64 64
0.8697529 0.7294691 3.9081144 255 64 64
0.5194575 0.8152708 3.6554773 255 64 64
0.4870599 0.8086760 3.7285855 255 64 64
0.6404316 0.7461569 3.8475227 255 64 64
0.8689101 0.0668951 3.2040675 255 64 64
0.9202323 0.0929408 3.1352348 255 64 64
0.9513912 0.0899156 3.1214654 255 64 64
0.9754331 0.0739125 3.1319916 255 64 64
0.9992204 0.0525530 3.1609502 255 64 64
0.5811139 -0.0077872 3.1608145 255 64 64
0.5217790 0.0439511 3.1081300 255 64 64
0.4906296 0.0581979 3.1081824 255 64 64
0.4678671 0.0591986 3.1281486 255 64 64
0.4456671 0.0533246 3.1662927 255 64 64
