ply
format ascii 1.0
element vertex 45
property float x
property float y
property float z
property uchar red
property uchar green
property uchar blue
end_header
-0.1842972 0.1909987 2.0655582 255 64 64
-0.1894793 0.2698212 2.1499481 255 64 64
-0.1757648 0.2964162 2.0245984 255 64 64
-0.2239034 0.0817222 2.0341330 255 64 64
-0.1655077 0.6344560 2.3251610 255 64 64
-0.1827784 0.7075286 2.0741642 255 64 64
-0.2051070 -0.0707027 2.0227175 255 64 64
-0.2220416 1.0490539 2.4289103 255 64 64
-0.3030195 1.0997862 2.2077396 255 64 64
-0.1907389 -0.1316408 2.0156145 255 64 64
-0.1168418 1.1056018 2.5082343 255 64 64
-0.1887721 1.1763412 2.1618299 255 64 64
-0.2054362 -0.3568878 1.9845389 255 64 64
-0.2085469 -0.2703780 2.0830431 255 64 64
-0.2117534 -0.2465059 1.9136257 255 64 64
-0.1358799 -0.4107288 1.9796991 255 64 64
-0.1734663 -0.3306613 2.1592612 255 64 64
-0.1588902 -0.2748924 1.8205703 255 64 64
0.0268247 -0.4688222 2.2960327 255 64 64
0.0546602 -0.3388595 1.6662841 255 64 64
0.0590495 -0.6822451 2.1376948 255 64 64
0.0984931 -0.6060867 1.7026173 255 64 64
0.0452081 -0.7716018 2.1260743 255 64 64
0.1028926 -0.6902418 1.6700517 255 64 64
-0.0293774 -0.4615948 1.9584171 255 64 64
-0.0685134 -0.4840766 1.9111683 255 64 64
-0.0693015 -0.5101459 1.9740329 255 64 64
-0.1617905 -0.4460832 1.8781928 255 64 64
-0.1629086 -0.5035957 2.0195336 255 64 64
-0.0351653 1.0959989 2.5041146 255 64 64
-0.1064188 1.0931892 2.5546532 255 64 64
-0.2889396 1.0857315 2.4314752 255 64 64
-0.1071838 1.1889608 2.1842299 255 64 64
-0.1795461 1.2047580 2.1262412 255 64 64
-0.3665804 1.1376215 2.2330565 255 64 64
0.0374831 -0.7660658 2.0172007 255 64 64
0.0184448 -0.8562577 2.0603549 255 64 64
0.0143955 -0.8744107 2.0900109 255 64 64
0.0224148 -0.8657899 2.1198928 255 64 64
0.0411411 -0.8423457 2.1551938 255 64 64
0.0478438 -0.7338698 1.7570355 255 64 64
0.0777382 -0.7919619 1.6652260 255 64 64
0.0945189 -0.7919903 1.6338259 255 64 64
0.1151801 -0.7711265 1.6190799 255 64 64
0.1409075 -0.7327271 1.6139501 255 64 64
