ply
format ascii 1.0
element vertex 45
property float x
property float y
property float z
property uchar red
property uchar green
property uchar blue
end_header
0.0689339 0.1776421 2.0654867 255 64 64
0.0654742 0.2553570 2.1506815 255 64 64
0.0781385 0.2833573 2.0262032 255 64 64
0.0278947 0.0693042 2.0329566 255 64 64
0.0884683 0.6149818 2.3387833 255 64 64
0.0554763 0.6931731 2.0885587 255 64 64
0.0422581 -0.0832760 2.0156336 255 64 64
0.0334416 1.0281452 2.4518855 255 64 64
-0.0883135 1.0745214 2.2324114 255 64 64
0.0465717 -0.1454341 2.0071366 255 64 64
0.1323794 1.0843146 2.5395727 255 64 64
0.0179079 1.1585510 2.1798592 255 64 64
0.0049336 -0.3663427 1.9727259 255 64 64
0.0159830 -0.2825932 2.0724907 255 64 64
0.0083002 -0.2545582 1.9043015 255 64 64
0.0634232 -0.4319069 1.9712938 255 64 64
0.0317998 -0.3656921 2.1314371 255 64 64
0.0374638 -0.3118234 1.8140633 255 64 64
0.1471572 -0.5962705 2.2392170 255 64 64
0.1678714 -0.4637716 1.6304921 255 64 64
0.1155551 -0.8139042 2.0857546 255 64 64
0.1772292 -0.7376098 1.6275995 255 64 64
0.0752758 -0.8955141 2.0782769 255 64 64
0.1620258 -0.8145555 1.5822514 255 64 64
0.1567819 -0.5021169 1.9452920 255 64 64
0.1113188 -0.5161052 1.8995918 255 64 64
0.1082736 -0.5419967 1.9623213 255 64 64
0.0258233 -0.4597478 1.8708704 255 64 64
0.0205932 -0.5169921 2.0118873 255 64 64
0.2145110 1.0724791 2.5417902 255 64 64
0.1391906 1.0710683 2.5849912 255 64 64
-0.0349453 1.0686698 2.4514496 255 64 64
0.1009521 1.1750081 2.1961548 255 64 64
0.0227185 1.1876600 2.1446762 255 64 64
-0.1529348 1.1107221 2.2629516 255 64 64
0.0640713 -0.8896537 1.9684756 255 64 64
0.0208626 -0.9702393 2.0157824 255 64 64
0.0134795 -0.9864206 2.0466897 255 64 64
0.0254128 -0.9803964 2.0767088 255 64 64
0.0523670 -0.9628093 2.1107056 255 64 64
0.1134775 -0.8649604 1.6709981 255 64 64
0.1186828 -0.9103655 1.5673125 255 64 64
0.1304203 -0.9070897 1.5327396 255 64 64
0.1525401 -0.8869542 1.5175254 255 64 64
0.1845152 -0.8518235 1.5132239 255 64 64
