ply
format ascii 1.0
element vertex 264
property float x
property float y
property float z
property uchar red
property uchar green
property uchar blue
element face 268
property list uchar int vertex_indices
end_header
-0.213016 -0.146448 -0.439345 35 45 65
0.213016 -0.146448 -0.439345 35 45 65
0.213016 0.146448 -0.439345 35 45 65
-0.213016 0.146448 -0.439345 35 45 65
-0.213016 -0.146448 -0.199702 35 45 65
0.213016 -0.146448 -0.199702 35 45 65
0.213016 0.146448 -0.199702 35 45 65
-0.213016 0.146448 -0.199702 35 45 65
-0.012815 0.000000 -0.003608 105 118 138
-0.011573 -0.004999 -0.004281 105 118 138
-0.008569 -0.009237 -0.004302 105 118 138
-0.004260 -0.012068 -0.003668 105 118 138
0.000697 -0.013063 -0.002476 105 118 138
0.005548 -0.012068 -0.000907 105 118 138
0.009555 -0.009237 0.000801 105 118 138
0.012106 -0.004999 0.002386 105 118 138
0.012815 -0.000000 0.003608 105 118 138
0.011573 0.004999 0.004281 105 118 138
0.008569 0.009237 0.004302 105 118 138
0.004260 0.012068 0.003668 105 118 138
-0.000697 0.013063 0.002476 105 118 138
-0.005548 0.012068 0.000907 105 118 138
-0.009555 0.009237 -0.000801 105 118 138
-0.012106 0.004999 -0.002386 105 118 138
-0.598297 -0.425362 2.075805 105 118 138
-0.597055 -0.430361 2.075132 105 118 138
-0.594051 -0.434599 2.075111 105 118 138
-0.589742 -0.437430 2.075745 105 118 138
-0.584785 -0.438425 2.076937 105 118 138
-0.579934 -0.437430 2.078506 105 118 138
-0.575927 -0.434599 2.080214 105 118 138
-0.573375 -0.430361 2.081799 105 118 138
-0.572667 -0.425362 2.083021 105 118 138
-0.573909 -0.420363 2.083694 105 118 138
-0.576913 -0.416125 2.083715 105 118 138
-0.581222 -0.413294 2.083081 105 118 138
-0.586179 -0.412299 2.081889 105 118 138
-0.591030 -0.413294 2.080319 105 118 138
-0.595037 -0.416125 2.078612 105 118 138
-0.597588 -0.420363 2.077027 105 118 138
-0.012815 0.000000 0.003608 105 118 138
-0.012106 -0.004999 0.002386 105 118 138
-0.009555 -0.009237 0.000801 105 118 138
-0.005548 -0.012068 -0.000907 105 118 138
-0.000697 -0.013063 -0.002476 105 118 138
0.004260 -0.012068 -0.003668 105 118 138
0.008569 -0.009237 -0.004302 105 118 138
0.011573 -0.004999 -0.004281 105 118 138
0.012815 -0.000000 -0.003608 105 118 138
0.012106 0.004999 -0.002386 105 118 138
0.009555 0.009237 -0.000801 105 118 138
0.005548 0.012068 0.000907 105 118 138
0.000697 0.013063 0.002476 105 118 138
-0.004260 0.012068 0.003668 105 118 138
-0.008569 0.009237 0.004302 105 118 138
-0.011573 0.004999 0.004281 105 118 138
0.572667 -0.425362 2.083021 105 118 138
0.573375 -0.430361 2.081799 105 118 138
0.575927 -0.434599 2.080214 105 118 138
0.579934 -0.437430 2.078506 105 118 138
0.584785 -0.438425 2.076937 105 118 138
0.589742 -0.437430 2.075745 105 118 138
0.594051 -0.434599 2.075111 105 118 138
0.597055 -0.430361 2.075132 105 118 138
0.598297 -0.425362 2.075805 105 118 138
0.597588 -0.420363 2.077027 105 118 138
0.595037 -0.416125 2.078612 105 118 138
0.591030 -0.413294 2.080319 105 118 138
0.586179 -0.412299 2.081889 105 118 138
0.581222 -0.413294 2.083081 105 118 138
0.576913 -0.416125 2.083715 105 118 138
0.573909 -0.420363 2.083694 105 118 138
-0.012815 0.000000 0.003608 105 118 138
-0.011573 -0.004999 0.004281 105 118 138
-0.008569 -0.009237 0.004302 105 118 138
-0.004260 -0.012068 0.003668 105 118 138
0.000697 -0.013063 0.002476 105 118 138
0.005548 -0.012068 0.000907 105 118 138
0.009555 -0.009237 -0.000801 105 118 138
0.012106 -0.004999 -0.002386 105 118 138
0.012815 -0.000000 -0.003608 105 118 138
0.011573 0.004999 -0.004281 105 118 138
0.008569 0.009237 -0.004302 105 118 138
0.004260 0.012068 -0.003668 105 118 138
-0.000697 0.013063 -0.002476 105 118 138
-0.005548 0.012068 -0.000907 105 118 138
-0.009555 0.009237 0.000801 105 118 138
-0.012106 0.004999 0.002386 105 118 138
0.572667 0.425362 2.083021 105 118 138
0.573909 0.420363 2.083694 105 118 138
0.576913 0.416125 2.083715 105 118 138
0.581222 0.413294 2.083081 105 118 138
0.586179 0.412299 2.081889 105 118 138
0.591030 0.413294 2.080319 105 118 138
0.595037 0.416125 2.078612 105 118 138
0.597588 0.420363 2.077027 105 118 138
0.598297 0.425362 2.075805 105 118 138
0.597055 0.430361 2.075132 105 118 138
0.594051 0.434599 2.075111 105 118 138
0.589742 0.437430 2.075745 105 118 138
0.584785 0.438425 2.076937 105 118 138
0.579934 0.437430 2.078506 105 118 138
0.575927 0.434599 2.080214 105 118 138
0.573375 0.430361 2.081799 105 118 138
-0.012815 0.000000 -0.003608 105 118 138
-0.012106 -0.004999 -0.002386 105 118 138
-0.009555 -0.009237 -0.000801 105 118 138
-0.005548 -0.012068 0.000907 105 118 138
-0.000697 -0.013063 0.002476 105 118 138
0.004260 -0.012068 0.003668 105 118 138
0.008569 -0.009237 0.004302 105 118 138
0.011573 -0.004999 0.004281 105 118 138
0.012815 -0.000000 0.003608 105 118 138
0.012106 0.004999 0.002386 105 118 138
0.009555 0.009237 0.000801 105 118 138
0.005548 0.012068 -0.000907 105 118 138
0.000697 0.013063 -0.002476 105 118 138
-0.004260 0.012068 -0.003668 105 118 138
-0.008569 0.009237 -0.004302 105 118 138
-0.011573 0.004999 -0.004281 105 118 138
-0.598297 0.425362 2.075805 105 118 138
-0.597588 0.420363 2.077027 105 118 138
-0.595037 0.416125 2.078612 105 118 138
-0.591030 0.413294 2.080319 105 118 138
-0.586179 0.412299 2.081889 105 118 138
-0.581222 0.413294 2.083081 105 118 138
-0.576913 0.416125 2.083715 105 118 138
-0.573909 0.420363 2.083694 105 118 138
-0.572667 0.425362 2.083021 105 118 138
-0.573375 0.430361 2.081799 105 118 138
-0.575927 0.434599 2.080214 105 118 138
-0.579934 0.437430 2.078506 105 118 138
-0.584785 0.438425 2.076937 105 118 138
-0.589742 0.437430 2.075745 105 118 138
-0.594051 0.434599 2.075111 105 118 138
-0.597055 0.430361 2.075132 105 118 138
-0.585482 -0.438675 2.079413 35 45 65
-0.585482 -0.437662 2.074318 35 45 65
-0.585482 -0.434776 2.069999 35 45 65
-0.585482 -0.430457 2.067113 35 45 65
-0.585482 -0.425362 2.066099 35 45 65
-0.585482 -0.420267 2.067113 35 45 65
-0.585482 -0.415948 2.069999 35 45 65
-0.585482 -0.413062 2.074318 35 45 65
-0.585482 -0.412049 2.079413 35 45 65
-0.585482 -0.413062 2.084508 35 45 65
-0.585482 -0.415948 2.088827 35 45 65
-0.585482 -0.420267 2.091713 35 45 65
-0.585482 -0.425362 2.092726 35 45 65
-0.585482 -0.430457 2.091713 35 45 65
-0.585482 -0.434776 2.088827 35 45 65
-0.585482 -0.437662 2.084508 35 45 65
0.585482 -0.438675 2.079413 35 45 65
0.585482 -0.437662 2.074318 35 45 65
0.585482 -0.434776 2.069999 35 45 65
0.585482 -0.430457 2.067113 35 45 65
0.585482 -0.425362 2.066099 35 45 65
0.585482 -0.420267 2.067113 35 45 65
0.585482 -0.415948 2.069999 35 45 65
0.585482 -0.413062 2.074318 35 45 65
0.585482 -0.412049 2.079413 35 45 65
0.585482 -0.413062 2.084508 35 45 65
0.585482 -0.415948 2.088827 35 45 65
0.585482 -0.420267 2.091713 35 45 65
0.585482 -0.425362 2.092726 35 45 65
0.585482 -0.430457 2.091713 35 45 65
0.585482 -0.434776 2.088827 35 45 65
0.585482 -0.437662 2.084508 35 45 65
0.598795 -0.425362 2.079413 35 45 65
0.597782 -0.425362 2.074318 35 45 65
0.594896 -0.425362 2.069999 35 45 65
0.590577 -0.425362 2.067113 35 45 65
0.585482 -0.425362 2.066099 35 45 65
0.580387 -0.425362 2.067113 35 45 65
0.576068 -0.425362 2.069999 35 45 65
0.573182 -0.425362 2.074318 35 45 65
0.572168 -0.425362 2.079413 35 45 65
0.573182 -0.425362 2.084508 35 45 65
0.576068 -0.425362 2.088827 35 45 65
0.580387 -0.425362 2.091713 35 45 65
0.585482 -0.425362 2.092726 35 45 65
0.590577 -0.425362 2.091713 35 45 65
0.594896 -0.425362 2.088827 35 45 65
0.597782 -0.425362 2.084508 35 45 65
0.598795 0.425362 2.079413 35 45 65
0.597782 0.425362 2.074318 35 45 65
0.594896 0.425362 2.069999 35 45 65
0.590577 0.425362 2.067113 35 45 65
0.585482 0.425362 2.066099 35 45 65
0.580387 0.425362 2.067113 35 45 65
0.576068 0.425362 2.069999 35 45 65
0.573182 0.425362 2.074318 35 45 65
0.572168 0.425362 2.079413 35 45 65
0.573182 0.425362 2.084508 35 45 65
0.576068 0.425362 2.088827 35 45 65
0.580387 0.425362 2.091713 35 45 65
0.585482 0.425362 2.092726 35 45 65
0.590577 0.425362 2.091713 35 45 65
0.594896 0.425362 2.088827 35 45 65
0.597782 0.425362 2.084508 35 45 65
0.585482 0.438675 2.079413 35 45 65
0.585482 0.437662 2.074318 35 45 65
0.585482 0.434776 2.069999 35 45 65
0.585482 0.430457 2.067113 35 45 65
0.585482 0.425362 2.066099 35 45 65
0.585482 0.420267 2.067113 35 45 65
0.585482 0.415948 2.069999 35 45 65
0.585482 0.413062 2.074318 35 45 65
0.585482 0.412049 2.079413 35 45 65
0.585482 0.413062 2.084508 35 45 65
0.585482 0.415948 2.088827 35 45 65
0.585482 0.420267 2.091713 35 45 65
0.585482 0.425362 2.092726 35 45 65
0.585482 0.430457 2.091713 35 45 65
0.585482 0.434776 2.088827 35 45 65
0.585482 0.437662 2.084508 35 45 65
-0.585482 0.438675 2.079413 35 45 65
-0.585482 0.437662 2.074318 35 45 65
-0.585482 0.434776 2.069999 35 45 65
-0.585482 0.430457 2.067113 35 45 65
-0.585482 0.425362 2.066099 35 45 65
-0.585482 0.420267 2.067113 35 45 65
-0.585482 0.415948 2.069999 35 45 65
-0.585482 0.413062 2.074318 35 45 65
-0.585482 0.412049 2.079413 35 45 65
-0.585482 0.413062 2.084508 35 45 65
-0.585482 0.415948 2.088827 35 45 65
-0.585482 0.420267 2.091713 35 45 65
-0.585482 0.425362 2.092726 35 45 65
-0.585482 0.430457 2.091713 35 45 65
-0.585482 0.434776 2.088827 35 45 65
-0.585482 0.437662 2.084508 35 45 65
-0.598795 0.425362 2.079413 35 45 65
-0.597782 0.425362 2.074318 35 45 65
-0.594896 0.425362 2.069999 35 45 65
-0.590577 0.425362 2.067113 35 45 65
-0.585482 0.425362 2.066099 35 45 65
-0.580387 0.425362 2.067113 35 45 65
-0.576068 0.425362 2.069999 35 45 65
-0.573182 0.425362 2.074318 35 45 65
-0.572168 0.425362 2.079413 35 45 65
-0.573182 0.425362 2.084508 35 45 65
-0.576068 0.425362 2.088827 35 45 65
-0.580387 0.425362 2.091713 35 45 65
-0.585482 0.425362 2.092726 35 45 65
-0.590577 0.425362 2.091713 35 45 65
-0.594896 0.425362 2.088827 35 45 65
-0.597782 0.425362 2.084508 35 45 65
-0.598795 -0.425362 2.079413 35 45 65
-0.597782 -0.425362 2.074318 35 45 65
-0.594896 -0.425362 2.069999 35 45 65
-0.590577 -0.425362 2.067113 35 45 65
-0.585482 -0.425362 2.066099 35 45 65
-0.580387 -0.425362 2.067113 35 45 65
-0.576068 -0.425362 2.069999 35 45 65
-0.573182 -0.425362 2.074318 35 45 65
-0.572168 -0.425362 2.079413 35 45 65
-0.573182 -0.425362 2.084508 35 45 65
-0.576068 -0.425362 2.088827 35 45 65
-0.580387 -0.425362 2.091713 35 45 65
-0.585482 -0.425362 2.092726 35 45 65
-0.590577 -0.425362 2.091713 35 45 65
-0.594896 -0.425362 2.088827 35 45 65
-0.597782 -0.425362 2.084508 35 45 65
3 0 1 2
3 0 2 3
3 4 6 5
3 4 7 6
3 0 4 5
3 0 5 1
3 1 5 6
3 1 6 2
3 2 6 7
3 2 7 3
3 3 7 4
3 3 4 0
3 8 9 24
3 9 25 24
3 9 10 25
3 10 26 25
3 10 11 26
3 11 27 26
3 11 12 27
3 12 28 27
3 12 13 28
3 13 29 28
3 13 14 29
3 14 30 29
3 14 15 30
3 15 31 30
3 15 16 31
3 16 32 31
3 16 17 32
3 17 33 32
3 17 18 33
3 18 34 33
3 18 19 34
3 19 35 34
3 19 20 35
3 20 36 35
3 20 21 36
3 21 37 36
3 21 22 37
3 22 38 37
3 22 23 38
3 23 39 38
3 23 8 39
3 8 24 39
3 40 41 56
3 41 57 56
3 41 42 57
3 42 58 57
3 42 43 58
3 43 59 58
3 43 44 59
3 44 60 59
3 44 45 60
3 45 61 60
3 45 46 61
3 46 62 61
3 46 47 62
3 47 63 62
3 47 48 63
3 48 64 63
3 48 49 64
3 49 65 64
3 49 50 65
3 50 66 65
3 50 51 66
3 51 67 66
3 51 52 67
3 52 68 67
3 52 53 68
3 53 69 68
3 53 54 69
3 54 70 69
3 54 55 70
3 55 71 70
3 55 40 71
3 40 56 71
3 72 73 88
3 73 89 88
3 73 74 89
3 74 90 89
3 74 75 90
3 75 91 90
3 75 76 91
3 76 92 91
3 76 77 92
3 77 93 92
3 77 78 93
3 78 94 93
3 78 79 94
3 79 95 94
3 79 80 95
3 80 96 95
3 80 81 96
3 81 97 96
3 81 82 97
3 82 98 97
3 82 83 98
3 83 99 98
3 83 84 99
3 84 100 99
3 84 85 100
3 85 101 100
3 85 86 101
3 86 102 101
3 86 87 102
3 87 103 102
3 87 72 103
3 72 88 103
3 104 105 120
3 105 121 120
3 105 106 121
3 106 122 121
3 106 107 122
3 107 123 122
3 107 108 123
3 108 124 123
3 108 109 124
3 109 125 124
3 109 110 125
3 110 126 125
3 110 111 126
3 111 127 126
3 111 112 127
3 112 128 127
3 112 113 128
3 113 129 128
3 113 114 129
3 114 130 129
3 114 115 130
3 115 131 130
3 115 116 131
3 116 132 131
3 116 117 132
3 117 133 132
3 117 118 133
3 118 134 133
3 118 119 134
3 119 135 134
3 119 104 135
3 104 120 135
3 136 137 152
3 137 153 152
3 137 138 153
3 138 154 153
3 138 139 154
3 139 155 154
3 139 140 155
3 140 156 155
3 140 141 156
3 141 157 156
3 141 142 157
3 142 158 157
3 142 143 158
3 143 159 158
3 143 144 159
3 144 160 159
3 144 145 160
3 145 161 160
3 145 146 161
3 146 162 161
3 146 147 162
3 147 163 162
3 147 148 163
3 148 164 163
3 148 149 164
3 149 165 164
3 149 150 165
3 150 166 165
3 150 151 166
3 151 167 166
3 151 136 167
3 136 152 167
3 168 169 184
3 169 185 184
3 169 170 185
3 170 186 185
3 170 171 186
3 171 187 186
3 171 172 187
3 172 188 187
3 172 173 188
3 173 189 188
3 173 174 189
3 174 190 189
3 174 175 190
3 175 191 190
3 175 176 191
3 176 192 191
3 176 177 192
3 177 193 192
3 177 178 193
3 178 194 193
3 178 179 194
3 179 195 194
3 179 180 195
3 180 196 195
3 180 181 196
3 181 197 196
3 181 182 197
3 182 198 197
3 182 183 198
3 183 199 198
3 183 168 199
3 168 184 199
3 200 201 216
3 201 217 216
3 201 202 217
3 202 218 217
3 202 203 218
3 203 219 218
3 203 204 219
3 204 220 219
3 204 205 220
3 205 221 220
3 205 206 221
3 206 222 221
3 206 207 222
3 207 223 222
3 207 208 223
3 208 224 223
3 208 209 224
3 209 225 224
3 209 210 225
3 210 226 225
3 210 211 226
3 211 227 226
3 211 212 227
3 212 228 227
3 212 213 228
3 213 229 228
3 213 214 229
3 214 230 229
3 214 215 230
3 215 231 230
3 215 200 231
3 200 216 231
3 232 233 248
3 233 249 248
3 233 234 249
3 234 250 249
3 234 235 250
3 235 251 250
3 235 236 251
3 236 252 251
3 236 237 252
3 237 253 252
3 237 238 253
3 238 254 253
3 238 239 254
3 239 255 254
3 239 240 255
3 240 256 255
3 240 241 256
3 241 257 256
3 241 242 257
3 242 258 257
3 242 243 258
3 243 259 258
3 243 244 259
3 244 260 259
3 244 245 260
3 245 261 260
3 245 246 261
3 246 262 261
3 246 247 262
3 247 263 262
3 247 232 263
3 232 248 263
