<svg xmlns="http://www.w3.org/2000/svg" width="706" height="502" viewBox="0 0 706 502">
<rect x="322" y="84" width="28" height="28" rx="4" fill="rgb(255,205,205)" fill-opacity="0.82" stroke="rgb(244,124,124)" stroke-width="2"/>
<rect x="356" y="84" width="28" height="28" rx="4" fill="rgb(255,205,205)" fill-opacity="0.82" stroke="rgb(244,124,124)" stroke-width="2"/>
<rect x="288" y="118" width="28" height="28" rx="4" fill="rgb(255,205,205)" fill-opacity="0.82" stroke="rgb(244,124,124)" stroke-width="2"/>
<rect x="322" y="118" width="28" height="28" rx="4" fill="rgb(255,205,205)" fill-opacity="0.82" stroke="rgb(244,124,124)" stroke-width="2"/>
<rect x="356" y="118" width="28" height="28" rx="4" fill="rgb(255,205,205)" fill-opacity="0.82" stroke="rgb(244,124,124)" stroke-width="2"/>
<rect x="288" y="152" width="28" height="28" rx="4" fill="rgb(255,205,205)" fill-opacity="0.82" stroke="rgb(244,124,124)" stroke-width="2"/>
<rect x="322" y="152" width="28" height="28" rx="4" fill="rgb(255,205,205)" fill-opacity="0.82" stroke="rgb(244,124,124)" stroke-width="2"/>
<rect x="356" y="152" width="28" height="28" rx="4" fill="rgb(255,205,205)" fill-opacity="0.82" stroke="rgb(244,124,124)" stroke-width="2"/>
<rect x="254" y="186" width="28" height="28" rx="4" fill="rgb(255,205,205)" fill-opacity="0.82" stroke="rgb(244,124,124)" stroke-width="2"/>
<rect x="288" y="186" width="28" height="28" rx="4" fill="rgb(255,205,205)" fill-opacity="0.82" stroke="rgb(244,124,124)" stroke-width="2"/>
<rect x="322" y="186" width="28" height="28" rx="4" fill="rgb(255,205,205)" fill-opacity="0.82" stroke="rgb(244,124,124)" stroke-width="2"/>
<rect x="356" y="186" width="28" height="28" rx="4" fill="rgb(255,205,205)" fill-opacity="0.82" stroke="rgb(244,124,124)" stroke-width="2"/>
<rect x="390" y="186" width="28" height="28" rx="4" fill="rgb(255,205,205)" fill-opacity="0.82" stroke="rgb(244,124,124)" stroke-width="2"/>
<rect x="254" y="220" width="28" height="28" rx="4" fill="rgb(255,205,205)" fill-opacity="0.82" stroke="rgb(244,124,124)" stroke-width="2"/>
<rect x="288" y="220" width="28" height="28" rx="4" fill="rgb(255,205,205)" fill-opacity="0.82" stroke="rgb(244,124,124)" stroke-width="2"/>
<rect x="322" y="220" width="28" height="28" rx="4" fill="rgb(255,205,205)" fill-opacity="0.82" stroke="rgb(244,124,124)" stroke-width="2"/>
<rect x="356" y="220" width="28" height="28" rx="4" fill="rgb(255,205,205)" fill-opacity="0.82" stroke="rgb(244,124,124)" stroke-width="2"/>
<rect x="390" y="220" width="28" height="28" rx="4" fill="rgb(255,205,205)" fill-opacity="0.82" stroke="rgb(244,124,124)" stroke-width="2"/>
<rect x="424" y="220" width="28" height="28" rx="4" fill="rgb(255,205,205)" fill-opacity="0.82" stroke="rgb(244,124,124)" stroke-width="2"/>
<rect x="220" y="254" width="28" height="28" rx="4" fill="rgb(255,205,205)" fill-opacity="0.82" stroke="rgb(244,124,124)" stroke-width="2"/>
<rect x="254" y="254" width="28" height="28" rx="4" fill="rgb(255,205,205)" fill-opacity="0.82" stroke="rgb(244,124,124)" stroke-width="2"/>
<rect x="288" y="254" width="28" height="28" rx="4" fill="rgb(255,205,205)" fill-opacity="0.82" stroke="rgb(244,124,124)" stroke-width="2"/>
<rect x="322" y="254" width="28" height="28" rx="4" fill="rgb(255,205,205)" fill-opacity="0.82" stroke="rgb(244,124,124)" stroke-width="2"/>
<rect x="356" y="254" width="28" height="28" rx="4" fill="rgb(255,205,205)" fill-opacity="0.82" stroke="rgb(244,124,124)" stroke-width="2"/>
<rect x="390" y="254" width="28" height="28" rx="4" fill="rgb(255,205,205)" fill-opacity="0.82" stroke="rgb(244,124,124)" stroke-width="2"/>
<rect x="424" y="254" width="28" height="28" rx="4" fill="rgb(255,205,205)" fill-opacity="0.82" stroke="rgb(244,124,124)" stroke-width="2"/>
<rect x="458" y="254" width="28" height="28" rx="4" fill="rgb(255,205,205)" fill-opacity="0.82" stroke="rgb(244,124,124)" stroke-width="2"/>
<rect x="220" y="288" width="28" height="28" rx="4" fill="rgb(255,205,205)" fill-opacity="0.82" stroke="rgb(244,124,124)" stroke-width="2"/>
<rect x="254" y="288" width="28" height="28" rx="4" fill="rgb(255,205,205)" fill-opacity="0.82" stroke="rgb(244,124,124)" stroke-width="2"/>
<rect x="288" y="288" width="28" height="28" rx="4" fill="rgb(255,205,205)" fill-opacity="0.82" stroke="rgb(244,124,124)" stroke-width="2"/>
<rect x="322" y="288" width="28" height="28" rx="4" fill="rgb(255,205,205)" fill-opacity="0.82" stroke="rgb(244,124,124)" stroke-width="2"/>
<rect x="356" y="288" width="28" height="28" rx="4" fill="rgb(255,205,205)" fill-opacity="0.82" stroke="rgb(244,124,124)" stroke-width="2"/>
<rect x="390" y="288" width="28" height="28" rx="4" fill="rgb(255,205,205)" fill-opacity="0.82" stroke="rgb(244,124,124)" stroke-width="2"/>
<rect x="458" y="288" width="28" height="28" rx="4" fill="rgb(255,205,205)" fill-opacity="0.82" stroke="rgb(244,124,124)" stroke-width="2"/>
<rect x="288" y="322" width="28" height="28" rx="4" fill="rgb(255,205,205)" fill-opacity="0.82" stroke="rgb(244,124,124)" stroke-width="2"/>
<rect x="322" y="322" width="28" height="28" rx="4" fill="rgb(255,205,205)" fill-opacity="0.82" stroke="rgb(244,124,124)" stroke-width="2"/>
<rect x="356" y="322" width="28" height="28" rx="4" fill="rgb(255,205,205)" fill-opacity="0.82" stroke="rgb(244,124,124)" stroke-width="2"/>
<rect x="390" y="322" width="28" height="28" rx="4" fill="rgb(255,205,205)" fill-opacity="0.82" stroke="rgb(244,124,124)" stroke-width="2"/>
<rect x="288" y="356" width="28" height="28" rx="4" fill="rgb(255,205,205)" fill-opacity="0.82" stroke="rgb(244,124,124)" stroke-width="2"/>
<rect x="356" y="356" width="28" height="28" rx="4" fill="rgb(255,205,205)" fill-opacity="0.82" stroke="rgb(244,124,124)" stroke-width="2"/>
<rect x="390" y="356" width="28" height="28" rx="4" fill="rgb(255,205,205)" fill-opacity="0.82" stroke="rgb(244,124,124)" stroke-width="2"/>
<rect x="254" y="390" width="28" height="28" rx="4" fill="rgb(255,205,205)" fill-opacity="0.82" stroke="rgb(244,124,124)" stroke-width="2"/>
<rect x="288" y="390" width="28" height="28" rx="4" fill="rgb(255,205,205)" fill-opacity="0.82" stroke="rgb(244,124,124)" stroke-width="2"/>
<rect x="390" y="390" width="28" height="28" rx="4" fill="rgb(255,205,205)" fill-opacity="0.82" stroke="rgb(244,124,124)" stroke-width="2"/>
<rect x="424" y="390" width="28" height="28" rx="4" fill="rgb(255,205,205)" fill-opacity="0.82" stroke="rgb(244,124,124)" stroke-width="2"/>
<rect x="254" y="424" width="28" height="28" rx="4" fill="rgb(255,205,205)" fill-opacity="0.82" stroke="rgb(244,124,124)" stroke-width="2"/>
<rect x="424" y="424" width="28" height="28" rx="4" fill="rgb(255,205,205)" fill-opacity="0.82" stroke="rgb(244,124,124)" stroke-width="2"/>
</svg>